<?xml version="1.0" encoding="UTF-8"?>
<svg version="1.1" xmlns="http://www.w3.org/2000/svg" width="1024" height="1024">
<path d="M0 0 C2.79136265 0.3153703 5.44591718 0.44153818 8.25 0.3671875 C8.25 1.0271875 8.25 1.6871875 8.25 2.3671875 C8.92732178 2.41617188 9.60464355 2.46515625 10.30249023 2.515625 C16.76815921 3.0353427 22.99005352 3.92539326 29.3125 5.3671875 C30.23063477 5.57504883 31.14876953 5.78291016 32.09472656 5.99707031 C44.48241688 8.95439872 57.8248614 12.6546182 69.25 18.3671875 C69.58 17.7071875 69.91 17.0471875 70.25 16.3671875 C70.25 17.3571875 70.25 18.3471875 70.25 19.3671875 C70.76304687 19.4909375 71.27609375 19.6146875 71.8046875 19.7421875 C98.83913234 27.02419284 125.60833291 43.7023288 147.92578125 60.28369141 C150.37917356 62.09905212 152.32809739 63.39321996 155.25 64.3671875 C156.94068436 66.00948527 158.60385499 67.68024881 160.25 69.3671875 C162.19282145 71.03130337 164.15243361 72.67593993 166.125 74.3046875 C176.42502035 82.92070798 186.13039997 92.18988179 195.6875 101.6171875 C196.24953125 102.16616699 196.8115625 102.71514648 197.390625 103.28076172 C198.71693388 104.60413257 199.98935769 105.98111873 201.25 107.3671875 C201.25 108.0271875 201.25 108.6871875 201.25 109.3671875 C201.91 109.3671875 202.57 109.3671875 203.25 109.3671875 C204.66706502 110.91607252 206.00809496 112.53480284 207.3125 114.1796875 C208.11558594 115.18515625 208.91867187 116.190625 209.74609375 117.2265625 C210.16101074 117.74927734 210.57592773 118.27199219 211.00341797 118.81054688 C212.92644267 121.21187972 214.90623085 123.56581374 216.875 125.9296875 C220.43123733 130.26443562 223.6978699 134.7286974 226.83984375 139.37109375 C228.23397574 141.46418219 228.23397574 141.46418219 230.25 143.3671875 C232.72974134 146.93801504 234.97624606 150.66299254 237.25 154.3671875 C237.94561035 155.49809814 237.94561035 155.49809814 238.65527344 156.65185547 C245.20505605 167.36186195 251.36159101 178.21022088 257 189.4296875 C257.51328857 190.44635498 258.02657715 191.46302246 258.55541992 192.51049805 C259.0269751 193.46480713 259.49853027 194.41911621 259.984375 195.40234375 C260.39913086 196.241604 260.81388672 197.08086426 261.24121094 197.94555664 C262.25 200.3671875 262.25 200.3671875 262.76660156 203.11499023 C263.00588379 204.22982788 263.00588379 204.22982788 263.25 205.3671875 C263.91 205.6971875 264.57 206.0271875 265.25 206.3671875 C266.19905446 208.65114151 267.02639089 210.90113728 267.8125 213.2421875 C268.06644531 213.9846875 268.32039062 214.7271875 268.58203125 215.4921875 C269.15581085 217.17563519 269.72604727 218.86029311 270.29345703 220.54589844 C271.32177042 223.57887176 272.37722854 226.60168919 273.43359375 229.625 C281.69540127 253.50843252 287.20322968 277.27703392 290.25 302.3671875 C290.36859375 303.32818359 290.4871875 304.28917969 290.609375 305.27929688 C295.03830202 342.95153923 292.53958048 381.26459826 285.25 418.3671875 C285.07130371 419.28886719 284.89260742 420.21054687 284.70849609 421.16015625 C272.8984796 480.3121468 242.61089152 534.80475731 202.28515625 579.11328125 C200.46581284 581.12817789 198.69809804 583.17613631 196.9375 585.2421875 C189.63862927 593.58616212 181.75763589 601.21428728 173.07421875 608.1015625 C170.5684258 610.11174219 168.13808757 612.18807453 165.71704102 614.29882812 C158.30160676 620.73061713 150.43784391 626.39795541 142.34033203 631.93701172 C140.37559197 633.28125924 138.41998376 634.63794305 136.46484375 635.99609375 C127.08038364 642.45143066 117.31389427 648.04437637 107.25 653.3671875 C106.36731445 653.83914551 105.48462891 654.31110352 104.57519531 654.79736328 C71.54082593 672.34506282 36.17360706 683.64826772 -0.75 689.3671875 C-1.73468262 689.53089844 -2.71936523 689.69460938 -3.73388672 689.86328125 C-36.61448031 695.18843009 -72.91140472 694.70175126 -105.75 689.3671875 C-107.7187228 689.07403605 -109.68747303 688.78106873 -111.65625 688.48828125 C-147.87180893 682.85508421 -183.42607905 670.58987134 -215.75 653.3671875 C-216.33990723 653.06087402 -216.92981445 652.75456055 -217.53759766 652.43896484 C-237.04398079 642.27441418 -255.84863714 629.41688008 -272.75 615.3671875 C-273.67941406 614.62726562 -274.60882813 613.88734375 -275.56640625 613.125 C-291.19482011 600.63116133 -306.4180155 586.5246509 -318.82421875 570.80078125 C-320.67231431 568.46535826 -322.58962155 566.22257851 -324.5625 563.9921875 C-331.75 555.83521076 -331.75 555.83521076 -331.75 553.3671875 C-332.41 553.3671875 -333.07 553.3671875 -333.75 553.3671875 C-334.31589844 552.34238281 -334.88179688 551.31757812 -335.46484375 550.26171875 C-337.51700121 546.67156878 -339.84868531 543.37901078 -342.3125 540.0546875 C-351.85197525 526.9114901 -359.73553725 512.99168059 -366.75 498.3671875 C-367.60078125 496.71976563 -367.60078125 496.71976563 -368.46875 495.0390625 C-369.75 492.3671875 -369.75 492.3671875 -369.75 490.3671875 C-370.41 490.0371875 -371.07 489.7071875 -371.75 489.3671875 C-372.08333333 487.3671875 -372.41666667 485.3671875 -372.75 483.3671875 C-373.41 483.0371875 -374.07 482.7071875 -374.75 482.3671875 C-375.48390686 480.31397006 -376.20345999 478.2547124 -376.85791016 476.17480469 C-377.84714731 473.06144199 -378.92295595 469.98618987 -380.01171875 466.90625 C-380.60629883 465.21048828 -380.60629883 465.21048828 -381.21289062 463.48046875 C-382.03790866 461.13041737 -382.86609927 458.78147764 -383.69726562 456.43359375 C-384.08978516 455.31082031 -384.48230469 454.18804688 -384.88671875 453.03125 C-385.24467529 452.01498535 -385.60263184 450.9987207 -385.97143555 449.95166016 C-386.75 447.3671875 -386.75 447.3671875 -386.75 444.3671875 C-387.74 444.0371875 -388.73 443.7071875 -389.75 443.3671875 C-389.09 443.3671875 -388.43 443.3671875 -387.75 443.3671875 C-388.05292969 442.36945313 -388.35585938 441.37171875 -388.66796875 440.34375 C-392.64810594 426.86227806 -395.43909593 413.2264822 -397.75 399.3671875 C-397.91806152 398.3889502 -398.08612305 397.41071289 -398.25927734 396.40283203 C-401.00099302 379.67126351 -401.03555332 362.90190216 -401.0625 345.9921875 C-401.06617584 344.88361389 -401.06985168 343.77504028 -401.07363892 342.63287354 C-401.09616977 329.60280817 -400.63412016 316.79290711 -399.17651367 303.84130859 C-398.72457052 299.65960527 -398.67450847 295.57125353 -398.75 291.3671875 C-398.09 291.3671875 -397.43 291.3671875 -396.75 291.3671875 C-396.7075415 290.71886963 -396.66508301 290.07055176 -396.62133789 289.40258789 C-396.05632303 282.04433071 -394.81092501 274.99837708 -393.1875 267.8046875 C-392.92501465 266.6379248 -392.6625293 265.47116211 -392.39208984 264.26904297 C-378.90844468 206.05381583 -351.16749612 152.06225969 -310.42578125 108.265625 C-308.04871593 105.69076008 -305.74060892 103.07035784 -303.4375 100.4296875 C-294.47440492 90.45644038 -284.24350205 81.6804253 -273.75 73.3671875 C-271.89537102 71.88860054 -270.04118721 70.40945497 -268.1875 68.9296875 C-267.38183594 68.29160156 -266.57617188 67.65351563 -265.74609375 66.99609375 C-263.6884003 65.37277275 -263.6884003 65.37277275 -261.75 63.3671875 C-258.81808838 61.26878691 -255.76649823 59.34119029 -252.75 57.3671875 C-251.56102123 56.57318118 -250.3722321 55.77889085 -249.18359375 54.984375 C-206.00823685 26.33620553 -157.99993666 7.26262834 -106.75 -0.6328125 C-105.6966748 -0.79797363 -104.64334961 -0.96313477 -103.55810547 -1.13330078 C-69.31323537 -6.25704972 -34.18940884 -4.62981578 0 0 Z M-258.75 117.3671875 C-259.60078125 118.08261719 -260.4515625 118.79804688 -261.328125 119.53515625 C-262.06546875 120.16035156 -262.8028125 120.78554688 -263.5625 121.4296875 C-264.18769531 121.95691406 -264.81289063 122.48414063 -265.45703125 123.02734375 C-266.9814691 124.29671912 -266.9814691 124.29671912 -266.75 126.3671875 C-267.41 126.3671875 -268.07 126.3671875 -268.75 126.3671875 C-268.75 127.0271875 -268.75 127.6871875 -268.75 128.3671875 C-269.678125 128.7384375 -269.678125 128.7384375 -270.625 129.1171875 C-273.10068687 130.57347389 -273.70125002 131.74531256 -274.75 134.3671875 C-275.41 134.3671875 -276.07 134.3671875 -276.75 134.3671875 C-278.18700222 135.7097415 -278.18700222 135.7097415 -279.6875 137.5546875 C-280.31269531 138.29332031 -280.93789063 139.03195312 -281.58203125 139.79296875 C-282.29746094 140.64246094 -283.01289063 141.49195313 -283.75 142.3671875 C-284.55824219 143.28886719 -285.36648438 144.21054687 -286.19921875 145.16015625 C-299.55264558 160.45174328 -310.32578591 177.02760585 -320.25488281 194.70996094 C-321.4935505 196.91140756 -322.75224617 199.09855005 -324.0234375 201.28125 C-362.11980006 268.92173047 -367.49523849 355.30920178 -347.75 429.3671875 C-342.09785118 449.5011925 -334.59767513 468.91608037 -324.75 487.3671875 C-324.36585938 488.09147949 -323.98171875 488.81577148 -323.5859375 489.56201172 C-310.61937188 513.86909381 -294.37573256 537.38612882 -274.51171875 556.60546875 C-272.80939094 558.30779656 -271.27950873 560.07213401 -269.75 561.9296875 C-267.06243722 565.13019909 -264.1018254 567.80780648 -260.91796875 570.5078125 C-258.65834545 572.44579573 -256.49183886 574.46455135 -254.3125 576.4921875 C-237.55508065 591.55849114 -218.56925782 603.75577171 -198.75 614.3671875 C-198.13930664 614.69783203 -197.52861328 615.02847656 -196.89941406 615.36914062 C-165.83841115 632.05219932 -131.75776137 641.91391841 -97.0625 647.2421875 C-96.31696869 647.35782043 -95.57143738 647.47345337 -94.80331421 647.59259033 C-92.67859928 647.91891004 -90.55266437 648.23503361 -88.42578125 648.546875 C-87.18739502 648.72976074 -85.94900879 648.91264648 -84.6730957 649.10107422 C-81.81640823 649.61975139 -81.81640823 649.61975139 -79.75 648.3671875 C-79.15193838 645.30209774 -78.68215383 642.30002567 -78.28515625 639.20703125 C-78.15810806 638.26593002 -78.03105988 637.3248288 -77.90016174 636.35520935 C-76.51079058 625.89773107 -75.31608763 615.41810347 -74.1875 604.9296875 C-74.08016541 603.93703888 -73.97283081 602.94439026 -73.86224365 601.92166138 C-72.51543479 589.39648951 -71.25913079 576.87168517 -70.375 564.3046875 C-70.29048584 563.16136963 -70.20597168 562.01805176 -70.11889648 560.84008789 C-69.25850283 547.15480381 -69.45398259 536.65747984 -78.78515625 526.0546875 C-87.31052365 517.6263568 -97.81928055 511.59833565 -107.87890625 505.19824219 C-117.65833056 498.96136444 -127.35572977 492.6388694 -136.5 485.4921875 C-137.32286499 484.84975098 -137.32286499 484.84975098 -138.16235352 484.19433594 C-140.95803131 481.95918307 -143.52913122 479.61304482 -146.015625 477.046875 C-148.34998501 474.13387797 -148.34998501 474.13387797 -150.75 474.3671875 C-150.98847656 473.79613281 -151.22695313 473.22507812 -151.47265625 472.63671875 C-153.01766557 469.89161045 -154.87637446 468.1957142 -157.1875 466.0546875 C-180.69534826 442.953315 -194.00122262 411.06055073 -200.75 379.3671875 C-201.01018921 378.18624512 -201.01018921 378.18624512 -201.27563477 376.98144531 C-204.34775041 360.05081521 -204.48946847 341.44435017 -202.75 324.3671875 C-202.66621094 323.51318359 -202.58242188 322.65917969 -202.49609375 321.77929688 C-197.67747286 275.25585154 -178.57032621 230.4118793 -151.75 192.3671875 C-151.32058105 191.75520508 -150.89116211 191.14322266 -150.44873047 190.51269531 C-147.58350652 186.43878734 -144.67636829 182.39736138 -141.75 178.3671875 C-141.24210938 177.65433594 -140.73421875 176.94148437 -140.2109375 176.20703125 C-136.5340731 171.1432794 -132.44024532 166.44453844 -128.34643555 161.7175293 C-125.21361439 158.09700409 -122.17114087 154.42533737 -119.1875 150.6796875 C-115.20070807 145.75950871 -110.82857406 141.34545686 -106.30859375 136.92578125 C-104.1494267 134.7666142 -102.15162852 132.57603433 -100.1875 130.2421875 C-96.9041319 126.40640439 -93.26090502 123.1084886 -89.47265625 119.77734375 C-87.1038192 117.68039618 -84.78684909 115.53853047 -82.47949219 113.37451172 C-75.57252471 106.92117016 -68.23390272 101.13194153 -60.75 95.3671875 C-59.08005809 94.03795857 -57.41211052 92.70619616 -55.75 91.3671875 C-51.51819794 93.0955225 -48.39478615 96.08129802 -45 99.0546875 C-44.37963867 99.59125977 -43.75927734 100.12783203 -43.12011719 100.68066406 C-39.10522012 104.15884382 -35.12605419 107.67600759 -31.203125 111.2578125 C-29.78975104 112.56945931 -29.78975104 112.56945931 -27.75 112.3671875 C-27.75 113.0271875 -27.75 113.6871875 -27.75 114.3671875 C-26.46768919 115.66306797 -26.46768919 115.66306797 -24.6875 117.0546875 C-19.41360687 121.50186225 -14.65344989 126.43958947 -9.85522461 131.38745117 C-9.22495361 132.0291626 -8.59468262 132.67087402 -7.9453125 133.33203125 C-7.37828613 133.915896 -6.81125977 134.49976074 -6.22705078 135.10131836 C-4.82111258 136.58410073 -4.82111258 136.58410073 -2.75 136.3671875 C-2.51796875 136.92019531 -2.2859375 137.47320312 -2.046875 138.04296875 C-0.40173371 140.99133944 1.66870971 143.10959162 4 145.5546875 C35.66363677 179.44256368 63.41762317 220.62660145 79.25 264.3671875 C79.55776367 265.20958984 79.86552734 266.05199219 80.18261719 266.91992188 C98.64268143 318.03713217 100.42176927 374.02034222 77.5 423.9921875 C59.24610993 462.42605867 25.98501422 488.60387487 -9.07714844 510.84326172 C-27.70759913 522.22138265 -27.70759913 522.22138265 -38.75 540.3671875 C-39.31113689 544.23830802 -39.31807332 548.02334891 -39.25 551.9296875 C-39.23864014 553.08315674 -39.22728027 554.23662598 -39.21557617 555.42504883 C-38.69251221 580.27787427 -35.1041224 605.10160337 -32.0625 629.7421875 C-31.90015366 631.0617897 -31.90015366 631.0617897 -31.73452759 632.40805054 C-31.42803482 634.88203688 -31.11571398 637.35520041 -30.80078125 639.828125 C-30.70925781 640.56572556 -30.61773438 641.30332611 -30.5234375 642.0632782 C-30.06463886 645.83474908 -30.06463886 645.83474908 -28.75 649.3671875 C5.99496159 645.80848799 38.67316884 637.75214223 70.66650391 623.51660156 C72.98211984 622.48636911 75.30733083 621.48291493 77.63671875 620.484375 C96.40655269 612.24265054 114.13743823 600.99484405 130.25 588.3671875 C131.11882812 587.696875 131.98765625 587.0265625 132.8828125 586.3359375 C135.37150178 584.38339671 137.81509433 582.38637756 140.25 580.3671875 C140.74757813 579.95984375 141.24515625 579.5525 141.7578125 579.1328125 C155.05992351 568.2083735 167.77704008 556.27905092 178.41015625 542.70703125 C180.13652452 540.51150132 181.9408241 538.43895347 183.8125 536.3671875 C187.98926705 531.62521573 191.63484124 526.54477472 195.25 521.3671875 C195.63559082 520.81675781 196.02118164 520.26632812 196.41845703 519.69921875 C203.42108746 509.64300079 209.51838619 499.193301 215.25 488.3671875 C215.77956299 487.36800293 215.77956299 487.36800293 216.31982422 486.34863281 C218.74037065 481.73928206 221.03250244 477.07736992 223.25 472.3671875 C223.6094873 471.60664062 223.96897461 470.84609375 224.33935547 470.0625 C233.29396083 450.8557456 238.96789777 430.74999234 243.625 410.1171875 C243.98307739 408.53139893 243.98307739 408.53139893 244.34838867 406.91357422 C247.19384674 393.74316829 248.55489014 380.4894708 249.375 367.0546875 C249.43753967 366.04047226 249.43753967 366.04047226 249.50134277 365.00576782 C252.11384112 322.18485419 247.64645778 277.38183819 231.25 237.3671875 C230.92 237.0371875 230.59 236.7071875 230.25 236.3671875 C229.67016192 234.8009828 229.09438304 233.23316721 228.53808594 231.65844727 C219.20483606 205.40161609 204.88011842 181.52900168 188.3125 159.2421875 C187.87115723 158.64591553 187.42981445 158.04964355 186.97509766 157.43530273 C178.43411731 146.11343247 168.98840775 135.724787 158.9375 125.7421875 C158.39063538 125.19681335 157.84377075 124.65143921 157.28033447 124.08953857 C149.35909843 116.20699482 141.36671561 108.86159201 132.25 102.3671875 C130.98607012 101.42483344 129.7244536 100.47937075 128.46484375 99.53125 C121.26277665 94.13330612 113.95229739 89.03339412 106.25 84.3671875 C105.68216797 84.01366211 105.11433594 83.66013672 104.52929688 83.29589844 C76.78904951 66.04210631 45.4831086 52.38875724 13.25 46.3671875 C11.77852427 46.06700151 10.30718733 45.76613492 8.8359375 45.46484375 C-2.99338666 43.0928059 -14.72358297 41.32773049 -26.75 40.3671875 C-27.46075684 40.30934082 -28.17151367 40.25149414 -28.90380859 40.19189453 C-114.138032 33.53821529 -194.51062645 61.73447035 -258.75 117.3671875 Z M-56.75 201.3671875 C-59.00535123 204.75021434 -59.04110105 206.08052062 -59.15951347 210.06079865 C-59.19759845 211.22095348 -59.23568342 212.38110831 -59.27492249 213.57641935 C-59.30527931 214.83095805 -59.33563612 216.08549674 -59.36691284 217.37805176 C-59.4045285 218.68079812 -59.44214416 219.98354447 -59.48089969 221.32576799 C-59.83984864 234.28052844 -59.89138167 247.23441815 -59.87939453 260.19335938 C-59.88075495 262.72510808 -59.88253843 265.25685659 -59.88470459 267.78860474 C-59.88873788 273.8670393 -59.88822206 279.94545751 -59.88529195 286.02389222 C-59.88300794 290.97200929 -59.88273815 295.92012291 -59.88381577 300.86824036 C-59.883969 301.57984189 -59.88412223 302.29144342 -59.88428011 303.02460864 C-59.88459991 304.4713438 -59.88492413 305.91807895 -59.8852527 307.3648141 C-59.88808392 320.83494722 -59.88485697 334.30507345 -59.87945233 347.77520543 C-59.87497867 359.28080444 -59.87576946 370.78639336 -59.88037109 382.29199219 C-59.88574542 395.73539664 -59.88781754 409.17879512 -59.88475883 422.62220049 C-59.88444036 424.06035391 -59.88412599 425.49850734 -59.88381577 426.93666077 C-59.88366149 427.64381984 -59.88350721 428.35097891 -59.88334826 429.07956704 C-59.88249224 434.01381583 -59.8839259 438.94806077 -59.88629532 443.88230896 C-59.88942335 450.54089981 -59.88713739 457.19946891 -59.88140106 463.85805893 C-59.88009175 466.28422388 -59.88043599 468.71039044 -59.88266373 471.13655472 C-59.8920612 482.42076663 -59.84099881 493.70133493 -59.42941284 504.97912598 C-59.40743493 505.81485311 -59.38545702 506.65058024 -59.36281312 507.51163244 C-59.1190572 513.01989272 -57.91712808 517.29222672 -55.75 522.3671875 C-51.99543885 519.21820073 -51.31907518 517.16394768 -50.75 512.3671875 C-50.66500518 510.54095825 -50.62448125 508.71221921 -50.62415886 506.88401318 C-50.62024724 505.27859041 -50.62024724 505.27859041 -50.61625659 503.64073485 C-50.61848732 502.47604574 -50.62071804 501.31135662 -50.62301636 500.1113739 C-50.62067637 498.24264255 -50.62067637 498.24264255 -50.61828911 496.33615905 C-50.614993 492.88554807 -50.61617611 489.4349916 -50.61927533 485.98438394 C-50.62153841 482.26050719 -50.61804536 478.5366352 -50.61529541 474.8127594 C-50.61084913 467.52201216 -50.61180893 460.23127522 -50.61470805 452.94052758 C-50.61696569 447.01819502 -50.61727304 441.09586535 -50.61618423 435.17353249 C-50.616031 434.33092433 -50.61587777 433.48831618 -50.61571989 432.62017444 C-50.61540017 430.90854138 -50.61507596 429.19690831 -50.6147473 427.48527525 C-50.61189608 411.43776664 -50.61517439 395.39026374 -50.62054767 379.34275607 C-50.62501945 365.56045106 -50.624236 351.77815447 -50.61962891 337.99584961 C-50.61428383 321.99832245 -50.61216645 306.00080028 -50.61524117 290.00327235 C-50.61555973 288.29943613 -50.6158741 286.59559991 -50.61618423 284.89176369 C-50.61641565 283.63419536 -50.61641565 283.63419536 -50.61665174 282.35122162 C-50.61751679 276.43050871 -50.61605435 270.50979895 -50.61370468 264.58908653 C-50.61090741 257.38205136 -50.61164355 250.17502708 -50.61698543 242.96799316 C-50.61962281 239.28791224 -50.62062683 235.60784952 -50.61733627 231.92776871 C-50.61383126 227.94786302 -50.61800141 223.96798749 -50.62301636 219.98808289 C-50.62078564 218.81224016 -50.61855491 217.63639744 -50.61625659 216.42492312 C-50.61886434 215.36768001 -50.62147209 214.3104369 -50.62415886 213.22115612 C-50.62440239 211.84138459 -50.62440239 211.84138459 -50.62465084 210.43373889 C-50.52027755 208.37591067 -50.52027755 208.37591067 -51.75 207.3671875 C-51.79063832 205.70101635 -51.792721 204.03330655 -51.75 202.3671875 C-53.4 202.0371875 -55.05 201.7071875 -56.75 201.3671875 Z " fill="#003A2A" transform="translate(566.75,167.6328125)"/>
<path d="M0 0 C0.33 0 0.66 0 1 0 C1.76083028 18.61009298 2.12788047 37.16599758 2.02172852 55.79223633 C2.01154447 58.3186474 2.00185555 60.84506052 1.99261475 63.37147522 C1.97189511 68.7397803 1.94784961 74.10805265 1.92053413 79.4763279 C1.88104992 87.23731334 1.84794218 94.99831648 1.81623887 102.75933715 C1.76459754 115.36049409 1.70801663 127.96162357 1.64819336 140.56274414 C1.59019786 152.78115783 1.53461332 164.9995787 1.48217773 177.21801758 C1.47892802 177.97506946 1.4756783 178.73212135 1.4723301 179.5121142 C1.45603677 183.31118788 1.43978985 187.11026176 1.42356598 190.90933573 C1.28956868 222.27292451 1.14741332 253.63647127 1 285 C0.34 285 -0.32 285 -1 285 C-1.02289582 249.99242859 -1.04051321 214.98485869 -1.05106533 179.97728137 C-1.05231602 175.84300853 -1.05361034 171.70873571 -1.05493164 167.57446289 C-1.05519395 166.75141401 -1.05545626 165.92836512 -1.05572652 165.08037537 C-1.06007617 151.75894213 -1.06795986 138.43751323 -1.0771528 125.11608256 C-1.08650892 111.44401933 -1.09205977 97.77195837 -1.09408849 84.09989208 C-1.09545965 75.66555824 -1.0997882 67.23123661 -1.10791647 58.79690652 C-1.11320807 53.01081967 -1.11479879 47.22473912 -1.11350138 41.43865002 C-1.11286178 38.10190788 -1.11438186 34.76520424 -1.11920547 31.42846298 C-1.1241856 27.80573102 -1.1229823 24.18305118 -1.12025452 20.56031799 C-1.12316736 19.51263184 -1.1260802 18.46494568 -1.12908131 17.38551146 C-1.11713313 11.5085654 -0.75994395 5.82896624 0 0 Z " fill="#06281D" transform="translate(506,372)"/>
<path d="M0 0 C23.1 0 46.2 0 70 0 C70 0.33 70 0.66 70 1 C67.94921875 1.22786458 65.8984375 1.45572917 63.84765625 1.68359375 C61.98859771 1.81886614 61.98859771 1.81886614 61 3 C59.45723192 3.10370804 57.90976056 3.13851716 56.36352539 3.14526367 C54.88046654 3.15483345 54.88046654 3.15483345 53.3674469 3.16459656 C51.74890053 3.16626579 51.74890053 3.16626579 50.09765625 3.16796875 C48.99078964 3.17129715 47.88392303 3.17462555 46.74351501 3.17805481 C44.3904563 3.18313232 42.03739035 3.18546288 39.68432617 3.18530273 C36.10908801 3.18747174 32.53416714 3.20557009 28.95898438 3.22460938 C26.67187605 3.22754674 24.38476627 3.22952924 22.09765625 3.23046875 C21.03684341 3.23765427 19.97603058 3.24483978 18.8830719 3.25224304 C12.35765286 3.2325038 6.34249835 2.5454921 0 1 C0 0.67 0 0.34 0 0 Z " fill="#0A2A1E" transform="translate(478,857)"/>
<path d="M0 0 C0.73152283 -0.0007251 1.46304565 -0.0014502 2.21673584 -0.00219727 C10.27284205 -0.00129394 18.25123574 0.13751116 26.25 1.1875 C26.25 1.5175 26.25 1.8475 26.25 2.1875 C4.24256581 2.87551823 -17.73028256 3.35590589 -39.75 3.1875 C-39.75 2.8575 -39.75 2.5275 -39.75 2.1875 C-26.48642769 0.58326663 -13.34720665 -0.01299806 0 0 Z " fill="#05251B" transform="translate(513.75,204.8125)"/>
<path d="M0 0 C0.66 0.33 1.32 0.66 2 1 C1.36191406 1.74765625 0.72382813 2.4953125 0.06640625 3.265625 C-0.75988281 4.25046875 -1.58617187 5.2353125 -2.4375 6.25 C-3.26121094 7.22453125 -4.08492187 8.1990625 -4.93359375 9.203125 C-6.8257448 11.76414608 -7.30143051 13.04294856 -8 16 C-8.99 16.33 -9.98 16.66 -11 17 C-12.85943881 19.13568034 -12.85943881 19.13568034 -14.6875 21.8125 C-15.38230469 22.79476563 -16.07710937 23.77703125 -16.79296875 24.7890625 C-20.25237628 29.82204124 -23.64934444 34.89381479 -27 40 C-27.81497166 37.69734153 -28.23020265 36.51849516 -27.21826172 34.23925781 C-26.79303223 33.64983398 -26.36780273 33.06041016 -25.9296875 32.453125 C-25.45136475 31.78039551 -24.97304199 31.10766602 -24.48022461 30.41455078 C-23.95050049 29.70024902 -23.42077637 28.98594727 -22.875 28.25 C-22.33818604 27.50862793 -21.80137207 26.76725586 -21.24829102 26.00341797 C-7.77609497 7.60056557 -7.77609497 7.60056557 0 0 Z " fill="#083023" transform="translate(251,282)"/>
<path d="M0 0 C0.33 0 0.66 0 1 0 C2.99296194 10.00207189 3.28152481 19.67009824 3.20581055 29.83154297 C3.18737976 32.39170172 3.18530281 34.95150003 3.18554688 37.51171875 C3.1806358 39.16146143 3.17480927 40.81120169 3.16796875 42.4609375 C3.16685593 43.21523041 3.1657431 43.96952332 3.16459656 44.74667358 C3.12452351 49.25844954 2.73483283 53.54702303 2 58 C1.67 58 1.34 58 1 58 C0.00138944 51.39327545 -0.13039257 44.95626603 -0.09765625 38.28125 C-0.0962413 37.18276733 -0.09482635 36.08428467 -0.09336853 34.95251465 C-0.08780257 31.46831457 -0.07525639 27.98418042 -0.0625 24.5 C-0.0574806 22.1276051 -0.05291846 19.75520918 -0.04882812 17.3828125 C-0.0378443 11.58851944 -0.0211403 5.79426443 0 0 Z " fill="#0B2F22" transform="translate(856,481)"/>
<path d="M0 0 C0.33 0 0.66 0 1 0 C2.0939304 21.40481948 1.83726893 42.59363439 1 64 C0.67 64 0.34 64 0 64 C-0.74445583 50.70614591 -1.10810002 37.43757864 -1.125 24.125 C-1.12749756 23.43881592 -1.12999512 22.75263184 -1.13256836 22.0456543 C-1.15479972 14.61593351 -1.01964924 7.36413337 0 0 Z " fill="#022118" transform="translate(506,372)"/>
<path d="M0 0 C0.33 0 0.66 0 1 0 C1.8320582 5.72040011 2.12036664 11.22240116 2 17 C1.67 17 1.34 17 1 17 C0.67 31.19 0.34 45.38 0 60 C0.66 60 1.32 60 2 60 C1.67 65.28 1.34 70.56 1 76 C0.67 76 0.34 76 0 76 C-0.78484496 67.93920033 -1.14860479 59.97196761 -1.1328125 51.875 C-1.13376923 50.76624512 -1.13472595 49.65749023 -1.13571167 48.51513672 C-1.13638707 46.18912702 -1.13457784 43.86311537 -1.13037109 41.53710938 C-1.12501377 38.00907086 -1.13033805 34.48115963 -1.13671875 30.953125 C-1.13605786 28.67708306 -1.13477646 26.40104119 -1.1328125 24.125 C-1.13483673 23.08714355 -1.13686096 22.04928711 -1.13894653 20.97998047 C-1.11679769 13.94330111 -0.68184751 7.00295781 0 0 Z " fill="#104332" transform="translate(167,476)"/>
<path d="M0 0 C0.91422729 0.29910278 0.91422729 0.29910278 1.84692383 0.60424805 C0.85692383 1.46147461 -0.13307617 2.31870117 -1.15307617 3.2019043 C-1.78955078 3.75330078 -2.42602539 4.30469727 -3.08178711 4.87280273 C-4.46477895 6.0706132 -5.84824416 7.26787734 -7.23217773 8.46459961 C-11.40675945 12.07756067 -15.55374199 15.7165656 -19.63745117 19.43237305 C-21.15307617 20.60424805 -21.15307617 20.60424805 -24.15307617 21.60424805 C-24.15307617 22.26424805 -24.15307617 22.92424805 -24.15307617 23.60424805 C-24.81307617 23.60424805 -25.47307617 23.60424805 -26.15307617 23.60424805 C-26.48307617 24.59424805 -26.81307617 25.58424805 -27.15307617 26.60424805 C-27.81307617 26.27424805 -28.47307617 25.94424805 -29.15307617 25.60424805 C-26.48126496 21.03990388 -23.47625581 17.93040382 -19.43823242 14.53393555 C-16.06195659 11.68285818 -12.81636496 8.69056725 -9.54760742 5.7175293 C-8.75741211 5.02014648 -7.9672168 4.32276367 -7.15307617 3.60424805 C-6.31131836 2.83467773 -5.46956055 2.06510742 -4.60229492 1.2722168 C-2.15307617 -0.39575195 -2.15307617 -0.39575195 0 0 Z " fill="#072E22" transform="translate(297.153076171875,239.395751953125)"/>
<path d="M0 0 C0.66 0 1.32 0 2 0 C2 13.53 2 27.06 2 41 C1.34 40.67 0.68 40.34 0 40 C-1.40027356 13.24874212 -1.40027356 13.24874212 0 0 Z " fill="#082E22" transform="translate(363,492)"/>
<path d="M0 0 C3.51239446 4.12888863 6.22628747 8.51796019 8.9375 13.1875 C9.37626465 13.939104 9.8150293 14.69070801 10.26708984 15.46508789 C19 30.53608676 19 30.53608676 19 34 C15.14732503 32.71577501 14.93394626 31.52664189 13.1171875 27.9765625 C12.58996094 26.955625 12.06273437 25.9346875 11.51953125 24.8828125 C10.97683594 23.80773437 10.43414063 22.73265625 9.875 21.625 C9.04935547 20.02398437 9.04935547 20.02398437 8.20703125 18.390625 C4.17471092 10.52413276 4.17471092 10.52413276 3 7 C2.34 7 1.68 7 1 7 C0.67 4.69 0.34 2.38 0 0 Z " fill="#0A3426" transform="translate(617,374)"/>
<path d="M0 0 C0.33 0 0.66 0 1 0 C0.85607907 2.12513038 0.70974804 4.25009756 0.5625 6.375 C0.48128906 7.55835938 0.40007812 8.74171875 0.31640625 9.9609375 C0.10165408 12.89821682 -0.18755346 15.82157947 -0.5 18.75 C-1.07372839 24.36728844 -1.33281875 29.98463094 -1.5625 35.625 C-1.60568359 36.62917969 -1.64886719 37.63335937 -1.69335938 38.66796875 C-1.79809859 41.11188383 -1.90027256 43.55587617 -2 46 C-2.33 46 -2.66 46 -3 46 C-5.26775559 8.82404628 -5.26775559 8.82404628 0 0 Z " fill="#114031" transform="translate(211,462)"/>
<path d="M0 0 C6.92077651 2.09604312 13.36250542 4.87253085 19.875 8 C20.81085937 8.43828125 21.74671875 8.8765625 22.7109375 9.328125 C23.608125 9.75609375 24.5053125 10.1840625 25.4296875 10.625 C26.23647949 11.00914062 27.04327148 11.39328125 27.87451172 11.7890625 C29.96736216 12.9814055 31.39764005 14.21659335 33 16 C26.06722417 15.11181061 20.4792625 12.15104674 14.25 9.125 C13.10144531 8.58230469 11.95289063 8.03960937 10.76953125 7.48046875 C9.67511719 6.95324219 8.58070313 6.42601562 7.453125 5.8828125 C6.45442383 5.40215332 5.45572266 4.92149414 4.42675781 4.42626953 C2 3 2 3 0 0 Z " fill="#093124" transform="translate(629,228)"/>
<path d="M0 0 C0.99 0 1.98 0 3 0 C3 9.57 3 19.14 3 29 C-2.12140446 21.3178933 -0.10026352 8.97915513 0 0 Z " fill="#0A3327" transform="translate(505,657)"/>
<path d="M0 0 C2.65414595 1.2893658 5.17977882 2.67554291 7.6796875 4.2421875 C8.36160156 4.66886719 9.04351562 5.09554687 9.74609375 5.53515625 C10.79990234 6.19837891 10.79990234 6.19837891 11.875 6.875 C12.91720703 7.52662109 12.91720703 7.52662109 13.98046875 8.19140625 C18.03118265 10.73168446 22.03512176 13.32774664 26 16 C24.30932617 16.67871094 24.30932617 16.67871094 22 17 C19.6340332 15.87597656 19.6340332 15.87597656 17.05078125 14.140625 C16.12072266 13.51929688 15.19066406 12.89796875 14.23242188 12.2578125 C13.26884766 11.59523438 12.30527344 10.93265625 11.3125 10.25 C10.33732422 9.60289062 9.36214844 8.95578125 8.35742188 8.2890625 C1.13446204 3.40338612 1.13446204 3.40338612 0 0 Z " fill="#093023" transform="translate(313,795)"/>
<path d="M0 0 C3.06227331 2.85500153 5.21778844 5.73233903 7.375 9.3125 C9.53361194 12.79984715 11.7126699 15.99626093 14.4375 19.0625 C17 22 17 22 17 24 C12.86198064 22.45764733 11.04917138 19.75947566 8.5 16.25 C7.7471875 15.22390625 6.994375 14.1978125 6.21875 13.140625 C5.4865625 12.10421875 4.754375 11.0678125 4 10 C2.87078125 8.44539062 2.87078125 8.44539062 1.71875 6.859375 C0 4 0 4 0 0 Z " fill="#082D21" transform="translate(388,603)"/>
<path d="M0 0 C3.23886301 0.57932308 4.84792595 1.48393834 7.12890625 3.8359375 C7.68900391 4.40570313 8.24910156 4.97546875 8.82617188 5.5625 C9.39916016 6.160625 9.97214844 6.75875 10.5625 7.375 C11.13935547 7.96539062 11.71621094 8.55578125 12.31054688 9.1640625 C13.387034 10.26662371 14.46040161 11.37224594 15.52954102 12.48193359 C17.00403397 14.00416458 18.49770414 15.50524775 20 17 C19.67 17.99 19.34 18.98 19 20 C15.8293305 16.85817898 12.66414446 13.71089125 9.5 10.5625 C8.59378906 9.66466797 7.68757812 8.76683594 6.75390625 7.84179688 C5.89667969 6.98779297 5.03945313 6.13378906 4.15625 5.25390625 C3.36025391 4.46314697 2.56425781 3.6723877 1.74414062 2.85766602 C0 1 0 1 0 0 Z " fill="#062C20" transform="translate(545,289)"/>
<path d="M0 0 C5.51665927 -0.21833744 10.28171833 0.5438998 15.625 1.875 C16.36234375 2.04902344 17.0996875 2.22304688 17.859375 2.40234375 C21.71545127 3.33526543 25.35448843 4.40058583 29 6 C29 6.33 29 6.66 29 7 C18.8962069 6.75519444 9.60690357 3.86410436 0 1 C0 0.67 0 0.34 0 0 Z " fill="#072A1E" transform="translate(428,807)"/>
<path d="M0 0 C0.33 0 0.66 0 1 0 C1.4549 6.25487494 0.57705443 11.80372589 -0.8125 17.875 C-0.97782227 18.62450928 -1.14314453 19.37401855 -1.31347656 20.14624023 C-2.89819706 26.74252737 -2.89819706 26.74252737 -6 29 C-5.23746012 22.75067891 -3.86099489 16.69110404 -2.4375 10.5625 C-2.20353516 9.54478516 -1.96957031 8.52707031 -1.72851562 7.47851562 C-1.15490697 4.98507393 -0.57867103 2.49227078 0 0 Z " fill="#0A2D20" transform="translate(851,577)"/>
<path d="M0 0 C-2.19927513 5.35973114 -6.73236029 7.66360902 -11.375 10.8125 C-12.23867188 11.42287109 -13.10234375 12.03324219 -13.9921875 12.66210938 C-14.8275 13.23380859 -15.6628125 13.80550781 -16.5234375 14.39453125 C-17.28575684 14.91893799 -18.04807617 15.44334473 -18.83349609 15.98364258 C-21 17 -21 17 -23.27978516 16.6628418 C-23.84745605 16.444104 -24.41512695 16.22536621 -25 16 C-24.48091064 15.65743164 -23.96182129 15.31486328 -23.42700195 14.96191406 C-21.05385208 13.39375568 -18.68316433 11.82191312 -16.3125 10.25 C-15.49587891 9.71117187 -14.67925781 9.17234375 -13.83789062 8.6171875 C-10.46504494 6.37772721 -7.19393437 4.1567871 -4.04296875 1.609375 C-2 0 -2 0 0 0 Z " fill="#0B3124" transform="translate(589,656)"/>
<path d="M0 0 C3.93282747 3.51112569 6.45936503 7.6117541 9.1875 12.0625 C9.63802734 12.78244141 10.08855469 13.50238281 10.55273438 14.24414062 C12.36841892 17.17591313 13.90391255 19.71173764 15 23 C11.5673983 21.59270677 10.11707281 20.12506151 8.203125 16.97265625 C7.71972656 16.18052734 7.23632812 15.38839844 6.73828125 14.57226562 C6.24714844 13.74404297 5.75601563 12.91582031 5.25 12.0625 C4.74339844 11.23814453 4.23679688 10.41378906 3.71484375 9.56445312 C0 3.4014172 0 3.4014172 0 0 Z " fill="#0A2E22" transform="translate(212,685)"/>
<path d="M0 0 C3.34766784 0.61561455 5.41388292 1.81743038 8.109375 3.87109375 C8.86347656 4.44537109 9.61757813 5.01964844 10.39453125 5.61132812 C11.17183594 6.21396484 11.94914062 6.81660156 12.75 7.4375 C13.54277344 8.03626953 14.33554687 8.63503906 15.15234375 9.25195312 C19.5025211 12.59507565 19.5025211 12.59507565 21 14 C21 14.66 21 15.32 21 16 C15.67174306 14.41308324 11.88586501 10.92300589 7.6875 7.4375 C6.57665039 6.53354492 6.57665039 6.53354492 5.44335938 5.61132812 C1.46273393 2.34244585 1.46273393 2.34244585 0 1 C0 0.67 0 0.34 0 0 Z " fill="#082F22" transform="translate(314,747)"/>
<path d="M0 0 C5.298947 1.46092464 9.36565928 3.90942527 13.875 6.9375 C14.56335938 7.38029297 15.25171875 7.82308594 15.9609375 8.27929688 C17.69901157 9.43628864 19.35762745 10.71075844 21 12 C21 12.99 21 13.98 21 15 C20.27554688 14.52949219 19.55109375 14.05898437 18.8046875 13.57421875 C13.95924574 10.45375425 9.1843409 7.52894678 4 5 C1.625 3.4375 1.625 3.4375 0 2 C0 1.34 0 0.68 0 0 Z " fill="#082B20" transform="translate(688,212)"/>
<path d="M0 0 C4.17062284 3.40913272 7.62851366 6.78564207 11 11 C13.2704295 13.07793656 15.61733139 15.0523692 18 17 C17.67 17.99 17.34 18.98 17 20 C12.39611818 16.24172913 8.41183078 12.37336029 4.578125 7.83203125 C3.04743079 5.98046507 3.04743079 5.98046507 1.296875 4.44921875 C0 3 0 3 0 0 Z " fill="#092F22" transform="translate(406,628)"/>
<path d="M0 0 C4.90591632 0.89162185 7.28894214 3.81004221 10.6875 7.25 C11.28111328 7.82363281 11.87472656 8.39726562 12.48632812 8.98828125 C15.63904536 12.14459338 17.76260904 14.32251884 18 19 C17.31550781 18.31421875 16.63101563 17.6284375 15.92578125 16.921875 C13.84665074 14.84201111 11.75913908 12.77087998 9.66796875 10.703125 C8.5077816 9.55211448 7.34762577 8.40107239 6.1875 7.25 C5.2912793 6.36634766 5.2912793 6.36634766 4.37695312 5.46484375 C2.89903092 3.99536682 1.44698549 2.49994982 0 1 C0 0.67 0 0.34 0 0 Z " fill="#093023" transform="translate(751,261)"/>
<path d="M0 0 C1 3 1 3 0.0324707 5.05419922 C-0.43586182 5.83811035 -0.90419434 6.62202148 -1.38671875 7.4296875 C-4.49088079 13.33736634 -4.77482088 18.54371436 -4.8125 25.125 C-4.83763672 26.176875 -4.86277344 27.22875 -4.88867188 28.3125 C-4.94691909 30.87537746 -4.98365406 33.43657184 -5 36 C-5.33 36 -5.66 36 -6 36 C-6.08789644 32.16681381 -6.14069087 28.33389072 -6.1875 24.5 C-6.21263672 23.42234375 -6.23777344 22.3446875 -6.26367188 21.234375 C-6.33795692 13.11254298 -5.57009449 6.36582227 0 0 Z " fill="#052217" transform="translate(532,696)"/>
<path d="M0 0 C3.00161567 1.32525231 4.86865222 2.68524256 6.98046875 5.1875 C7.76647461 6.11175781 7.76647461 6.11175781 8.56835938 7.0546875 C9.10267578 7.69664062 9.63699219 8.33859375 10.1875 9 C11.00637695 9.96292969 11.00637695 9.96292969 11.84179688 10.9453125 C15.84211151 15.68422302 15.84211151 15.68422302 17 18 C13.51338109 17.43136484 12.04766165 16.35155881 9.765625 13.69140625 C9.19199219 13.02689453 8.61835938 12.36238281 8.02734375 11.67773438 C7.44082031 10.97970703 6.85429687 10.28167969 6.25 9.5625 C5.64800781 8.86833984 5.04601562 8.17417969 4.42578125 7.45898438 C0 2.27550135 0 2.27550135 0 0 Z " fill="#092F22" transform="translate(271,702)"/>
<path d="M0 0 C2.01421374 2.01421374 2.66540267 3.25826883 3.7265625 5.84375 C4.0359375 6.59527344 4.3453125 7.34679687 4.6640625 8.12109375 C4.98117187 8.90613281 5.29828125 9.69117188 5.625 10.5 C5.94984375 11.28503906 6.2746875 12.07007813 6.609375 12.87890625 C9 18.73493304 9 18.73493304 9 21 C7.35 21 5.7 21 4 21 C4.33 20.01 4.66 19.02 5 18 C4.00948284 14.93332357 4.00948284 14.93332357 2.5625 11.625 C0.83940803 7.54028607 -0.34220006 4.45694713 0 0 Z " fill="#0A3024" transform="translate(791,385)"/>
<path d="M0 0 C0 3 0 3 -1.19335938 4.44213867 C-1.73798828 4.9291626 -2.28261719 5.41618652 -2.84375 5.91796875 C-3.72353516 6.71557617 -3.72353516 6.71557617 -4.62109375 7.52929688 C-5.24113281 8.07650391 -5.86117187 8.62371094 -6.5 9.1875 C-7.12003906 9.74630859 -7.74007812 10.30511719 -8.37890625 10.88085938 C-9.91268445 12.26125975 -11.45550825 13.63159728 -13 15 C-13.66 14.67 -14.32 14.34 -15 14 C-13.56354149 12.39490066 -12.12579294 10.79095576 -10.6875 9.1875 C-9.88699219 8.29417969 -9.08648438 7.40085937 -8.26171875 6.48046875 C-7.51535156 5.66191406 -6.76898437 4.84335937 -6 4 C-5.47019531 3.41863281 -4.94039062 2.83726562 -4.39453125 2.23828125 C-3 1 -3 1 0 0 Z " fill="#072E20" transform="translate(731,727)"/>
<path d="M0 0 C0 3.31069001 -0.58516985 4.40636187 -2.1875 7.23046875 C-2.63867188 8.03291016 -3.08984375 8.83535156 -3.5546875 9.66210938 C-4.03164063 10.49548828 -4.50859375 11.32886719 -5 12.1875 C-5.47695313 13.03248047 -5.95390625 13.87746094 -6.4453125 14.74804688 C-7.6245619 16.83531832 -8.80962497 18.91905982 -10 21 C-10.80719379 18.68201225 -11.15751935 17.44115584 -10.3190918 15.09301758 C-9.94953369 14.45001709 -9.57997559 13.8070166 -9.19921875 13.14453125 C-8.59883789 12.08782227 -8.59883789 12.08782227 -7.98632812 11.00976562 C-7.55771484 10.28466797 -7.12910156 9.55957031 -6.6875 8.8125 C-6.27048828 8.07580078 -5.85347656 7.33910156 -5.42382812 6.58007812 C-2.28828984 1.14414492 -2.28828984 1.14414492 0 0 Z " fill="#082E22" transform="translate(405,376)"/>
<path d="M0 0 C3.72355269 3.66909488 7.2943376 7.44674879 10.8125 11.3125 C11.56563477 12.13717773 11.56563477 12.13717773 12.33398438 12.97851562 C13.55703968 14.31805239 14.77867008 15.65888992 16 17 C15.01 17.33 14.02 17.66 13 18 C11.3936298 16.2519799 9.78986703 14.50168356 8.1875 12.75 C7.73568359 12.25886719 7.28386719 11.76773438 6.81835938 11.26171875 C0 3.79636177 0 3.79636177 0 0 Z " fill="#082E21" transform="translate(245,732)"/>
<path d="M0 0 C0 0.33 0 0.66 0 1 C-3.43510236 1.69986698 -6.87336524 2.38274929 -10.3125 3.0625 C-11.77719727 3.36124023 -11.77719727 3.36124023 -13.27148438 3.66601562 C-14.20927734 3.84970703 -15.14707031 4.03339844 -16.11328125 4.22265625 C-17.40939331 4.48187866 -17.40939331 4.48187866 -18.73168945 4.74633789 C-21 5 -21 5 -24 4 C-23.34 4 -22.68 4 -22 4 C-22 3.34 -22 2.68 -22 2 C-7.40318907 -1.62870159 -7.40318907 -1.62870159 0 0 Z " fill="#0C3829" transform="translate(467,210)"/>
<path d="M0 0 C1.71700545 2.57550818 2.56997075 4.35577992 3.5078125 7.23046875 C3.90419922 8.43413086 3.90419922 8.43413086 4.30859375 9.66210938 C4.57800781 10.49548828 4.84742188 11.32886719 5.125 12.1875 C5.40214844 13.03248047 5.67929688 13.87746094 5.96484375 14.74804688 C6.64730716 16.83073693 7.32552526 18.91471191 8 21 C7.01 21 6.02 21 5 21 C4.15229544 18.81716075 3.32192453 16.63003921 2.5 14.4375 C2.0359375 13.21933594 1.571875 12.00117187 1.09375 10.74609375 C-0.01223121 6.9581081 -0.20185162 3.92096767 0 0 Z " fill="#092E21" transform="translate(181,612)"/>
<path d="M0 0 C4.18690034 1.53110125 5.8844356 4.24400059 8.3125 7.875 C9.03050781 8.92429687 9.74851562 9.97359375 10.48828125 11.0546875 C12 14 12 14 11.59448242 16.18408203 C11.39830322 16.78333496 11.20212402 17.38258789 11 18 C9.34990683 15.56528902 7.70481602 13.12744835 6.0625 10.6875 C5.35963867 9.65206055 5.35963867 9.65206055 4.64257812 8.59570312 C4.19462891 7.92861328 3.74667969 7.26152344 3.28515625 6.57421875 C2.87144775 5.96151123 2.45773926 5.34880371 2.03149414 4.7175293 C1 3 1 3 0 0 Z " fill="#072E22" transform="translate(796,314)"/>
<path d="M0 0 C6.4654106 1.07756843 9.47540994 3.24918044 14 8 C14.763125 8.763125 15.52625 9.52625 16.3125 10.3125 C16.869375 10.869375 17.42625 11.42625 18 12 C17.67 12.66 17.34 13.32 17 14 C14.16280617 11.85923251 11.33091337 9.71156381 8.5 7.5625 C7.68917969 6.95083984 6.87835937 6.33917969 6.04296875 5.70898438 C5.27597656 5.12568359 4.50898437 4.54238281 3.71875 3.94140625 C3.00654297 3.40201416 2.29433594 2.86262207 1.56054688 2.30688477 C1.04556641 1.87561279 0.53058594 1.44434082 0 1 C0 0.67 0 0.34 0 0 Z " fill="#062D20" transform="translate(713,229)"/>
<path d="M0 0 C-4.59260584 2.33962939 -9.21319976 4.61365351 -13.875 6.8125 C-14.80054688 7.25207031 -15.72609375 7.69164062 -16.6796875 8.14453125 C-17.82824219 8.56798828 -17.82824219 8.56798828 -19 9 C-19.66 8.67 -20.32 8.34 -21 8 C-5.89292344 -2.04394191 -5.89292344 -2.04394191 0 0 Z " fill="#092C20" transform="translate(382,191)"/>
<path d="M0 0 C0.33 0 0.66 0 1 0 C1.33896268 2.83275953 1.67129694 5.66604661 2 8.5 C2.14308594 9.68722656 2.14308594 9.68722656 2.2890625 10.8984375 C2.87107882 15.97029404 3.09367085 20.89493859 3 26 C2.67 26 2.34 26 2 26 C2 23.69 2 21.38 2 19 C1.34 19 0.68 19 0 19 C-0.1968121 16.95920995 -0.38202831 14.91729993 -0.5625 12.875 C-0.66691406 11.73804688 -0.77132812 10.60109375 -0.87890625 9.4296875 C-0.99608016 6.11102007 -0.6655072 3.2437314 0 0 Z " fill="#104232" transform="translate(855,462)"/>
<path d="M0 0 C1.00693162 3.12179408 0.97289724 4.98969669 0.00390625 8.109375 C-0.22490234 8.86347656 -0.45371094 9.61757813 -0.68945312 10.39453125 C-0.93630859 11.17183594 -1.18316406 11.94914062 -1.4375 12.75 C-1.68048828 13.54277344 -1.92347656 14.33554687 -2.17382812 15.15234375 C-2.77354195 17.10435346 -3.38558121 19.05256883 -4 21 C-4.33 21 -4.66 21 -5 21 C-5.38024149 14.2824004 -4.32445578 8.33360887 -2 2 C-1.34 1.34 -0.68 0.68 0 0 Z " fill="#072C20" transform="translate(182,408)"/>
<path d="M0 0 C3.98499078 1.52922897 5.82276445 3.97949228 8.3125 7.375 C9.38951172 8.80972656 9.38951172 8.80972656 10.48828125 10.2734375 C12 13 12 13 11.73046875 15.3515625 C11.48941406 15.89554687 11.24835937 16.43953125 11 17 C10.45730469 16.25234375 9.91460938 15.5046875 9.35546875 14.734375 C8.64003906 13.74953125 7.92460938 12.7646875 7.1875 11.75 C6.47980469 10.77546875 5.77210938 9.8009375 5.04296875 8.796875 C3.80274443 7.09897708 2.54012838 5.41674819 1.23828125 3.765625 C0 2 0 2 0 0 Z " fill="#082E23" transform="translate(592,340)"/>
<path d="M0 0 C0.66 0.99 1.32 1.98 2 3 C-2.29 7.29 -6.58 11.58 -11 16 C-11.33 15.01 -11.66 14.02 -12 13 C-11.21753906 12.22914063 -10.43507813 11.45828125 -9.62890625 10.6640625 C-8.60663943 9.65117427 -7.58451119 8.63814616 -6.5625 7.625 C-6.04623047 7.11710937 -5.52996094 6.60921875 -4.99804688 6.0859375 C-2.142867 3.31431064 -2.142867 3.31431064 0 0 Z " fill="#092F22" transform="translate(463,300)"/>
<path d="M0 0 C0.99 0.33 1.98 0.66 3 1 C2.31164062 1.76183594 2.31164062 1.76183594 1.609375 2.5390625 C-1.24742218 5.74395682 -4.02182732 8.85931111 -6.3125 12.5 C-7.1478125 13.7375 -7.1478125 13.7375 -8 15 C-8.66 15 -9.32 15 -10 15 C-9.45230629 10.81761166 -7.10111111 8.40131455 -4.4375 5.25 C-3.19806641 3.77273438 -3.19806641 3.77273438 -1.93359375 2.265625 C-1.29550781 1.51796875 -0.65742188 0.7703125 0 0 Z " fill="#072D21" transform="translate(440,326)"/>
<path d="M0 0 C0.89267578 0.00322266 1.78535156 0.00644531 2.70507812 0.00976562 C4.09823242 0.02233398 4.09823242 0.02233398 5.51953125 0.03515625 C6.45990234 0.03966797 7.40027344 0.04417969 8.36914062 0.04882812 C10.69016837 0.06060999 13.01106769 0.07706067 15.33203125 0.09765625 C15.33203125 0.42765625 15.33203125 0.75765625 15.33203125 1.09765625 C12.49927172 1.43661893 9.66598464 1.76895319 6.83203125 2.09765625 C5.64480469 2.24074219 5.64480469 2.24074219 4.43359375 2.38671875 C-0.63826279 2.96873507 -5.56290734 3.1913271 -10.66796875 3.09765625 C-6.91148694 0.59333504 -4.40847856 -0.02807948 0 0 Z " fill="#062117" transform="translate(472.66796875,165.90234375)"/>
<path d="M0 0 C0.33 0.99 0.66 1.98 1 3 C-1.62035018 4.36389525 -4.24556999 5.71632173 -6.875 7.0625 C-7.99455078 7.64741211 -7.99455078 7.64741211 -9.13671875 8.24414062 C-10.20986328 8.79038086 -10.20986328 8.79038086 -11.3046875 9.34765625 C-12.2944458 9.85824585 -12.2944458 9.85824585 -13.30419922 10.37915039 C-13.86381348 10.58403076 -14.42342773 10.78891113 -15 11 C-15.66 10.67 -16.32 10.34 -17 10 C-14.26307534 6.69330664 -10.60004821 5.13219468 -6.8125 3.3125 C-6.15830078 2.99216797 -5.50410156 2.67183594 -4.83007812 2.34179688 C-3.22272093 1.55571708 -1.61171142 0.77711317 0 0 Z " fill="#0A3225" transform="translate(669,820)"/>
<path d="M0 0 C0.66 0.33 1.32 0.66 2 1 C-1.651893 6.41995647 -5.14889642 11.58990583 -10 16 C-9.39520657 12.02159319 -7.37709338 9.4918624 -5 6.3125 C-4.278125 5.33925781 -3.55625 4.36601563 -2.8125 3.36328125 C-1 1 -1 1 0 0 Z " fill="#082C1F" transform="translate(765,684)"/>
<path d="M0 0 C-6.16795162 4.11196775 -13.76565833 4.26793858 -21 4 C-21 3.67 -21 3.34 -21 3 C-13.82140651 0.95938459 -7.47394574 -0.37369729 0 0 Z " fill="#07271C" transform="translate(578,812)"/>
<path d="M0 0 C1 3 1 3 0.19555664 4.7175293 C-0.22862549 5.33023682 -0.65280762 5.94294434 -1.08984375 6.57421875 C-1.54423828 7.24130859 -1.99863281 7.90839844 -2.46679688 8.59570312 C-2.95212891 9.28599609 -3.43746094 9.97628906 -3.9375 10.6875 C-4.41896484 11.38939453 -4.90042969 12.09128906 -5.39648438 12.81445312 C-6.58846676 14.54931858 -7.79306473 16.27550373 -9 18 C-10.23455296 14.50711845 -10.23455296 14.50711845 -9.19555664 12.26074219 C-8.77137451 11.69516602 -8.34719238 11.12958984 -7.91015625 10.546875 C-7.22856445 9.61875 -7.22856445 9.61875 -6.53320312 8.671875 C-6.04787109 8.03765625 -5.56253906 7.4034375 -5.0625 6.75 C-4.58103516 6.1003125 -4.09957031 5.450625 -3.60351562 4.78125 C-2.41364358 3.17904606 -1.20826972 1.58837566 0 0 Z " fill="#0B3224" transform="translate(801,702)"/>
<path d="M0 0 C0.99 0.33 1.98 0.66 3 1 C1.71034824 2.37562854 0.37310707 3.70766393 -1 5 C-1.66 5 -2.32 5 -3 5 C-3.33 6.32 -3.66 7.64 -4 9 C-5.32 9.33 -6.64 9.66 -8 10 C-7.4346089 6.49304707 -6.31277274 4.97267387 -3.625 2.6875 C-3.01914062 2.15511719 -2.41328125 1.62273437 -1.7890625 1.07421875 C-0.90347656 0.54248047 -0.90347656 0.54248047 0 0 Z " fill="#073225" transform="translate(474,290)"/>
<path d="M0 0 C0 0.66 0 1.32 0 2 C-2.24435445 3.03516348 -4.49406867 4.05314977 -6.75 5.0625 C-7.70132812 5.50432617 -7.70132812 5.50432617 -8.671875 5.95507812 C-13.45095438 8.07081639 -13.45095438 8.07081639 -16.453125 7.68359375 C-16.96359375 7.45800781 -17.4740625 7.23242188 -18 7 C-16.43880578 6.20576139 -14.87598036 5.41472877 -13.3125 4.625 C-12.00732422 3.96371094 -12.00732422 3.96371094 -10.67578125 3.2890625 C-3.84848485 0 -3.84848485 0 0 0 Z " fill="#092E21" transform="translate(397,228)"/>
<path d="M0 0 C3.90829085 0.5647301 5.89920223 2.42131971 8.75 5.0625 C9.54921875 5.79597656 10.3484375 6.52945313 11.171875 7.28515625 C11.77515625 7.85105469 12.3784375 8.41695313 13 9 C12.67 9.99 12.34 10.98 12 12 C9.99698881 10.19073245 7.99751914 8.377813 6 6.5625 C5.42765625 6.04623047 4.8553125 5.52996094 4.265625 4.99804688 C2.82480421 3.6858708 1.41014216 2.34509096 0 1 C0 0.67 0 0.34 0 0 Z " fill="#082D21" transform="translate(737,248)"/>
<path d="M0 0 C0.33 0 0.66 0 1 0 C2.95685738 7.58282234 1.97295791 15.33795644 1 23 C0.67 23 0.34 23 0 23 C-1.00220537 15.16737959 -0.8895125 7.8413948 0 0 Z " fill="#0F392B" transform="translate(856,534)"/>
<path d="M0 0 C0.99 0.33 1.98 0.66 3 1 C-1.455 6.94 -1.455 6.94 -6 13 C-7 10 -7 10 -6.07421875 8.02734375 C-5.61660156 7.33769531 -5.15898437 6.64804687 -4.6875 5.9375 C-4.23761719 5.24527344 -3.78773438 4.55304688 -3.32421875 3.83984375 C-2 2 -2 2 0 0 Z " fill="#072E21" transform="translate(426,343)"/>
<path d="M0 0 C3.08379096 2.77541186 4.85411529 4.98940353 6 9 C6.125 12.3125 6.125 12.3125 6 15 C5.34 15 4.68 15 4 15 C3.8046875 12.94921875 3.609375 10.8984375 3.4140625 8.84765625 C3.20910156 7.93306641 3.20910156 7.93306641 3 7 C2.34 6.67 1.68 6.34 1 6 C0.375 2.9375 0.375 2.9375 0 0 Z " fill="#093226" transform="translate(492,697)"/>
<path d="M0 0 C0.33 0.66 0.66 1.32 1 2 C-0.07408957 4.60474038 -1.20045633 7.09966038 -2.4375 9.625 C-2.77587891 10.33140625 -3.11425781 11.0378125 -3.46289062 11.765625 C-4.30154879 13.51381384 -5.14987847 15.25735686 -6 17 C-7.23306978 14.07323092 -7.01493635 13.03773655 -5.8203125 10.01953125 C-5.26085937 8.96121094 -4.70140625 7.90289062 -4.125 6.8125 C-3.57070313 5.74644531 -3.01640625 4.68039062 -2.4453125 3.58203125 C-1 1 -1 1 0 0 Z " fill="#082C20" transform="translate(391,401)"/>
<path d="M0 0 C0.33 0 0.66 0 1 0 C1.53160457 2.41474617 2.05054766 4.83108107 2.5625 7.25 C2.71396484 7.93191406 2.86542969 8.61382813 3.02148438 9.31640625 C3.75233495 12.81769038 4.32203546 15.60298173 3 19 C3 18.01 3 17.02 3 16 C2.34 16 1.68 16 1 16 C0.14701624 12.32612505 -0.10789471 8.9552607 -0.0625 5.1875 C-0.05347656 4.21167969 -0.04445312 3.23585938 -0.03515625 2.23046875 C-0.02355469 1.49441406 -0.01195312 0.75835938 0 0 Z " fill="#09281C" transform="translate(172,573)"/>
<path d="M0 0 C0.33 0 0.66 0 1 0 C1 2.64 1 5.28 1 8 C1.66 8 2.32 8 3 8 C2.67 13.28 2.34 18.56 2 24 C1.67 24 1.34 24 1 24 C0.20318916 15.97497656 -0.12867289 8.06350113 0 0 Z " fill="#194F3C" transform="translate(166,528)"/>
<path d="M0 0 C-5.445 3.96 -5.445 3.96 -11 8 C-11.66 7.67 -12.32 7.34 -13 7 C-4.97826087 -1.24456522 -4.97826087 -1.24456522 0 0 Z " fill="#082C20" transform="translate(694,761)"/>
<path d="M0 0 C0.66 0 1.32 0 2 0 C1.88556397 2.0839403 1.75804453 4.16716493 1.625 6.25 C1.55539062 7.41015625 1.48578125 8.5703125 1.4140625 9.765625 C1.03751692 12.70694334 0.5225877 14.49949011 -1 17 C-1.02709444 14.91673869 -1.04643873 12.83337559 -1.0625 10.75 C-1.07410156 9.58984375 -1.08570313 8.4296875 -1.09765625 7.234375 C-1.01782092 4.59022872 -0.78643778 2.50173909 0 0 Z " fill="#0A291F" transform="translate(367,466)"/>
<path d="M0 0 C1.485 0.99 1.485 0.99 3 2 C3 2.66 3 3.32 3 4 C3.66 4.33 4.32 4.66 5 5 C5.6328125 7.06640625 5.6328125 7.06640625 6.125 9.5625 C6.29257812 10.38878906 6.46015625 11.21507812 6.6328125 12.06640625 C6.75398437 12.70449219 6.87515625 13.34257812 7 14 C6.01 14.495 6.01 14.495 5 15 C4.16260219 12.8765984 3.33019717 10.7512272 2.5 8.625 C1.80390625 6.84996094 1.80390625 6.84996094 1.09375 5.0390625 C0 2 0 2 0 0 Z " fill="#082E22" transform="translate(827,369)"/>
<path d="M0 0 C5.34844008 0.53484401 9.35796103 2.46690767 14 5 C14 5.66 14 6.32 14 7 C4.22210581 3.99633316 4.22210581 3.99633316 0 1 C0 0.67 0 0.34 0 0 Z " fill="#093022" transform="translate(652,194)"/>
<path d="M0 0 C6.19240462 0.68804496 12.01955594 2.28048715 18 4 C15.00098764 4.99967079 13.62269291 5.03325535 10.5625 4.6875 C9.41974609 4.56955078 9.41974609 4.56955078 8.25390625 4.44921875 C4.72336713 3.74555844 2.53997307 2.53997307 0 0 Z " fill="#0F4434" transform="translate(592,173)"/>
<path d="M0 0 C0.66 0.33 1.32 0.66 2 1 C-0.97 4.63 -3.94 8.26 -7 12 C-7.33 11.01 -7.66 10.02 -8 9 C-5.36 6.03 -2.72 3.06 0 0 Z " fill="#07291E" transform="translate(751,703)"/>
<path d="M0 0 C0.66 0 1.32 0 2 0 C3.7479503 5.24385089 4.19392201 9.47322267 4 15 C1.37969313 10.13371581 -0.3283194 5.5814298 0 0 Z " fill="#082D21" transform="translate(651,450)"/>
<path d="M0 0 C1.51553092 3.97450493 0.49888623 7.20481149 -0.4375 11.25 C-0.72496094 12.51328125 -1.01242188 13.7765625 -1.30859375 15.078125 C-1.53675781 16.04234375 -1.76492187 17.0065625 -2 18 C-2.33 18 -2.66 18 -3 18 C-3.37634203 11.19796625 -2.77471079 6.24309927 0 0 Z " fill="#07271B" transform="translate(176,430)"/>
<path d="M0 0 C1.43088528 2.86177057 0.59991697 4.93375773 0 8 C-0.66 8 -1.32 8 -2 8 C-2.66 9.98 -3.32 11.96 -4 14 C-4.9113287 11.47942631 -5.08517871 10.26674385 -4.2578125 7.67578125 C-3.88398438 6.89589844 -3.51015625 6.11601562 -3.125 5.3125 C-2.75632812 4.52488281 -2.38765625 3.73726563 -2.0078125 2.92578125 C-1 1 -1 1 0 0 Z " fill="#072D21" transform="translate(383,419)"/>
<path d="M0 0 C0.66 0.66 1.32 1.32 2 2 C-6.42857143 5.28571429 -6.42857143 5.28571429 -11 6 C-11 5.34 -11 4.68 -11 4 C-7.37 2.68 -3.74 1.36 0 0 Z " fill="#0A3527" transform="translate(422,218)"/>
<path d="M0 0 C0 0.66 0 1.32 0 2 C-4.96073422 3.32286246 -9.91111512 3.08893197 -15 3 C-10.26004945 -0.15996703 -5.58842581 -0.13305776 0 0 Z " fill="#092C1F" transform="translate(588,851)"/>
<path d="M0 0 C1 3 1 3 -0.14453125 5.48046875 C-0.97017578 6.82044922 -0.97017578 6.82044922 -1.8125 8.1875 C-2.35519531 9.08855469 -2.89789062 9.98960937 -3.45703125 10.91796875 C-3.96621094 11.60503906 -4.47539063 12.29210937 -5 13 C-5.66 13 -6.32 13 -7 13 C-5.35821735 8.22390502 -2.73453298 4.20617096 0 0 Z " fill="#0A2D20" transform="translate(811,686)"/>
<path d="M0 0 C0 3.67034745 -1.0752892 5.0999431 -3 8.1875 C-3.556875 9.08855469 -4.11375 9.98960937 -4.6875 10.91796875 C-5.120625 11.60503906 -5.55375 12.29210937 -6 13 C-6.93616694 10.47518613 -7.17818983 9.40525028 -6.07421875 6.89453125 C-5.61660156 6.20746094 -5.15898438 5.52039063 -4.6875 4.8125 C-4.23761719 4.11769531 -3.78773438 3.42289063 -3.32421875 2.70703125 C-2 1 -2 1 0 0 Z " fill="#092E21" transform="translate(777,666)"/>
<path d="M0 0 C0.33 0 0.66 0 1 0 C3.29612756 11.52164009 3.29612756 11.52164009 3 17 C-0.43467634 13.41598991 -0.8768268 9.78480493 -1 5 C-0.5625 2 -0.5625 2 0 0 Z " fill="#0F4031" transform="translate(657,470)"/>
<path d="M0 0 C2.63861452 3.18453477 5.1832328 6.27084628 7 10 C6.57421875 12.15234375 6.57421875 12.15234375 6 14 C4.98915735 12.42356682 3.99169489 10.8385483 3 9.25 C2.443125 8.36828125 1.88625 7.4865625 1.3125 6.578125 C0 4 0 4 0 0 Z " fill="#092F23" transform="translate(248,666)"/>
<path d="M0 0 C0.33 0 0.66 0 1 0 C1.3690205 11.52164009 1.3690205 11.52164009 -1 17 C-1.33 17 -1.66 17 -2 17 C-2.21824777 10.9981863 -1.5056904 5.80766296 0 0 Z " fill="#062419" transform="translate(212,450)"/>
<path d="M0 0 C4.8274799 1.41292095 8.7162359 3.42974154 13 6 C10.60042386 6.84119973 9.35077442 7.11193544 6.89453125 6.328125 C6.20746094 5.97234375 5.52039063 5.6165625 4.8125 5.25 C4.11769531 4.90453125 3.42289062 4.5590625 2.70703125 4.203125 C1 3 1 3 0 0 Z " fill="#082F22" transform="translate(348,817)"/>
<path d="M0 0 C0.33 0 0.66 0 1 0 C0.52060632 4.71403788 0.03165952 8.66579301 -2 13 C-2.66 13 -3.32 13 -4 13 C-3.40895235 8.15340923 -2.02055843 4.39251833 0 0 Z " fill="#0A2F22" transform="translate(837,629)"/>
<path d="M0 0 C0.93045933 2.55144824 1.08564091 3.74006478 0.22265625 6.359375 C-0.16019531 7.14828125 -0.54304687 7.9371875 -0.9375 8.75 C-1.50791016 9.94882812 -1.50791016 9.94882812 -2.08984375 11.171875 C-2.39019531 11.77515625 -2.69054687 12.3784375 -3 13 C-3.66 12.67 -4.32 12.34 -5 12 C-3.68938409 7.76570244 -2.05643741 3.92592596 0 0 Z " fill="#082F22" transform="translate(648,579)"/>
<path d="M0 0 C2.86453858 3.41016497 4.34703566 6.90694544 6 11 C5.01 11 4.02 11 3 11 C2.30034557 9.73581754 1.61565237 8.46334598 0.9375 7.1875 C0.55464844 6.47980469 0.17179688 5.77210938 -0.22265625 5.04296875 C-1 3 -1 3 0 0 Z " fill="#0A3226" transform="translate(783,368)"/>
<path d="M0 0 C3.66161578 1.22053859 4.16270474 2.36782304 6.1875 5.5625 C6.71730469 6.38878906 7.24710938 7.21507812 7.79296875 8.06640625 C8.19128906 8.70449219 8.58960938 9.34257812 9 10 C8.01 10 7.02 10 6 10 C4.39453125 8.3203125 4.39453125 8.3203125 2.8125 6.125 C2.01779297 5.04605469 2.01779297 5.04605469 1.20703125 3.9453125 C0 2 0 2 0 0 Z " fill="#092C20" transform="translate(749,318)"/>
<path d="M0 0 C1.32 0.33 2.64 0.66 4 1 C-0.455 4.465 -0.455 4.465 -5 8 C-5.66 7.67 -6.32 7.34 -7 7 C-4.78071806 4.09197539 -3.07030857 2.04687238 0 0 Z " fill="#082B1F" transform="translate(311,227)"/>
<path d="M0 0 C1.62566606 0.47690204 3.25051311 0.95659666 4.875 1.4375 C5.77992188 1.70433594 6.68484375 1.97117187 7.6171875 2.24609375 C10 3 10 3 12 4 C12 4.66 12 5.32 12 6 C7.01208429 5.52496041 3.9767259 4.0298864 0 1 C0 0.67 0 0.34 0 0 Z " fill="#082E21" transform="translate(372,829)"/>
<path d="M0 0 C-2.73704754 2.73704754 -5.26044774 3.16182449 -9 4 C-11.4375 3.625 -11.4375 3.625 -13 3 C-8.44573816 0.33409063 -5.26053037 -0.31563182 0 0 Z " fill="#092B1F" transform="translate(604,805)"/>
<path d="M0 0 C-2.24122198 2.24122198 -4.45024483 4.10824616 -7 6 C-8.32 4.68 -9.64 3.36 -11 2 C-9.54494642 1.47007308 -8.08581873 0.9513211 -6.625 0.4375 C-5.81289063 0.14746094 -5.00078125 -0.14257812 -4.1640625 -0.44140625 C-2 -1 -2 -1 0 0 Z " fill="#0A4735" transform="translate(612,802)"/>
<path d="M0 0 C2.64752004 2.57784846 4.94432065 4.91648098 7 8 C6.67 8.99 6.34 9.98 6 11 C4.98805294 9.92781799 3.99081943 8.84173622 3 7.75 C2.443125 7.14671875 1.88625 6.5434375 1.3125 5.921875 C0 4 0 4 0 0 Z " fill="#093225" transform="translate(262,688)"/>
<path d="M0 0 C1.15518918 0.90484792 2.29885406 1.8244206 3.4375 2.75 C4.07558594 3.26046875 4.71367187 3.7709375 5.37109375 4.296875 C7.18810554 6.19667629 7.60423197 7.43586908 8 10 C6.84481082 9.09515208 5.70114594 8.1755794 4.5625 7.25 C3.60537109 6.48429688 3.60537109 6.48429688 2.62890625 5.703125 C0.81189446 3.80332371 0.39576803 2.56413092 0 0 Z " fill="#0A2F23" transform="translate(264,753)"/>
<path d="M0 0 C3.94139078 1.66751148 6.7892812 4.22710649 10 7 C9.67 7.99 9.34 8.98 9 10 C8.51789063 9.50628906 8.03578125 9.01257813 7.5390625 8.50390625 C6.90742188 7.86324219 6.27578125 7.22257813 5.625 6.5625 C4.99851562 5.92441406 4.37203125 5.28632812 3.7265625 4.62890625 C2.08276939 2.92117824 2.08276939 2.92117824 0 2 C0 1.34 0 0.68 0 0 Z " fill="#082F21" transform="translate(295,729)"/>
<path d="M0 0 C2.63978826 3.18595135 5.10498388 6.30970546 7 10 C6.67 10.66 6.34 11.32 6 12 C3.34930567 9.52601863 1.28384156 7.42357749 0 4 C0 2.68 0 1.36 0 0 Z " fill="#0C3628" transform="translate(808,330)"/>
<path d="M0 0 C4.2742558 1.5830577 6.26531794 4.50568404 9 8 C6 8 6 8 4.39453125 6.7578125 C3.87246094 6.21898437 3.35039063 5.68015625 2.8125 5.125 C2.28269531 4.59132813 1.75289062 4.05765625 1.20703125 3.5078125 C0 2 0 2 0 0 Z " fill="#062D22" transform="translate(568,312)"/>
<path d="M0 0 C3.63 0.33 7.26 0.66 11 1 C11 1.33 11 1.66 11 2 C4.95170514 2.89604368 -0.8894576 3.11269443 -7 3 C-7 2.67 -7 2.34 -7 2 C-3.535 1.505 -3.535 1.505 0 1 C0 0.67 0 0.34 0 0 Z " fill="#165240" transform="translate(547,856)"/>
<path d="M0 0 C2 2 2 2 2.046875 4.09375 C1.94890625 4.8878125 1.8509375 5.681875 1.75 6.5 C1.66234375 7.2940625 1.5746875 8.088125 1.484375 8.90625 C1 11 1 11 -1 13 C-1.07654536 8.48382401 -1.10228696 4.40914783 0 0 Z " fill="#06281D" transform="translate(516,675)"/>
<path d="M0 0 C0.98726527 2.66561622 1.0275526 3.90126985 0.25 6.6875 C-1 9 -1 9 -4 10 C-3.71872579 8.51882199 -3.42466268 7.04006751 -3.125 5.5625 C-2.96257813 4.73878906 -2.80015625 3.91507813 -2.6328125 3.06640625 C-2.42398438 2.38449219 -2.21515625 1.70257812 -2 1 C-1.34 0.67 -0.68 0.34 0 0 Z " fill="#072E21" transform="translate(828,652)"/>
<path d="M0 0 C0.66 0 1.32 0 2 0 C0.77472971 4.05281712 -0.69880494 7.44360764 -3 11 C-3.75 9.4375 -3.75 9.4375 -4 7 C-2.86915563 4.49713591 -1.47860484 2.32992278 0 0 Z " fill="#082D20" transform="translate(207,345)"/>
<path d="M0 0 C0.66 0.33 1.32 0.66 2 1 C0.71034824 2.37562854 -0.62689293 3.70766393 -2 5 C-2.66 5 -3.32 5 -4 5 C-4.66 6.32 -5.32 7.64 -6 9 C-6.66 8.67 -7.32 8.34 -8 8 C-7.04578192 6.85073734 -6.08647955 5.70569459 -5.125 4.5625 C-4.59132813 3.92441406 -4.05765625 3.28632813 -3.5078125 2.62890625 C-2 1 -2 1 0 0 Z " fill="#082A1E" transform="translate(500,267)"/>
<path d="M0 0 C4.50802601 1.25805377 7.4912812 2.90407165 11 6 C3.54062751 5.38857603 3.54062751 5.38857603 1 3.5625 C0 2 0 2 0 0 Z " fill="#0A3426" transform="translate(688,212)"/>
<path d="M0 0 C0.33 0.99 0.66 1.98 1 3 C-3.37934119 2.48041715 -7.68803391 1.94324258 -12 1 C-12 0.67 -12 0.34 -12 0 C-7.74433453 -1.16063604 -4.3164922 -0.76173392 0 0 Z " fill="#0E4434" transform="translate(441,850)"/>
<path d="M0 0 C0.33 0 0.66 0 1 0 C1.33 3.96 1.66 7.92 2 12 C0.68 12.33 -0.64 12.66 -2 13 C-1.34 8.71 -0.68 4.42 0 0 Z " fill="#104D3B" transform="translate(488,804)"/>
<path d="M0 0 C4.55737263 0.43820891 7.57653445 0.85041169 11 4 C8 5 8 5 5.95703125 4.22265625 C5.24933594 3.83980469 4.54164063 3.45695313 3.8125 3.0625 C3.09707031 2.68222656 2.38164062 2.30195312 1.64453125 1.91015625 C1.10183594 1.60980469 0.55914062 1.30945313 0 1 C0 0.67 0 0.34 0 0 Z " fill="#07291E" transform="translate(377,788)"/>
<path d="M0 0 C4.43458973 1.3937282 6.87378374 3.60582235 10 7 C5.1746274 6.58639663 3.13078071 4.5780351 0 1 C0 0.67 0 0.34 0 0 Z " fill="#072B20" transform="translate(472,680)"/>
<path d="M0 0 C0.66 0 1.32 0 2 0 C2.17835515 4.54805635 1.99785435 7.8794254 0 12 C-0.33 12 -0.66 12 -1 12 C-0.67 8.04 -0.34 4.08 0 0 Z " fill="#062B1F" transform="translate(853,563)"/>
<path d="M0 0 C-4.95 2.97 -4.95 2.97 -10 6 C-10 5.01 -10 4.02 -10 3 C-4.85106383 -1.21276596 -4.85106383 -1.21276596 0 0 Z " fill="#0A3325" transform="translate(347,256)"/>
<path d="M0 0 C-3.42346555 3.14958831 -6.44262737 3.56179109 -11 4 C-11 3.34 -11 2.68 -11 2 C-7.17679443 0.57741188 -4.08718695 -0.24042276 0 0 Z " fill="#092A1E" transform="translate(445,213)"/>
<path d="M0 0 C-0.99 0.33 -1.98 0.66 -3 1 C-3 1.66 -3 2.32 -3 3 C-4.98 3 -6.96 3 -9 3 C-9 2.34 -9 1.68 -9 1 C-5.57367167 -0.61798838 -3.61944899 -1.34053666 0 0 Z " fill="#0A3125" transform="translate(628,797)"/>
<path d="M0 0 C0.66 0.33 1.32 0.66 2 1 C3.1577506 4.47325181 3.06866652 7.36067448 3 11 C0.81024227 7.71536341 0.00193437 4.79303725 -1 1 C-0.67 0.67 -0.34 0.34 0 0 Z " fill="#072E21" transform="translate(220,603)"/>
<path d="M0 0 C2.42130331 2.42130331 2.52840504 3.80111377 3.125 7.125 C3.29257812 8.03507812 3.46015625 8.94515625 3.6328125 9.8828125 C3.81457031 10.93082031 3.81457031 10.93082031 4 12 C1.95780294 10.30820672 1.08206694 9.36272334 0.48828125 6.73828125 C0.43027344 5.93777344 0.37226562 5.13726562 0.3125 4.3125 C0.24675781 3.50425781 0.18101562 2.69601562 0.11328125 1.86328125 C0.07589844 1.24839844 0.03851562 0.63351562 0 0 Z " fill="#08271C" transform="translate(803,417)"/>
<path d="M0 0 C1.17175781 0.12761719 2.34351563 0.25523437 3.55078125 0.38671875 C4.73027344 0.50660156 5.90976562 0.62648437 7.125 0.75 C8.48044922 0.91048828 8.48044922 0.91048828 9.86328125 1.07421875 C9.86328125 1.40421875 9.86328125 1.73421875 9.86328125 2.07421875 C1.94328125 2.56921875 1.94328125 2.56921875 -6.13671875 3.07421875 C-3.13671875 0.07421875 -3.13671875 0.07421875 0 0 Z " fill="#14513F" transform="translate(474.13671875,206.92578125)"/>
<path d="M0 0 C0.33 0 0.66 0 1 0 C1.33 4.29 1.66 8.58 2 13 C1.34 13 0.68 13 0 13 C-0.33 13.99 -0.66 14.98 -1 16 C-0.67 10.72 -0.34 5.44 0 0 Z " fill="#134E3C" transform="translate(494,749)"/>
<path d="M0 0 C0.99 0.33 1.98 0.66 3 1 C-0.465 3.97 -0.465 3.97 -4 7 C-4.66 6.67 -5.32 6.34 -6 6 C-2.25 1.125 -2.25 1.125 0 0 Z " fill="#05281C" transform="translate(704,750)"/>
<path d="M0 0 C2.96404505 2.80804268 5.44499019 5.18315774 7 9 C3.73539027 7.19587357 2.11070205 6.16605307 0 3 C0 2.01 0 1.02 0 0 Z " fill="#082B1F" transform="translate(237,722)"/>
<path d="M0 0 C0.66 0 1.32 0 2 0 C3.5625 2.8125 3.5625 2.8125 5 6 C4.67 6.99 4.34 7.98 4 9 C0 3.375 0 3.375 0 0 Z " fill="#082D21" transform="translate(204,671)"/>
<path d="M0 0 C3.81684226 1.55500981 6.19195732 4.03595495 9 7 C4.75272765 6.52808085 2.76506398 4.07229331 0 1 C0 0.67 0 0.34 0 0 Z " fill="#07281D" transform="translate(427,649)"/>
<path d="M0 0 C0.66 0 1.32 0 2 0 C2.99 2.97 3.98 5.94 5 9 C4.01 8.67 3.02 8.34 2 8 C0.5522078 5.10441559 0 3.25811062 0 0 Z " fill="#093224" transform="translate(227,625)"/>
<path d="M0 0 C3.2542015 2.83430453 4.5206753 4.68607774 5 9 C4.34 9 3.68 9 3 9 C3 8.34 3 7.68 3 7 C2.34 6.67 1.68 6.34 1 6 C0.375 2.9375 0.375 2.9375 0 0 Z " fill="#093225" transform="translate(775,355)"/>
<path d="M0 0 C0 3 0 3 -2.375 5.625 C-5 8 -5 8 -7 9 C-5.44499019 5.18315774 -2.96404505 2.80804268 0 0 Z " fill="#0B3326" transform="translate(238,299)"/>
<path d="M0 0 C3.34373475 0.55728913 6.03312999 1.35173889 9 3 C9 3.66 9 4.32 9 5 C5.65626525 4.44271087 2.96687001 3.64826111 0 2 C0 1.34 0 0.68 0 0 Z " fill="#072E20" transform="translate(671,203)"/>
<path d="M0 0 C1.90318884 2.85478326 2.4619099 4.41941308 3.125 7.6875 C3.29257812 8.49574219 3.46015625 9.30398438 3.6328125 10.13671875 C3.75398437 10.75160156 3.87515625 11.36648438 4 12 C3.34 11.34 2.68 10.68 2 10 C2 9.01 2 8.02 2 7 C1.34 7 0.68 7 0 7 C-0.93423645 3.98968256 -1.04449911 3.13349732 0 0 Z " fill="#104433" transform="translate(840,399)"/>
<path d="M0 0 C3.67230705 3.07999946 4.56802365 5.2482602 5 10 C2.08772731 6.71195019 0.50298788 4.40114397 0 0 Z " fill="#0A3326" transform="translate(769,345)"/>
<path d="M0 0 C3.93673644 1.31224548 6.22719294 2.91910327 9 6 C4.70042176 5.52226908 2.78280018 4.29813355 0 1 C0 0.67 0 0.34 0 0 Z " fill="#062B1F" transform="translate(677,253)"/>
<path d="M0 0 C0 0.33 0 0.66 0 1 C-3.96 1.66 -7.92 2.32 -12 3 C-11.34 2.67 -10.68 2.34 -10 2 C-10 1.34 -10 0.68 -10 0 C-6.42355152 -1.2380014 -3.66305234 -0.74926071 0 0 Z " fill="#104837" transform="translate(455,212)"/>
<path d="M0 0 C0.53625 0.2475 1.0725 0.495 1.625 0.75 C-3.55078125 3.97265625 -3.55078125 3.97265625 -5.375 4.75 C-6.365 4.42 -7.355 4.09 -8.375 3.75 C-2.95961538 -0.31153846 -2.95961538 -0.31153846 0 0 Z " fill="#0B3022" transform="translate(693.375,808.25)"/>
<path d="M0 0 C7.42857143 -0.28571429 7.42857143 -0.28571429 11 2 C6.70700357 3.26264601 4.12168689 2.62950412 0 1 C0 0.67 0 0.34 0 0 Z " fill="#0B3126" transform="translate(428,807)"/>
<path d="M0 0 C-4.43076923 3.07692308 -4.43076923 3.07692308 -7.3125 2.6875 C-8.1478125 2.3471875 -8.1478125 2.3471875 -9 2 C-4.13793103 -1.24137931 -4.13793103 -1.24137931 0 0 Z " fill="#0A3224" transform="translate(642,791)"/>
<path d="M0 0 C0.99 1.32 1.98 2.64 3 4 C2.67 4.66 2.34 5.32 2 6 C1.01 6 0.02 6 -1 6 C-1.33 4.68 -1.66 3.36 -2 2 C-1.34 2 -0.68 2 0 2 C0 1.34 0 0.68 0 0 Z " fill="#094030" transform="translate(236,643)"/>
<path d="M0 0 C0.33 0.66 0.66 1.32 1 2 C1.66 2 2.32 2 3 2 C4.16552619 6.19589427 4.08954032 6.82091936 2 11 C1.34 7.37 0.68 3.74 0 0 Z " fill="#0E4233" transform="translate(176,598)"/>
<path d="M0 0 C0.33 0 0.66 0 1 0 C0.53199289 4.05606165 0.12046792 7.46588679 -2 11 C-2.25 3.375 -2.25 3.375 0 0 Z " fill="#052418" transform="translate(808,589)"/>
<path d="M0 0 C2.08954032 4.17908064 2.16552619 4.80410573 1 9 C0.34 9 -0.32 9 -1 9 C-1.33 9.66 -1.66 10.32 -2 11 C-1.34 7.37 -0.68 3.74 0 0 Z " fill="#104637" transform="translate(809,580)"/>
<path d="M0 0 C1.5 1 1.5 1 3 3 C3.27345479 5.71846235 3.13491285 8.25677199 3 11 C0.43383368 7.15075052 0.44902324 4.5650696 0 0 Z " fill="#042319" transform="translate(845,419)"/>
<path d="M0 0 C1 3 1 3 -0.25 5.625 C-2 8 -2 8 -5 9 C-3.7508258 5.54074837 -2.32472205 2.85306797 0 0 Z " fill="#08291D" transform="translate(259,338)"/>
<path d="M0 0 C0.66 0.33 1.32 0.66 2 1 C0.35 2.98 -1.3 4.96 -3 7 C-3.99 6.67 -4.98 6.34 -6 6 C-4.02 4.02 -2.04 2.04 0 0 Z " fill="#0D3529" transform="translate(282,250)"/>
<path d="M0 0 C0.99 0.66 1.98 1.32 3 2 C-1.455 3.485 -1.455 3.485 -6 5 C-5 2 -5 2 -2.625 0.6875 C-1.75875 0.460625 -0.8925 0.23375 0 0 Z " fill="#0D3D2E" transform="translate(649,830)"/>
<path d="M0 0 C0.99 0.33 1.98 0.66 3 1 C1.95125002 3.62187494 1.35068687 4.79371361 -1.125 6.25 C-1.74375 6.4975 -2.3625 6.745 -3 7 C-2.38722388 4.03824877 -1.74627478 2.61941217 0 0 Z " fill="#05271B" transform="translate(738,717)"/>
<path d="M0 0 C-1.13474948 3.40424844 -1.96811304 4.21653709 -5 6 C-5.99 5.67 -6.98 5.34 -8 5 C-2.25 0 -2.25 0 0 0 Z " fill="#082A1E" transform="translate(546,685)"/>
<path d="M0 0 C0.33 0 0.66 0 1 0 C1.33 3.96 1.66 7.92 2 12 C1.67 10.68 1.34 9.36 1 8 C0.34 8 -0.32 8 -1 8 C-0.67 5.36 -0.34 2.72 0 0 Z " fill="#104A39" transform="translate(853,449)"/>
<path d="M0 0 C0.99 0.99 1.98 1.98 3 3 C2.01 3 1.02 3 0 3 C0 2.01 0 1.02 0 0 Z " fill="#0D4838" transform="translate(396,620)"/>
<path d="M0 0 C4 1 4 1 4 1 Z " fill="#0A4B3A" transform="translate(443,808)"/>
<path d="M0 0 C0.99 0.33 1.98 0.66 3 1 C2.01 1.33 1.02 1.66 0 2 C0 1.34 0 0.68 0 0 Z " fill="#094938" transform="translate(628,792)"/>
<path d="M0 0 C1 4 1 4 1 4 Z " fill="#0B4938" transform="translate(362,537)"/>
<path d="M0 0 C3 1 3 1 3 1 Z " fill="#0D4A3A" transform="translate(580,855)"/>
<path d="M0 0 C0.33 0.66 0.66 1.32 1 2 C0.34 1.67 -0.32 1.34 -1 1 C-0.67 0.67 -0.34 0.34 0 0 Z " fill="#0A4434" transform="translate(236,725)"/>
<path d="" fill="#0F4A39" transform="translate(0,0)"/>
<path d="" fill="#0D4C3B" transform="translate(0,0)"/>
<path d="M0 0 C0.99 0.495 0.99 0.495 2 1 C1.01 1.495 1.01 1.495 0 2 C0 1.34 0 0.68 0 0 Z " fill="#0B493A" transform="translate(616,226)"/>
<path d="M0 0 C0.66 0.66 1.32 1.32 2 2 C1.34 2 0.68 2 0 2 C0 1.34 0 0.68 0 0 Z " fill="#0C4E39" transform="translate(440,168)"/>
<path d="M0 0 C3 1 3 1 3 1 Z " fill="#0C4C3A" transform="translate(515,162)"/>
<path d="M0 0 C3 1 3 1 3 1 Z " fill="#0E4F3C" transform="translate(501,162)"/>
<path d="M0 0 C2 1 2 1 2 1 Z " fill="#0B4636" transform="translate(472,859)"/>
<path d="" fill="#0C4938" transform="translate(0,0)"/>
<path d="M0 0 C2 1 2 1 2 1 Z " fill="#0C4836" transform="translate(612,847)"/>
<path d="M0 0 C2 1 2 1 2 1 Z " fill="#0A4736" transform="translate(400,843)"/>
<path d="" fill="#0A4837" transform="translate(0,0)"/>
<path d="M0 0 C2 1 2 1 2 1 Z " fill="#0B4D3A" transform="translate(454,810)"/>
<path d="M0 0 C2 1 2 1 2 1 Z " fill="#0A4936" transform="translate(602,802)"/>
<path d="M0 0 C2 1 2 1 2 1 Z " fill="#0C4E3C" transform="translate(419,801)"/>
<path d="M0 0 C2 1 2 1 2 1 Z " fill="#0D4736" transform="translate(414,800)"/>
<path d="M0 0 C2 1 2 1 2 1 Z " fill="#0C4D3A" transform="translate(399,794)"/>
<path d="M0 0 C2 1 2 1 2 1 Z " fill="#084A39" transform="translate(347,768)"/>
<path d="" fill="#0C4835" transform="translate(0,0)"/>
<path d="M0 0 C2 1 2 1 2 1 Z " fill="#0D4A3A" transform="translate(193,656)"/>
<path d="M0 0 C2 1 2 1 2 1 Z " fill="#0C493A" transform="translate(426,652)"/>
<path d="M0 0 C2 1 2 1 2 1 Z " fill="#0D4838" transform="translate(180,622)"/>
<path d="" fill="#0E4A39" transform="translate(0,0)"/>
<path d="" fill="#0C4938" transform="translate(0,0)"/>
<path d="" fill="#0B4A3A" transform="translate(0,0)"/>
<path d="" fill="#0D4836" transform="translate(0,0)"/>
<path d="" fill="#0C4A3A" transform="translate(0,0)"/>
<path d="" fill="#0D4B39" transform="translate(0,0)"/>
<path d="M0 0 C2 1 2 1 2 1 Z " fill="#0B4C3A" transform="translate(360,525)"/>
<path d="" fill="#0D4A39" transform="translate(0,0)"/>
<path d="" fill="#0C4A39" transform="translate(0,0)"/>
<path d="" fill="#0A4938" transform="translate(0,0)"/>
<path d="" fill="#0A4C3B" transform="translate(0,0)"/>
<path d="" fill="#0B4E3C" transform="translate(0,0)"/>
<path d="" fill="#0C4E3D" transform="translate(0,0)"/>
<path d="" fill="#0C4B3D" transform="translate(0,0)"/>
<path d="" fill="#0D4C3C" transform="translate(0,0)"/>
<path d="" fill="#0C4939" transform="translate(0,0)"/>
<path d="" fill="#0D4C3C" transform="translate(0,0)"/>
<path d="" fill="#0B4838" transform="translate(0,0)"/>
<path d="" fill="#0B4737" transform="translate(0,0)"/>
<path d="" fill="#0C4938" transform="translate(0,0)"/>
<path d="" fill="#0D4B3A" transform="translate(0,0)"/>
<path d="M0 0 C2 1 2 1 2 1 Z " fill="#084537" transform="translate(457,304)"/>
<path d="" fill="#0A4B3A" transform="translate(0,0)"/>
<path d="M0 0 C2 1 2 1 2 1 Z " fill="#074737" transform="translate(256,272)"/>
<path d="" fill="#0B4D3B" transform="translate(0,0)"/>
<path d="M0 0 C2 1 2 1 2 1 Z " fill="#0A4838" transform="translate(601,221)"/>
<path d="M0 0 C2 1 2 1 2 1 Z " fill="#0D4D3B" transform="translate(458,213)"/>
<path d="M0 0 C2 1 2 1 2 1 Z " fill="#0B4D39" transform="translate(561,212)"/>
<path d="M0 0 C2 1 2 1 2 1 Z " fill="#0B4F3B" transform="translate(470,211)"/>
<path d="M0 0 C2 1 2 1 2 1 Z " fill="#0A4B3A" transform="translate(369,192)"/>
<path d="" fill="#0C4938" transform="translate(0,0)"/>
<path d="" fill="#0B4A39" transform="translate(0,0)"/>
<path d="M0 0 C2 1 2 1 2 1 Z " fill="#0A4939" transform="translate(411,176)"/>
<path d="" fill="#0C4837" transform="translate(0,0)"/>
<path d="" fill="#0C4B38" transform="translate(0,0)"/>
<path d="" fill="#0C4C38" transform="translate(0,0)"/>
<path d="" fill="#0C4C3A" transform="translate(0,0)"/>
<path d="" fill="#0B4A36" transform="translate(0,0)"/>
<path d="" fill="#0D4939" transform="translate(0,0)"/>
<path d="" fill="#0B4938" transform="translate(0,0)"/>
<path d="" fill="#0D4C3B" transform="translate(0,0)"/>
<path d="" fill="#0B4D38" transform="translate(0,0)"/>
<path d="" fill="#0C4D39" transform="translate(0,0)"/>
<path d="" fill="#0A4C39" transform="translate(0,0)"/>
<path d="" fill="#0E4A3A" transform="translate(0,0)"/>
<path d="" fill="#0C4837" transform="translate(0,0)"/>
<path d="" fill="#0D4636" transform="translate(0,0)"/>
<path d="" fill="#0C4B38" transform="translate(0,0)"/>
<path d="" fill="#0A4A39" transform="translate(0,0)"/>
<path d="" fill="#0B4635" transform="translate(0,0)"/>
<path d="" fill="#0C4635" transform="translate(0,0)"/>
<path d="" fill="#0B4837" transform="translate(0,0)"/>
<path d="" fill="#0C4536" transform="translate(0,0)"/>
<path d="" fill="#0C4939" transform="translate(0,0)"/>
<path d="" fill="#0C4538" transform="translate(0,0)"/>
<path d="" fill="#0C4535" transform="translate(0,0)"/>
<path d="" fill="#0C4835" transform="translate(0,0)"/>
<path d="" fill="#0B4234" transform="translate(0,0)"/>
<path d="" fill="#0B4535" transform="translate(0,0)"/>
<path d="" fill="#0C4636" transform="translate(0,0)"/>
<path d="" fill="#094736" transform="translate(0,0)"/>
<path d="" fill="#0B4736" transform="translate(0,0)"/>
<path d="" fill="#0C4332" transform="translate(0,0)"/>
<path d="" fill="#0B4736" transform="translate(0,0)"/>
<path d="" fill="#0B4638" transform="translate(0,0)"/>
<path d="" fill="#0B4334" transform="translate(0,0)"/>
<path d="" fill="#0D4536" transform="translate(0,0)"/>
<path d="" fill="#0B4B38" transform="translate(0,0)"/>
<path d="" fill="#094938" transform="translate(0,0)"/>
<path d="" fill="#0C4A39" transform="translate(0,0)"/>
<path d="" fill="#094136" transform="translate(0,0)"/>
<path d="" fill="#0C4737" transform="translate(0,0)"/>
<path d="" fill="#094B39" transform="translate(0,0)"/>
<path d="" fill="#0B4638" transform="translate(0,0)"/>
<path d="" fill="#0E4F3B" transform="translate(0,0)"/>
<path d="" fill="#0C4F3A" transform="translate(0,0)"/>
<path d="" fill="#094A39" transform="translate(0,0)"/>
<path d="" fill="#0F4F3F" transform="translate(0,0)"/>
<path d="" fill="#09503C" transform="translate(0,0)"/>
<path d="" fill="#0C4F3B" transform="translate(0,0)"/>
<path d="" fill="#0B4C3E" transform="translate(0,0)"/>
<path d="" fill="#0B4435" transform="translate(0,0)"/>
<path d="" fill="#0A4736" transform="translate(0,0)"/>
<path d="" fill="#0A4B37" transform="translate(0,0)"/>
<path d="" fill="#0B4735" transform="translate(0,0)"/>
<path d="" fill="#0C4D3B" transform="translate(0,0)"/>
<path d="" fill="#0D4534" transform="translate(0,0)"/>
<path d="" fill="#094D3A" transform="translate(0,0)"/>
<path d="" fill="#094C3A" transform="translate(0,0)"/>
<path d="" fill="#0A4C3B" transform="translate(0,0)"/>
<path d="" fill="#0B4F3B" transform="translate(0,0)"/>
<path d="" fill="#094736" transform="translate(0,0)"/>
<path d="" fill="#0A4233" transform="translate(0,0)"/>
<path d="" fill="#0C4435" transform="translate(0,0)"/>
<path d="" fill="#0E4F3B" transform="translate(0,0)"/>
<path d="" fill="#0D513D" transform="translate(0,0)"/>
<path d="" fill="#0A4839" transform="translate(0,0)"/>
<path d="" fill="#0A4D3A" transform="translate(0,0)"/>
<path d="" fill="#084C39" transform="translate(0,0)"/>
<path d="" fill="#0B4D39" transform="translate(0,0)"/>
<path d="" fill="#084C3A" transform="translate(0,0)"/>
<path d="" fill="#0C4E3A" transform="translate(0,0)"/>
<path d="" fill="#0C4836" transform="translate(0,0)"/>
<path d="" fill="#0A4C3A" transform="translate(0,0)"/>
<path d="" fill="#0A4436" transform="translate(0,0)"/>
<path d="" fill="#0B4536" transform="translate(0,0)"/>
<path d="" fill="#0A4132" transform="translate(0,0)"/>
<path d="" fill="#094E3B" transform="translate(0,0)"/>
<path d="" fill="#0A4C39" transform="translate(0,0)"/>
<path d="" fill="#0A4939" transform="translate(0,0)"/>
<path d="" fill="#0C4A38" transform="translate(0,0)"/>
<path d="" fill="#0F493A" transform="translate(0,0)"/>
<path d="" fill="#0B4B39" transform="translate(0,0)"/>
<path d="" fill="#0B4936" transform="translate(0,0)"/>
<path d="" fill="#0D4433" transform="translate(0,0)"/>
<path d="" fill="#0F503B" transform="translate(0,0)"/>
<path d="" fill="#0B4D3B" transform="translate(0,0)"/>
<path d="" fill="#0B4A38" transform="translate(0,0)"/>
<path d="" fill="#084E39" transform="translate(0,0)"/>
<path d="" fill="#0E4939" transform="translate(0,0)"/>
<path d="" fill="#0D4C3C" transform="translate(0,0)"/>
<path d="" fill="#0B4B39" transform="translate(0,0)"/>
<path d="" fill="#0A4735" transform="translate(0,0)"/>
<path d="" fill="#0B4939" transform="translate(0,0)"/>
<path d="" fill="#0A4737" transform="translate(0,0)"/>
<path d="" fill="#0C4B3A" transform="translate(0,0)"/>
<path d="" fill="#0A4636" transform="translate(0,0)"/>
<path d="" fill="#0B4B37" transform="translate(0,0)"/>
<path d="" fill="#0C4737" transform="translate(0,0)"/>
<path d="" fill="#0B4B39" transform="translate(0,0)"/>
<path d="" fill="#104637" transform="translate(0,0)"/>
<path d="" fill="#0A4435" transform="translate(0,0)"/>
<path d="" fill="#0B4C37" transform="translate(0,0)"/>
<path d="" fill="#0D4D3B" transform="translate(0,0)"/>
<path d="" fill="#094A39" transform="translate(0,0)"/>
<path d="" fill="#0D4E3D" transform="translate(0,0)"/>
<path d="" fill="#0A4333" transform="translate(0,0)"/>
<path d="" fill="#094A37" transform="translate(0,0)"/>
<path d="" fill="#0B4B39" transform="translate(0,0)"/>
<path d="" fill="#0D4738" transform="translate(0,0)"/>
<path d="" fill="#0E4837" transform="translate(0,0)"/>
<path d="" fill="#0F4B37" transform="translate(0,0)"/>
<path d="" fill="#0D4D3C" transform="translate(0,0)"/>
<path d="" fill="#0A4939" transform="translate(0,0)"/>
<path d="" fill="#0D4A3A" transform="translate(0,0)"/>
<path d="" fill="#0D4C3D" transform="translate(0,0)"/>
<path d="" fill="#0D4D3C" transform="translate(0,0)"/>
<path d="" fill="#0D4637" transform="translate(0,0)"/>
<path d="" fill="#0E4D3B" transform="translate(0,0)"/>
<path d="" fill="#0E4C3B" transform="translate(0,0)"/>
<path d="" fill="#0D4A39" transform="translate(0,0)"/>
<path d="" fill="#0C4837" transform="translate(0,0)"/>
<path d="" fill="#0B4132" transform="translate(0,0)"/>
<path d="" fill="#0F4D3D" transform="translate(0,0)"/>
<path d="" fill="#0D4A3B" transform="translate(0,0)"/>
<path d="" fill="#0D4738" transform="translate(0,0)"/>
<path d="" fill="#094C3B" transform="translate(0,0)"/>
<path d="" fill="#0B4937" transform="translate(0,0)"/>
<path d="" fill="#0C4C3D" transform="translate(0,0)"/>
<path d="" fill="#094838" transform="translate(0,0)"/>
<path d="" fill="#094F3D" transform="translate(0,0)"/>
<path d="" fill="#0C4C3C" transform="translate(0,0)"/>
<path d="" fill="#0E4937" transform="translate(0,0)"/>
<path d="" fill="#0E4738" transform="translate(0,0)"/>
<path d="" fill="#094737" transform="translate(0,0)"/>
<path d="" fill="#0C4B3A" transform="translate(0,0)"/>
<path d="" fill="#0F4A38" transform="translate(0,0)"/>
<path d="" fill="#0D4B3B" transform="translate(0,0)"/>
<path d="" fill="#0C4938" transform="translate(0,0)"/>
<path d="" fill="#0D4C3D" transform="translate(0,0)"/>
<path d="" fill="#0C4939" transform="translate(0,0)"/>
<path d="" fill="#0B4B3A" transform="translate(0,0)"/>
<path d="" fill="#0D4D3B" transform="translate(0,0)"/>
<path d="" fill="#0E4A3C" transform="translate(0,0)"/>
<path d="" fill="#0C4F3B" transform="translate(0,0)"/>
<path d="" fill="#0B4736" transform="translate(0,0)"/>
<path d="" fill="#104D3B" transform="translate(0,0)"/>
<path d="" fill="#0D4B39" transform="translate(0,0)"/>
<path d="" fill="#0C4838" transform="translate(0,0)"/>
<path d="" fill="#094737" transform="translate(0,0)"/>
<path d="" fill="#0D4A39" transform="translate(0,0)"/>
<path d="" fill="#0B4A38" transform="translate(0,0)"/>
<path d="" fill="#0D4B3B" transform="translate(0,0)"/>
<path d="" fill="#0C4C3C" transform="translate(0,0)"/>
<path d="" fill="#0B4B3B" transform="translate(0,0)"/>
<path d="" fill="#0E4D3B" transform="translate(0,0)"/>
<path d="" fill="#0C4838" transform="translate(0,0)"/>
<path d="" fill="#0D4B3B" transform="translate(0,0)"/>
<path d="" fill="#0D4435" transform="translate(0,0)"/>
<path d="" fill="#0E4E3D" transform="translate(0,0)"/>
<path d="" fill="#0C4A39" transform="translate(0,0)"/>
<path d="" fill="#0D4C3B" transform="translate(0,0)"/>
<path d="" fill="#0E4C3B" transform="translate(0,0)"/>
<path d="" fill="#0E4D3A" transform="translate(0,0)"/>
<path d="" fill="#0F4839" transform="translate(0,0)"/>
<path d="" fill="#0F4A3A" transform="translate(0,0)"/>
<path d="" fill="#0B4737" transform="translate(0,0)"/>
<path d="" fill="#0D4938" transform="translate(0,0)"/>
<path d="" fill="#0C4E3C" transform="translate(0,0)"/>
<path d="" fill="#0B4C39" transform="translate(0,0)"/>
<path d="" fill="#0E4A37" transform="translate(0,0)"/>
<path d="" fill="#094E3B" transform="translate(0,0)"/>
<path d="" fill="#0F4B3B" transform="translate(0,0)"/>
<path d="" fill="#0F493A" transform="translate(0,0)"/>
<path d="" fill="#0B4D3D" transform="translate(0,0)"/>
<path d="" fill="#0D4A3A" transform="translate(0,0)"/>
<path d="" fill="#0A493C" transform="translate(0,0)"/>
<path d="" fill="#0D4A39" transform="translate(0,0)"/>
<path d="" fill="#094836" transform="translate(0,0)"/>
<path d="" fill="#0D4939" transform="translate(0,0)"/>
<path d="" fill="#0B4A39" transform="translate(0,0)"/>
<path d="" fill="#0E4A39" transform="translate(0,0)"/>
<path d="" fill="#104A38" transform="translate(0,0)"/>
<path d="" fill="#0B4A39" transform="translate(0,0)"/>
<path d="" fill="#0B4937" transform="translate(0,0)"/>
<path d="" fill="#0D4A3A" transform="translate(0,0)"/>
<path d="" fill="#0B4B39" transform="translate(0,0)"/>
<path d="" fill="#0B4A39" transform="translate(0,0)"/>
<path d="" fill="#0D4939" transform="translate(0,0)"/>
<path d="" fill="#0D4938" transform="translate(0,0)"/>
<path d="" fill="#0B4737" transform="translate(0,0)"/>
<path d="" fill="#0C4F3D" transform="translate(0,0)"/>
<path d="" fill="#0C4C3C" transform="translate(0,0)"/>
<path d="" fill="#0E4C3E" transform="translate(0,0)"/>
<path d="" fill="#104A3A" transform="translate(0,0)"/>
<path d="" fill="#0C4E39" transform="translate(0,0)"/>
<path d="" fill="#0E4E3C" transform="translate(0,0)"/>
<path d="" fill="#0B4B3B" transform="translate(0,0)"/>
<path d="" fill="#0B493A" transform="translate(0,0)"/>
<path d="" fill="#0C4C3A" transform="translate(0,0)"/>
<path d="" fill="#0C4936" transform="translate(0,0)"/>
<path d="" fill="#0B4837" transform="translate(0,0)"/>
<path d="" fill="#0E4A39" transform="translate(0,0)"/>
<path d="" fill="#0B4B3A" transform="translate(0,0)"/>
<path d="" fill="#0B4836" transform="translate(0,0)"/>
<path d="" fill="#0C4C3C" transform="translate(0,0)"/>
<path d="" fill="#0B4D3A" transform="translate(0,0)"/>
<path d="" fill="#0D4E3C" transform="translate(0,0)"/>
<path d="" fill="#0B4938" transform="translate(0,0)"/>
<path d="" fill="#0C4F3C" transform="translate(0,0)"/>
<path d="" fill="#094C3B" transform="translate(0,0)"/>
<path d="" fill="#0F4E3B" transform="translate(0,0)"/>
<path d="" fill="#0D4A3A" transform="translate(0,0)"/>
<path d="" fill="#0D503C" transform="translate(0,0)"/>
<path d="" fill="#0E4E3B" transform="translate(0,0)"/>
<path d="" fill="#0F4B39" transform="translate(0,0)"/>
<path d="" fill="#0C4939" transform="translate(0,0)"/>
<path d="" fill="#0C4C3B" transform="translate(0,0)"/>
<path d="" fill="#0D4E3C" transform="translate(0,0)"/>
<path d="" fill="#0C4E3C" transform="translate(0,0)"/>
<path d="" fill="#0C4D3A" transform="translate(0,0)"/>
<path d="" fill="#0B4C3B" transform="translate(0,0)"/>
<path d="" fill="#0B4E3B" transform="translate(0,0)"/>
<path d="" fill="#0F4B3A" transform="translate(0,0)"/>
<path d="" fill="#0B4B39" transform="translate(0,0)"/>
<path d="" fill="#0B4C38" transform="translate(0,0)"/>
<path d="" fill="#0C4F3C" transform="translate(0,0)"/>
<path d="" fill="#0A4A38" transform="translate(0,0)"/>
<path d="" fill="#0A4C3A" transform="translate(0,0)"/>
<path d="" fill="#0B4E3D" transform="translate(0,0)"/>
<path d="" fill="#0F4E3D" transform="translate(0,0)"/>
<path d="" fill="#0F4938" transform="translate(0,0)"/>
<path d="" fill="#0C4D39" transform="translate(0,0)"/>
<path d="" fill="#0D4A39" transform="translate(0,0)"/>
<path d="" fill="#0A4C3A" transform="translate(0,0)"/>
<path d="" fill="#0B4D3B" transform="translate(0,0)"/>
<path d="" fill="#0C4B3A" transform="translate(0,0)"/>
<path d="" fill="#094C3B" transform="translate(0,0)"/>
<path d="" fill="#0B4737" transform="translate(0,0)"/>
<path d="" fill="#0C4737" transform="translate(0,0)"/>
<path d="" fill="#0A4637" transform="translate(0,0)"/>
<path d="" fill="#0E4D3A" transform="translate(0,0)"/>
<path d="" fill="#0C4734" transform="translate(0,0)"/>
<path d="" fill="#0E4C3F" transform="translate(0,0)"/>
<path d="" fill="#0C4D3B" transform="translate(0,0)"/>
<path d="" fill="#0A4B3B" transform="translate(0,0)"/>
<path d="" fill="#094D39" transform="translate(0,0)"/>
<path d="" fill="#0A4A3A" transform="translate(0,0)"/>
<path d="" fill="#0D4A3B" transform="translate(0,0)"/>
<path d="" fill="#0A4233" transform="translate(0,0)"/>
<path d="" fill="#0E4A38" transform="translate(0,0)"/>
<path d="" fill="#0A4D3C" transform="translate(0,0)"/>
<path d="" fill="#0C4A3A" transform="translate(0,0)"/>
<path d="" fill="#0D4D3B" transform="translate(0,0)"/>
<path d="" fill="#0C4738" transform="translate(0,0)"/>
<path d="" fill="#0D4C3A" transform="translate(0,0)"/>
<path d="" fill="#0D4E3D" transform="translate(0,0)"/>
<path d="" fill="#0B4836" transform="translate(0,0)"/>
<path d="" fill="#0C4739" transform="translate(0,0)"/>
<path d="" fill="#0C4837" transform="translate(0,0)"/>
<path d="" fill="#0F5140" transform="translate(0,0)"/>
<path d="" fill="#0D4C3C" transform="translate(0,0)"/>
<path d="" fill="#0C493A" transform="translate(0,0)"/>
<path d="" fill="#0A4937" transform="translate(0,0)"/>
<path d="" fill="#0A4837" transform="translate(0,0)"/>
<path d="" fill="#0F4D3B" transform="translate(0,0)"/>
<path d="" fill="#0C4C3A" transform="translate(0,0)"/>
<path d="" fill="#0A4B39" transform="translate(0,0)"/>
<path d="" fill="#0A4839" transform="translate(0,0)"/>
<path d="" fill="#0E4A39" transform="translate(0,0)"/>
<path d="" fill="#0B4A39" transform="translate(0,0)"/>
<path d="" fill="#0D4636" transform="translate(0,0)"/>
<path d="" fill="#0B4B3A" transform="translate(0,0)"/>
<path d="" fill="#0A4B3B" transform="translate(0,0)"/>
<path d="" fill="#074535" transform="translate(0,0)"/>
<path d="" fill="#0B4C3B" transform="translate(0,0)"/>
<path d="" fill="#0B4E3A" transform="translate(0,0)"/>
<path d="" fill="#0D4938" transform="translate(0,0)"/>
<path d="" fill="#074A39" transform="translate(0,0)"/>
<path d="" fill="#0B4536" transform="translate(0,0)"/>
<path d="" fill="#0C4737" transform="translate(0,0)"/>
<path d="" fill="#0B4837" transform="translate(0,0)"/>
<path d="" fill="#0C483A" transform="translate(0,0)"/>
<path d="" fill="#074737" transform="translate(0,0)"/>
<path d="" fill="#0D4836" transform="translate(0,0)"/>
<path d="" fill="#0B4637" transform="translate(0,0)"/>
<path d="" fill="#0D4D39" transform="translate(0,0)"/>
<path d="" fill="#094937" transform="translate(0,0)"/>
<path d="" fill="#094A38" transform="translate(0,0)"/>
<path d="" fill="#0B4939" transform="translate(0,0)"/>
<path d="" fill="#0B4B38" transform="translate(0,0)"/>
<path d="" fill="#0B4938" transform="translate(0,0)"/>
<path d="" fill="#0D4838" transform="translate(0,0)"/>
<path d="" fill="#0A4A3B" transform="translate(0,0)"/>
<path d="" fill="#0A4736" transform="translate(0,0)"/>
<path d="" fill="#0B4738" transform="translate(0,0)"/>
<path d="" fill="#084A38" transform="translate(0,0)"/>
<path d="" fill="#0B4B3C" transform="translate(0,0)"/>
<path d="" fill="#0B4C3C" transform="translate(0,0)"/>
<path d="" fill="#0B4939" transform="translate(0,0)"/>
<path d="" fill="#0B4838" transform="translate(0,0)"/>
<path d="" fill="#0B4635" transform="translate(0,0)"/>
<path d="" fill="#094837" transform="translate(0,0)"/>
<path d="" fill="#0D4337" transform="translate(0,0)"/>
<path d="" fill="#094B3B" transform="translate(0,0)"/>
<path d="" fill="#0E4C3A" transform="translate(0,0)"/>
<path d="" fill="#0C503E" transform="translate(0,0)"/>
<path d="" fill="#0F4938" transform="translate(0,0)"/>
<path d="" fill="#0C4B3A" transform="translate(0,0)"/>
<path d="" fill="#0D4B39" transform="translate(0,0)"/>
<path d="" fill="#0A4E3E" transform="translate(0,0)"/>
<path d="" fill="#0D4A39" transform="translate(0,0)"/>
<path d="" fill="#0E4B3A" transform="translate(0,0)"/>
<path d="" fill="#0A4C3A" transform="translate(0,0)"/>
<path d="" fill="#0C4D3E" transform="translate(0,0)"/>
<path d="" fill="#0C4C3A" transform="translate(0,0)"/>
<path d="" fill="#0D4C3C" transform="translate(0,0)"/>
<path d="" fill="#0C4B38" transform="translate(0,0)"/>
<path d="" fill="#0C4B3A" transform="translate(0,0)"/>
<path d="" fill="#0C4D3C" transform="translate(0,0)"/>
<path d="" fill="#0A4C3D" transform="translate(0,0)"/>
<path d="" fill="#0D4B3A" transform="translate(0,0)"/>
<path d="" fill="#0B4836" transform="translate(0,0)"/>
<path d="" fill="#0A4835" transform="translate(0,0)"/>
<path d="" fill="#0D4B3B" transform="translate(0,0)"/>
<path d="" fill="#0C4C3A" transform="translate(0,0)"/>
<path d="" fill="#0A4939" transform="translate(0,0)"/>
<path d="" fill="#0D4C3A" transform="translate(0,0)"/>
<path d="" fill="#0C4C3A" transform="translate(0,0)"/>
<path d="" fill="#0F4F3D" transform="translate(0,0)"/>
<path d="" fill="#074837" transform="translate(0,0)"/>
<path d="" fill="#094736" transform="translate(0,0)"/>
<path d="" fill="#0A4A38" transform="translate(0,0)"/>
<path d="" fill="#0D4E3C" transform="translate(0,0)"/>
<path d="" fill="#0C4A39" transform="translate(0,0)"/>
<path d="" fill="#094738" transform="translate(0,0)"/>
<path d="" fill="#0D4D3A" transform="translate(0,0)"/>
<path d="" fill="#0D4C3C" transform="translate(0,0)"/>
<path d="" fill="#0C4D39" transform="translate(0,0)"/>
<path d="" fill="#0E4E3C" transform="translate(0,0)"/>
<path d="" fill="#0C4938" transform="translate(0,0)"/>
<path d="" fill="#0A4838" transform="translate(0,0)"/>
<path d="" fill="#0E4D3B" transform="translate(0,0)"/>
<path d="" fill="#0C4838" transform="translate(0,0)"/>
<path d="" fill="#0B4838" transform="translate(0,0)"/>
<path d="" fill="#0B4635" transform="translate(0,0)"/>
<path d="" fill="#0B4838" transform="translate(0,0)"/>
<path d="" fill="#0D493A" transform="translate(0,0)"/>
<path d="" fill="#0C4C39" transform="translate(0,0)"/>
<path d="" fill="#0A4635" transform="translate(0,0)"/>
<path d="" fill="#0E4938" transform="translate(0,0)"/>
<path d="" fill="#0A4A3A" transform="translate(0,0)"/>
<path d="" fill="#0A4C38" transform="translate(0,0)"/>
<path d="" fill="#0D4B39" transform="translate(0,0)"/>
<path d="" fill="#0C4B39" transform="translate(0,0)"/>
<path d="" fill="#064335" transform="translate(0,0)"/>
<path d="" fill="#0B4939" transform="translate(0,0)"/>
<path d="" fill="#0D4E3B" transform="translate(0,0)"/>
<path d="" fill="#0A4939" transform="translate(0,0)"/>
<path d="" fill="#0B4D3A" transform="translate(0,0)"/>
<path d="" fill="#0B4938" transform="translate(0,0)"/>
<path d="" fill="#0B4B3A" transform="translate(0,0)"/>
<path d="" fill="#0F4D3B" transform="translate(0,0)"/>
<path d="" fill="#0D4D3A" transform="translate(0,0)"/>
<path d="" fill="#0C4C3A" transform="translate(0,0)"/>
</svg>
