<?xml version="1.0" standalone="no"?>
<!DOCTYPE svg PUBLIC "-//W3C//DTD SVG 20010904//EN"
 "http://www.w3.org/TR/2001/REC-SVG-20010904/DTD/svg10.dtd">
<svg version="1.0" xmlns="http://www.w3.org/2000/svg"
 width="1280.000000pt" height="960.000000pt" viewBox="0 0 1280.000000 960.000000"
 preserveAspectRatio="xMidYMid meet">

<g transform="translate(0.000000,960.000000) scale(0.100000,-0.100000)"
fill="#000000" stroke="none">
<path d="M58 9533 c-4 -62 -4 -126 0 -286 l2 -58 63 3 62 3 3 203 2 202 -64 0
-63 0 -5 -67z"/>
<path d="M400 9395 c0 -130 4 -205 10 -205 6 0 10 75 10 205 0 130 -4 205 -10
205 -6 0 -10 -75 -10 -205z"/>
<path d="M507 9478 c-10 -175 -9 -278 3 -278 6 0 10 73 10 200 0 110 -2 200
-3 200 -2 0 -7 -55 -10 -122z"/>
<path d="M1580 9395 l0 -205 65 0 65 0 0 205 0 205 -65 0 -65 0 0 -205z"/>
<path d="M1732 9398 c-1 -115 1 -208 6 -208 4 0 6 62 4 137 -4 255 -8 279 -10
71z"/>
<path d="M2600 9389 c0 -137 3 -208 10 -204 6 4 10 85 10 211 0 129 -4 204
-10 204 -6 0 -10 -77 -10 -211z"/>
<path d="M3240 9400 l0 -200 28 0 c15 0 44 -3 65 -6 l37 -7 0 207 0 206 -65 0
-65 0 0 -200z"/>
<path d="M3404 9395 c0 -115 2 -161 3 -102 2 59 2 154 0 210 -1 56 -3 8 -3
-108z"/>
<path d="M3732 9220 l-2 -385 1485 0 c983 0 1485 3 1485 10 0 6 -38 9 -100 7
l-100 -3 0 375 0 376 -195 0 -195 0 0 -375 0 -375 -110 0 -110 0 -1 378 c-1
239 -4 357 -10 322 -4 -30 -7 -200 -5 -377 l2 -323 -23 0 c-20 0 -23 5 -23 38
0 22 -3 81 -6 133 -4 66 -3 90 5 79 5 -8 13 -11 17 -7 4 3 1 14 -7 23 -12 14
-107 15 -1056 12 l-1043 -3 -3 240 c-2 175 -3 136 -5 -145z m43 -130 c-17 -7
-14 -9 15 -10 19 -1 27 -4 17 -7 -10 -3 -30 -2 -45 2 -20 5 -23 8 -11 16 7 5
21 8 29 8 10 0 8 -3 -5 -9z m724 -1 c294 1 538 4 544 8 6 3 8 2 4 -3 -3 -5
152 -8 379 -6 l384 3 0 -74 c0 -41 3 -95 6 -121 l7 -46 -989 0 -989 0 0 118 0
117 40 6 c22 3 49 4 60 1 11 -3 260 -4 554 -3z m-696 -82 c-1 -29 -2 -65 -2
-80 -1 -25 -3 -27 -22 -17 -11 7 -18 18 -15 25 3 8 1 17 -4 20 -6 4 -10 17
-10 31 0 14 4 22 10 19 6 -3 10 1 10 10 0 9 -4 13 -10 10 -6 -3 -7 1 -4 9 3 9
1 16 -6 16 -6 0 -9 4 -6 8 3 5 18 7 33 5 27 -4 28 -7 26 -56z m4 -153 c-3 -3
-12 -4 -19 -1 -8 3 -5 6 6 6 11 1 17 -2 13 -5z"/>
<path d="M4061 9498 c1 -57 5 -161 8 -233 7 -122 8 -116 9 103 1 149 -2 232
-8 232 -6 0 -10 -40 -9 -102z"/>
<path d="M4770 9375 c0 -193 2 -225 15 -225 13 0 15 32 15 225 0 193 -2 225
-15 225 -13 0 -15 -32 -15 -225z"/>
<path d="M5450 9377 c0 -208 3 -243 19 -233 10 7 1 456 -9 456 -6 0 -10 -87
-10 -223z"/>
<path d="M6683 9560 c0 -25 2 -35 4 -22 2 12 2 32 0 45 -2 12 -4 2 -4 -23z"/>
<path d="M6902 9218 l-2 -388 2952 0 c1623 0 2949 3 2946 6 -4 3 -1245 5
-2760 5 -1514 -1 -2837 2 -2940 5 l-188 7 0 148 0 149 2945 0 c2062 0 2945 3
2945 11 0 7 -130 10 -417 9 -230 -1 -1555 -2 -2945 -1 l-2528 1 -3 218 c-1
133 -3 67 -5 -170z"/>
<path d="M7132 9398 c3 -202 3 -203 26 -206 l22 -3 0 205 0 206 -25 0 -25 0 2
-202z"/>
<path d="M7230 9565 l0 -35 331 0 330 0 -4 33 c-2 24 -9 33 -25 35 -17 3 -22
-2 -22 -19 0 -21 -2 -22 -102 -16 -57 4 -190 7 -295 7 -165 0 -193 2 -193 15
0 8 -4 15 -10 15 -5 0 -10 -16 -10 -35z m123 -12 c-18 -2 -48 -2 -65 0 -18 2
-4 4 32 4 36 0 50 -2 33 -4z"/>
<path d="M7940 9395 c0 -176 2 -205 15 -205 13 0 15 28 15 189 0 104 -3 196
-6 205 -18 46 -24 -3 -24 -189z"/>
<path d="M8017 9478 c-11 -201 -9 -278 7 -278 11 0 16 19 20 73 2 39 8 91 11
115 10 63 -4 212 -19 212 -9 0 -15 -34 -19 -122z m30 -80 c-2 -24 -4 -5 -4 42
0 47 2 66 4 43 2 -24 2 -62 0 -85z m-20 -165 c-3 -10 -5 -2 -5 17 0 19 2 27 5
18 2 -10 2 -26 0 -35z"/>
<path d="M8106 9539 c-3 -34 -6 -127 -6 -206 l0 -144 88 3 87 3 3 40 c2 22 1
113 -3 203 l-7 162 -78 0 -77 0 -7 -61z"/>
<path d="M8558 9493 c-6 -133 3 -302 17 -306 6 -1 11 74 13 206 2 170 0 207
-11 207 -11 0 -15 -26 -19 -107z"/>
<path d="M8620 9395 c0 -130 4 -205 10 -205 6 0 10 75 10 205 0 130 -4 205
-10 205 -6 0 -10 -75 -10 -205z"/>
<path d="M9300 9395 c0 -198 1 -205 20 -205 19 0 20 6 19 208 0 125 -4 199 -9
187 -7 -17 -9 -17 -9 -2 -1 9 -5 17 -11 17 -6 0 -10 -75 -10 -205z"/>
<path d="M10630 9396 c0 -166 3 -205 14 -209 8 -3 17 -3 20 0 3 4 6 98 6 210
0 196 -1 203 -20 203 -19 0 -20 -7 -20 -204z"/>
<path d="M10680 9395 c0 -130 4 -205 10 -205 6 0 10 75 10 205 0 130 -4 205
-10 205 -6 0 -10 -75 -10 -205z"/>
<path d="M11500 9426 c0 -95 3 -188 6 -205 l7 -31 103 0 104 0 0 83 c0 46 -3
139 -7 205 l-6 122 -104 0 -103 0 0 -174z"/>
<path d="M11797 9408 c3 -106 6 -199 8 -205 3 -9 32 -13 100 -13 l95 0 -3 159
c-1 88 1 162 4 165 9 9 185 45 257 52 l62 7 0 -192 0 -191 35 0 35 0 0 205 0
205 -299 0 -298 0 4 -192z"/>
<path d="M7543 9583 c15 -2 39 -2 55 0 15 2 2 4 -28 4 -30 0 -43 -2 -27 -4z"/>
<path d="M3524 9460 c0 -58 1 -81 3 -52 2 28 2 76 0 105 -2 28 -3 5 -3 -53z"/>
<path d="M3832 9298 l-2 -148 64 0 c36 0 67 3 69 8 3 4 -24 5 -59 4 l-63 -4
-4 144 -3 143 -2 -147z"/>
<path d="M6694 9200 c0 -91 2 -128 3 -82 2 45 2 119 0 165 -1 45 -3 8 -3 -83z"/>
<path d="M3520 9225 l0 -55 -1760 0 c-1167 0 -1760 -3 -1760 -10 0 -7 593 -10
1760 -10 l1760 0 0 -150 0 -150 -322 -1 c-178 -1 -967 -2 -1755 -3 -787 0
-1435 -4 -1439 -8 -4 -5 785 -8 1754 -8 1668 0 1761 -1 1765 -17 3 -10 5 91 6
225 0 133 -1 242 -4 242 -3 0 -5 -25 -5 -55z"/>
<path d="M5502 9260 c0 -14 2 -19 5 -12 2 6 2 18 0 25 -3 6 -5 1 -5 -13z"/>
<path d="M5830 9060 c0 -5 5 -10 10 -10 6 0 10 5 10 10 0 6 -4 10 -10 10 -5 0
-10 -4 -10 -10z"/>
<path d="M5838 8968 c5 -114 9 -122 11 -20 0 50 -3 92 -7 92 -4 0 -6 -33 -4
-72z"/>
<path d="M6903 7873 l-1 -933 456 2 c392 2 412 3 140 5 l-318 3 0 225 0 225
315 0 c203 0 315 4 315 10 0 6 -117 10 -330 10 -301 0 -331 -2 -337 -17 -4 -9
-2 -18 3 -20 5 -2 6 -45 3 -105 -4 -57 -7 -154 -8 -216 l-1 -113 -77 3 -78 3
0 233 c0 201 -2 232 -15 231 -48 -4 -50 -2 -50 71 l0 70 129 0 130 0 0 123 c0
67 0 130 1 140 0 16 8 18 68 15 l67 -3 3 -137 3 -138 244 0 245 0 0 160 c0 88
-1 163 -2 166 -2 4 -172 6 -378 5 l-375 -2 -2 103 c-1 57 -5 129 -8 161 l-6
57 1780 0 c1682 0 1781 -1 1788 -18 4 -9 7 -153 5 -319 l-3 -303 -214 0 c-118
0 -216 3 -216 8 -1 4 -3 79 -4 167 -2 88 -4 162 -4 165 -1 3 -397 4 -881 2
-692 -2 -880 -5 -880 -15 0 -6 -2 -85 -3 -175 l-2 -162 1228 0 c811 0 1227 3
1227 10 0 6 -14 10 -31 10 l-30 0 20 29 c11 15 18 31 15 33 -8 9 57 99 67 93
5 -4 9 -19 9 -36 l0 -29 99 1 98 1 7 105 c3 59 6 157 6 218 0 94 3 114 16 119
9 3 387 6 840 6 l824 0 0 220 0 220 -2945 0 -2944 0 -4 123 c-2 67 -4 -298 -4
-810z m225 -171 c2 -113 0 -132 -13 -132 -13 0 -15 21 -15 136 0 104 3 135 13
132 8 -3 13 -42 15 -136z m222 -107 c0 -7 6 -16 13 -18 7 -4 6 -6 -4 -6 -9 -1
-20 6 -23 15 -9 23 -7 36 4 29 6 -3 10 -12 10 -20z"/>
<path d="M5213 8563 l-1483 -3 0 -815 0 -815 510 0 510 0 0 73 0 72 35 0 35 1
0 -68 c0 -67 0 -68 -25 -64 -14 3 -25 0 -25 -5 0 -5 151 -9 379 -9 353 0 380
1 384 18 4 15 5 14 8 -3 1 -11 5 16 8 60 l6 80 30 2 c17 0 36 2 43 2 22 2 13
31 -10 31 -19 0 -20 -2 -8 -10 13 -8 12 -10 -2 -10 -10 0 -18 4 -18 10 0 5 -7
7 -15 4 -24 -9 -18 22 8 39 19 14 20 18 7 27 -13 10 -13 11 0 7 8 -2 14 -12
14 -21 -1 -9 2 -16 7 -16 5 0 9 30 9 66 l0 65 -745 -2 c-410 -1 -749 1 -752 5
-3 3 0 12 7 21 7 8 9 15 4 15 -5 0 -6 72 -3 162 4 90 7 243 8 341 l1 177 948
2 c521 2 1097 3 1280 3 l332 0 0 283 c0 155 -1 281 -2 280 -2 -2 -670 -4
-1485 -5z m-290 -20 c-24 -2 -62 -2 -85 0 -24 2 -5 4 42 4 47 0 66 -2 43 -4z
m1766 -47 l-2 -56 -466 2 -466 3 395 5 395 5 -395 5 c-217 3 -420 4 -450 4
l-55 -1 40 13 c38 12 35 13 -63 13 -66 1 -101 -3 -97 -9 3 -5 1 -10 -4 -10 -6
0 -11 6 -11 13 0 9 -3 8 -9 -2 -5 -7 -14 -10 -20 -6 -7 4 -19 4 -27 1 -9 -3
-86 -7 -172 -9 -86 -2 -122 -2 -79 0 42 2 77 8 77 13 0 10 -147 15 -365 13
l-120 -1 114 8 c151 12 160 18 26 18 -119 0 -328 -14 -256 -16 24 -1 42 -5 38
-8 -3 -3 -41 -2 -84 2 l-78 8 55 9 c30 5 296 9 590 10 294 0 497 3 450 6 l-85
5 120 6 c66 3 319 6 563 8 l443 3 -2 -55z m-2066 37 c-13 -2 -33 -2 -45 0 -13
2 -3 4 22 4 25 0 35 -2 23 -4z m-718 -77 c11 -2 -22 -4 -72 -4 -51 1 -93 4
-93 7 0 6 124 4 165 -3z m1768 -13 c-7 -2 -19 -2 -25 0 -7 3 -2 5 12 5 14 0
19 -2 13 -5z m-1585 -1150 c-15 -2 -42 -2 -60 0 -18 2 -6 4 27 4 33 0 48 -2
33 -4z m1210 -30 c-49 -2 -127 -2 -175 0 -49 1 -9 3 87 3 96 0 136 -2 88 -3z
m169 1 c-3 -3 -12 -4 -19 -1 -8 3 -5 6 6 6 11 1 17 -2 13 -5z m50 -20 c-3 -3
-12 -4 -19 -1 -8 3 -5 6 6 6 11 1 17 -2 13 -5z m-700 -46 c-3 -8 -6 -5 -6 6
-1 11 2 17 5 13 3 -3 4 -12 1 -19z m-60 -20 c-3 -8 -6 -5 -6 6 -1 11 2 17 5
13 3 -3 4 -12 1 -19z m63 -48 c0 -16 -5 -30 -11 -30 -5 0 -7 5 -4 10 9 14 -8
12 -24 -2 -12 -11 -13 -9 -7 7 6 20 6 20 -9 1 -14 -19 -15 -19 -15 6 0 25 2
26 30 18 16 -5 29 -5 29 -2 -2 12 1 22 6 22 3 0 5 -13 5 -30z"/>
<path d="M5768 8523 c6 -2 18 -2 25 0 6 3 1 5 -13 5 -14 0 -19 -2 -12 -5z"/>
<path d="M5058 8503 c12 -2 32 -2 45 0 12 2 2 4 -23 4 -25 0 -35 -2 -22 -4z"/>
<path d="M5313 8503 c64 -2 170 -2 235 0 64 1 11 3 -118 3 -129 0 -182 -2
-117 -3z"/>
<path d="M5708 8503 c18 -2 45 -2 60 0 15 2 0 4 -33 4 -33 0 -45 -2 -27 -4z"/>
<path d="M5848 8503 c7 -3 16 -2 19 1 4 3 -2 6 -13 5 -11 0 -14 -3 -6 -6z"/>
<path d="M5760 8480 c0 -5 21 -9 48 -9 42 1 44 2 17 9 -44 11 -65 11 -65 0z"/>
<path d="M0 8385 l0 -175 1578 0 c869 0 1661 -3 1760 -7 l182 -6 -2 -261 c-1
-144 -3 -238 -5 -211 -10 160 -14 177 -48 211 -19 18 -30 36 -27 40 4 4 1 4
-6 0 -7 -4 -167 -10 -355 -12 l-342 -4 -6 -192 c-4 -106 -5 -195 -3 -197 2 -3
572 -4 752 -2 l52 1 0 495 0 495 -1765 0 -1765 0 0 -175z m3447 -687 c-2 -29
-3 -8 -3 47 0 55 1 79 3 53 2 -26 2 -71 0 -100z m40 80 c-2 -13 -4 -3 -4 22 0
25 2 35 4 23 2 -13 2 -33 0 -45z"/>
<path d="M521 7985 c-1 -9 -55 -11 -408 -14 l-113 -1 0 -200 0 -200 99 0 c55
0 106 -3 115 -6 14 -5 16 16 16 195 l0 201 40 0 40 0 2 -197 3 -198 103 -1
102 0 0 199 c0 194 0 199 20 194 11 -3 20 -1 20 4 0 5 -6 9 -14 9 -8 0 -17 6
-19 13 -3 6 -6 8 -6 2z"/>
<path d="M994 7929 c-2 -3 -4 -86 -4 -185 l-2 -179 701 -3 701 -2 5 23 c4 13
5 97 3 188 l-3 164 -698 0 c-385 0 -701 -3 -703 -6z"/>
<path d="M554 7760 c0 -91 2 -128 3 -82 2 45 2 119 0 165 -1 45 -3 8 -3 -83z"/>
<path d="M10338 7583 c12 -2 32 -2 45 0 12 2 2 4 -23 4 -25 0 -35 -2 -22 -4z"/>
<path d="M10880 7570 c0 -5 5 -10 11 -10 5 0 7 5 4 10 -3 6 -8 10 -11 10 -2 0
-4 -4 -4 -10z"/>
<path d="M0 7491 l0 -39 115 -1 115 -1 0 40 0 40 -115 0 -115 0 0 -39z"/>
<path d="M310 7495 c0 -39 -12 -36 137 -39 l73 -1 0 38 0 37 -105 0 -105 0 0
-35z"/>
<path d="M559 7528 c0 -2 -2 -15 -3 -30 l-2 -28 223 0 223 0 0 -260 0 -260
-227 -3 c-126 -1 204 -3 732 -5 l960 -2 -5 254 c-3 140 -7 257 -10 259 -3 3
-4 -109 -2 -249 l3 -254 -37 0 -37 0 5 262 c4 171 9 263 16 266 6 2 8 10 5 18
-8 21 11 17 32 -6 17 -19 29 -21 115 -18 59 2 97 7 97 13 0 7 -18 9 -51 4 -28
-4 -67 -7 -86 -7 -19 0 6 6 55 13 50 7 106 13 125 13 l35 0 -30 -8 -30 -8 28
-1 c16 0 26 -5 22 -10 -3 -5 -1 -12 5 -16 5 -3 10 -22 10 -41 0 -32 2 -34 35
-34 l35 0 0 -219 0 -220 -52 -4 c-29 -2 135 -4 365 -5 229 -1 417 1 417 6 0 4
-18 6 -40 4 l-40 -4 0 236 0 236 -355 0 c-350 0 -355 0 -355 20 0 20 4 21 352
20 390 -2 354 -7 349 54 -1 12 -217 14 -1441 15 -792 1 -1440 0 -1441 -1z
m1915 -33 c-4 -8 -11 -15 -16 -15 -6 0 -5 6 2 15 7 8 14 15 16 15 2 0 1 -7 -2
-15z m-878 -32 c-5 -15 -3 -14 10 2 11 14 18 16 21 8 3 -7 9 -13 14 -13 6 0 7
5 4 10 -3 6 0 10 7 10 10 0 13 -49 14 -238 0 -130 4 -249 7 -264 l6 -28 -335
0 -334 0 0 123 c0 182 12 377 23 377 5 0 6 -12 3 -26 -6 -22 -5 -24 8 -12 7 7
11 17 9 22 -3 5 0 6 8 4 8 -3 13 -13 12 -22 0 -12 4 -15 14 -12 8 3 19 6 24 6
5 0 9 9 9 20 0 18 7 20 83 22 l82 2 -78 3 c-44 2 -84 -1 -91 -6 -11 -10 -80 0
-93 13 -4 3 107 6 245 6 161 0 252 -4 252 -10 0 -5 12 -9 28 -9 17 1 20 3 9 6
-25 6 -11 23 20 23 20 0 24 -4 19 -17z m724 7 c0 -5 5 -10 11 -10 5 0 7 5 4
10 -3 6 4 10 17 10 19 0 20 -2 8 -11 -11 -8 -12 -12 -2 -16 9 -3 12 -64 12
-254 l0 -249 -322 0 -323 0 3 265 3 265 294 0 c190 0 295 -4 295 -10z m625
-91 c-17 -8 -16 -8 5 -3 14 3 123 8 242 11 197 4 217 2 220 -13 2 -9 2 -109 0
-221 l-3 -203 -297 2 -297 3 -2 218 -1 217 76 -1 c57 0 72 -3 57 -10z"/>
<path d="M1393 7453 c9 -2 25 -2 35 0 9 3 1 5 -18 5 -19 0 -27 -2 -17 -5z"/>
<path d="M1610 7410 c0 -5 5 -10 10 -10 6 0 10 5 10 10 0 6 -4 10 -10 10 -5 0
-10 -4 -10 -10z"/>
<path d="M1120 7386 c0 -8 6 -18 13 -23 16 -10 57 -12 62 -3 3 4 -9 6 -25 5
-17 -1 -33 1 -36 6 -3 5 29 9 70 9 44 0 76 4 76 10 0 6 -33 10 -80 10 -63 0
-80 -3 -80 -14z"/>
<path d="M1610 7370 c0 -5 -8 -10 -17 -10 -12 0 -14 -3 -6 -8 6 -4 13 -23 16
-42 4 -33 4 -33 5 8 1 23 7 42 12 42 6 0 11 -19 11 -42 2 -33 3 -36 6 -14 6
35 -4 76 -17 76 -6 0 -10 -4 -10 -10z"/>
<path d="M1033 7120 c0 -47 2 -66 4 -42 2 23 2 61 0 85 -2 23 -4 4 -4 -43z"/>
<path d="M1978 7443 c7 -3 16 -2 19 1 4 3 -2 6 -13 5 -11 0 -14 -3 -6 -6z"/>
<path d="M2352 7420 c0 -14 2 -19 5 -12 2 6 2 18 0 25 -3 6 -5 1 -5 -13z"/>
<path d="M3519 7513 c-2 -10 -2 -85 1 -168 l6 -150 2 168 c2 156 0 192 -9 150z"/>
<path d="M7053 7522 l-103 -3 0 -35 0 -35 77 3 c72 3 76 4 80 27 4 30 8 35 22
26 15 -9 14 -42 -1 -48 -7 -3 1 -6 18 -6 29 -1 32 2 36 33 5 42 5 42 -129 38z"/>
<path d="M7318 7500 c2 -16 9 -30 16 -30 6 0 4 -5 -4 -10 -10 -7 59 -9 215 -7
142 3 180 2 100 -2 l-130 -6 145 -5 c80 -3 147 -2 148 3 2 4 11 7 20 7 15 1
15 2 0 11 -20 11 -25 49 -6 49 6 0 9 2 7 5 -3 2 -120 7 -260 10 l-256 5 5 -30z
m207 -1 c4 -6 17 -14 29 -19 19 -8 19 -9 -6 -9 -18 -1 -28 4 -28 13 0 8 -8 17
-17 19 -16 4 -16 5 -1 6 9 0 20 -4 23 -10z m233 4 c-21 -2 -55 -2 -75 0 -21 2
-4 4 37 4 41 0 58 -2 38 -4z m-253 -23 c3 -5 -1 -10 -9 -10 -9 0 -16 5 -16 10
0 6 4 10 9 10 6 0 13 -4 16 -10z m165 0 c0 -5 -15 -9 -32 -9 l-33 1 30 8 c17
4 31 8 33 9 1 0 2 -3 2 -9z m116 2 c-3 -5 -29 -9 -58 -9 l-53 -1 45 8 c67 11
72 11 66 2z"/>
<path d="M8125 7521 l-290 -6 289 -3 288 -2 -4 -35 c-2 -19 0 -35 4 -35 4 0 8
-112 8 -250 l0 -250 878 0 877 0 -3 230 -3 230 158 1 c178 1 196 0 203 -12 3
-4 24 -11 47 -15 39 -6 42 -9 46 -43 l4 -36 1 40 2 40 43 -3 c37 -3 44 0 56
21 18 34 7 47 -40 47 -48 0 -52 -15 -4 -16 67 -1 58 -34 -9 -34 l-44 0 2 65
c2 63 -5 82 -18 49 -3 -9 -6 -24 -6 -35 0 -18 -10 -19 -219 -19 l-220 0 6 35
6 35 -639 0 c-352 0 -749 2 -884 4 -135 1 -375 0 -535 -3z m445 -57 c-36 -8
-100 -9 -100 -2 0 5 26 7 58 7 31 -1 50 -3 42 -5z m156 -2 c-6 -10 -72 -9 -82
1 -4 4 14 7 40 7 26 0 45 -4 42 -8z m144 4 c0 -11 -19 -15 -25 -6 -3 5 1 10 9
10 9 0 16 -2 16 -4z m310 -12 c0 -7 -6 -11 -13 -8 -11 4 -12 -8 -4 -63 5 -37
7 -124 4 -193 -5 -134 1 -230 13 -230 5 0 8 17 7 38 -1 20 0 135 1 255 l2 217
233 -1 c139 0 224 -4 212 -9 -15 -7 -16 -9 -4 -9 14 -1 17 -16 19 -98 1 -54 5
-167 8 -251 l7 -152 -602 0 c-569 0 -602 1 -596 18 5 14 3 13 -11 -3 -16 -19
-16 -7 -14 197 2 119 6 214 11 211 4 -2 7 -42 7 -88 0 -73 2 -84 16 -78 15 6
16 58 1 196 l-4 37 44 0 c37 0 43 -3 43 -21 0 -19 -5 -21 -40 -17 -43 4 -49
-5 -25 -36 11 -14 15 -16 15 -5 0 12 2 12 10 -1 9 -13 10 -13 10 0 0 13 1 13
10 0 9 -13 10 -13 10 0 0 13 1 13 10 0 9 -13 10 -13 10 0 0 13 1 13 10 0 8
-12 10 -9 10 13 0 15 -4 27 -10 27 -5 0 -10 9 -10 20 0 16 7 20 30 20 23 0 30
-5 30 -19 0 -11 -5 -21 -11 -23 -7 -2 -9 -13 -5 -26 9 -26 26 -20 26 9 0 18 8
19 120 19 l120 0 0 -60 0 -60 -40 0 c-29 0 -40 -4 -40 -15 0 -11 11 -15 40
-15 l40 0 0 -147 c0 -80 2 -144 5 -142 2 3 5 116 6 251 0 136 3 249 7 252 3 4
68 6 144 5 110 -1 138 -4 138 -15z m962 -244 l-3 -260 -210 0 -211 0 3 248 c2
136 5 253 7 260 3 9 54 12 211 12 l206 0 -3 -260z m-1262 220 c0 -6 -47 -10
-120 -10 -73 0 -120 4 -120 10 0 6 47 10 120 10 73 0 120 -4 120 -10z"/>
<path d="M9538 7453 c12 -2 32 -2 45 0 12 2 2 4 -23 4 -25 0 -35 -2 -22 -4z"/>
<path d="M9130 7406 c0 -25 5 -46 10 -46 6 0 10 18 10 39 0 22 -4 43 -10 46
-6 4 -10 -12 -10 -39z"/>
<path d="M9090 7280 c0 -64 3 -80 15 -80 12 0 15 16 15 80 0 64 -3 80 -15 80
-12 0 -15 -16 -15 -80z"/>
<path d="M10122 7415 c0 -16 2 -22 5 -12 2 9 2 23 0 30 -3 6 -5 -1 -5 -18z"/>
<path d="M10863 7447 c-1 -39 0 -83 4 -97 l6 -25 7 25 c8 29 1 170 -9 170 -3
0 -7 -33 -8 -73z"/>
<path d="M7121 7484 c0 -11 3 -14 6 -6 3 7 2 16 -1 19 -3 4 -6 -2 -5 -13z"/>
<path d="M10950 7449 c-48 -55 -50 -59 -12 -24 28 25 60 66 50 65 -2 -1 -19
-19 -38 -41z"/>
<path d="M8258 7453 c12 -2 32 -2 45 0 12 2 2 4 -23 4 -25 0 -35 -2 -22 -4z"/>
<path d="M0 7405 c0 -12 15 -15 68 -17 l67 -2 -70 -6 c-38 -4 -64 -8 -57 -9 6
-2 17 -5 22 -6 6 -1 19 -3 30 -4 11 0 20 -8 20 -16 0 -8 4 -15 10 -15 5 0 12
-11 16 -25 3 -14 10 -25 15 -25 5 0 9 -24 9 -54 0 -35 5 -60 15 -70 20 -19 19
-34 -2 -38 -15 -3 -15 -4 0 -17 15 -12 17 -11 17 3 0 9 7 16 15 16 11 0 15
-11 15 -40 0 -29 -4 -40 -15 -40 -8 0 -15 -4 -15 -9 0 -5 37 -13 83 -17 77 -8
80 -9 37 -15 -37 -5 -30 -6 38 -7 65 -2 82 -5 82 -17 0 -11 13 -16 48 -17 26
-1 -65 -5 -203 -8 l-250 -6 275 -1 c151 -1 269 1 263 4 -10 3 -13 61 -13 239
l0 234 -260 0 c-224 0 -260 -2 -260 -15z m507 -67 c0 -60 0 -60 -6 -18 -6 37
-8 41 -13 20 -4 -16 -5 -10 -4 17 2 70 23 52 23 -19z m-194 45 c-7 -2 -21 -2
-30 0 -10 3 -4 5 12 5 17 0 24 -2 18 -5z m174 -375 c-3 -7 -5 -2 -5 12 0 14 2
19 5 13 2 -7 2 -19 0 -25z"/>
<path d="M7043 7413 c9 -2 23 -2 30 0 6 3 -1 5 -18 5 -16 0 -22 -2 -12 -5z"/>
<path d="M10778 7373 c7 -3 16 -2 19 1 4 3 -2 6 -13 5 -11 0 -14 -3 -6 -6z"/>
<path d="M5758 7313 c45 -2 119 -2 165 0 45 1 8 3 -83 3 -91 0 -128 -2 -82 -3z"/>
<path d="M6213 7313 c81 -2 213 -2 295 0 81 1 14 3 -148 3 -162 0 -229 -2
-147 -3z"/>
<path d="M7004 7220 c0 -58 1 -81 3 -52 2 28 2 76 0 105 -2 28 -3 5 -3 -53z"/>
<path d="M11091 7263 c-5 -10 -28 -63 -50 -117 -23 -55 -45 -104 -50 -110 -5
-6 -12 -26 -16 -44 -3 -17 -21 -53 -39 -80 l-33 -47 90 4 c109 4 152 -8 195
-52 62 -64 60 -32 64 -1466 l3 -1293 -44 6 c-24 3 -126 6 -227 6 l-184 0 0
109 c0 94 2 110 18 116 9 3 87 17 173 30 200 30 248 53 249 120 0 20 -10 42
-28 62 -90 98 -215 102 -867 28 -347 -40 -544 -61 -685 -75 -120 -12 -543 -56
-720 -75 -161 -18 -478 -49 -1110 -110 -256 -25 -541 -54 -635 -65 -93 -11
-404 -45 -690 -75 -286 -30 -626 -67 -755 -81 -500 -54 -798 -86 -1125 -119
-357 -36 -424 -44 -700 -76 -93 -11 -178 -21 -188 -22 -18 -2 -19 -14 -18
-185 1 -101 -1 -246 -5 -322 l-7 -138 -81 2 -81 1 -3 308 c-2 284 -4 307 -20
307 -9 0 -98 -12 -197 -25 -337 -47 -560 -75 -840 -105 -330 -35 -601 -74
-647 -93 -18 -8 -46 -26 -63 -41 -16 -14 -38 -29 -47 -32 -10 -3 -18 -15 -19
-27 0 -12 -2 -32 -5 -43 -2 -12 0 -74 4 -138 l7 -116 -113 0 c-111 0 -112 0
-108 23 21 96 26 135 25 185 -1 55 -2 54 -15 -33 -7 -49 -15 -109 -19 -133
l-6 -42 -207 2 -207 3 -3 105 c-2 58 0 133 3 168 l7 62 225 0 225 0 -4 -35
c-2 -19 0 -35 4 -35 4 0 8 9 8 21 0 13 10 23 30 30 29 11 29 11 32 97 l3 87
60 6 60 6 -52 1 c-28 1 -58 5 -67 8 -14 5 -16 -6 -16 -83 l0 -89 -30 -2 -30
-2 0 90 0 90 -357 -6 c-211 -4 -361 -11 -364 -17 -4 -5 -9 -3 -11 4 -4 11 -77
15 -396 17 -348 3 -392 2 -392 -12 0 -13 22 -16 143 -18 l142 -3 5 -85 c4 -61
7 -79 13 -62 5 12 8 39 7 60 -1 20 -2 50 -1 66 l1 28 198 -3 c108 -2 203 0
211 5 10 6 12 5 7 -2 -9 -16 295 -17 310 -2 7 7 11 5 12 -7 3 -30 1 -477 -1
-480 -9 -8 -155 -12 -577 -15 -346 -2 -211 -4 495 -8 534 -3 3416 -3 6405 0
3682 4 4801 7 3470 10 -1081 2 -1880 6 -1777 7 l188 3 -3 245 -3 245 190 -2
190 -3 6 -85 6 -85 0 86 c0 48 3 91 7 97 4 6 19 7 43 1 21 -5 83 -9 138 -11
55 -1 81 -3 58 -5 -43 -4 -43 -4 -43 -44 0 -39 0 -39 40 -39 l40 0 1 -72 c0
-40 4 -95 9 -123 l7 -50 2 43 c0 23 6 42 11 42 6 0 10 47 10 120 0 160 -18
158 -23 -2 l-3 -123 -2 128 c-2 121 -1 127 18 127 19 0 20 -7 20 -245 0 -157
4 -245 10 -245 6 0 10 33 10 78 l0 78 38 -2 c20 -1 40 -2 45 -3 4 -1 7 -17 7
-36 0 -34 1 -35 40 -35 l40 0 0 40 0 40 45 0 45 0 0 40 c0 39 1 40 35 40 34 0
35 1 35 40 l0 40 40 0 40 0 0 -40 0 -40 40 0 40 0 0 40 c0 39 -8 47 -42 41 -5
0 -8 33 -8 74 0 53 4 75 13 76 6 1 -6 5 -28 9 -28 5 -7 7 69 8 114 1 134 7
118 38 -5 12 -6 32 0 52 l9 33 84 -3 c84 -2 84 -2 78 -26 -4 -17 -2 -23 6 -18
6 4 11 2 11 -3 0 -6 -7 -11 -15 -11 -8 0 -19 -9 -25 -20 -11 -20 -5 -25 28
-21 9 1 12 -28 12 -116 l0 -118 60 2 c61 1 79 -7 63 -30 -4 -7 3 1 17 17 14
17 59 69 100 117 41 47 100 116 130 152 30 36 60 66 66 66 7 1 14 34 19 84 4
45 10 76 13 68 3 -8 12 3 24 29 17 37 18 49 9 79 -8 25 -11 156 -9 441 l3 405
35 6 35 6 -40 3 c-22 1 -43 2 -47 1 -5 0 -8 48 -8 108 0 90 3 110 16 115 9 3
356 7 772 8 l757 3 -755 5 c-415 3 -756 6 -757 8 -5 7 -3 335 3 356 l6 26 749
0 c707 0 749 1 749 18 0 16 -41 17 -745 14 -660 -2 -747 -1 -761 13 -9 8 -14
16 -12 17 2 2 345 5 763 8 l760 5 -752 3 c-692 2 -752 3 -755 19 -2 9 -2 148
0 310 l3 293 293 0 c161 0 368 3 459 7 143 5 167 8 167 22 0 11 -3 12 -8 4 -6
-9 -121 -12 -457 -14 -447 -1 -450 -1 -453 19 -2 11 -11 23 -20 25 -14 4 -14
5 -1 6 13 1 15 22 12 169 -4 195 -11 272 -24 272 -5 0 -9 55 -9 125 l0 125 55
0 55 0 0 -335 0 -335 353 -1 c193 -1 364 -3 378 -4 14 -2 30 0 37 4 8 5 12 89
14 296 l3 290 45 0 45 0 5 -225 6 -225 2 223 2 222 38 0 37 0 -3 -290 -3 -290
238 1 c142 0 230 4 218 9 -17 7 -17 9 -2 9 16 1 17 30 17 461 l0 460 -850 0
c-799 0 -850 -1 -859 -17z m176 -2445 c-2 -13 -4 -5 -4 17 -1 22 1 32 4 23 2
-10 2 -28 0 -40z m0 -245 c-2 -16 -4 -5 -4 22 0 28 2 40 4 28 2 -13 2 -35 0
-50z m-488 -400 c-1 -67 -4 -88 -9 -68 -4 17 -8 23 -9 15 0 -8 -10 -21 -21
-28 -17 -10 -20 -10 -20 3 0 9 7 18 15 21 11 5 15 22 15 70 0 54 -3 64 -17 65
-15 0 -15 2 2 9 43 19 45 15 44 -87z m-62 37 c3 -33 2 -34 -14 -17 -16 16 -16
19 -3 27 13 9 13 11 0 21 -13 9 -13 10 0 6 8 -2 16 -18 17 -37z m-53 5 c-21
-16 -34 -19 -34 -7 0 8 42 30 49 25 3 -2 -4 -10 -15 -18z m65 -79 c-9 -8 -10
-7 -5 7 3 10 7 37 8 60 2 41 2 41 5 -7 3 -30 0 -53 -8 -60z m-115 40 c-3 -9
-12 -16 -20 -16 -11 0 -10 4 4 18 20 22 25 21 16 -2z m76 5 c0 -5 8 -11 18
-13 9 -2 -4 -4 -31 -4 -40 1 -45 3 -30 14 20 14 43 16 43 3z m-135 -65 c0 -13
-2 -27 -5 -30 -5 -4 -6 43 -1 52 4 8 7 -1 6 -22z m-30 -46 c-3 -5 -10 -10 -16
-10 -5 0 -9 5 -9 10 0 6 7 10 16 10 8 0 12 -4 9 -10z m133 -4 c-7 -8 -15 -12
-17 -11 -5 6 10 25 20 25 5 0 4 -6 -3 -14z m12 -31 c-13 -14 -26 -23 -28 -20
-3 3 5 16 18 30 13 14 26 23 28 20 3 -3 -5 -16 -18 -30z m110 -70 l0 -104 57
-3 c42 -2 59 -7 61 -18 2 -13 -211 -15 -1883 -12 -1536 2 -1885 0 -1885 -10 0
-7 -3 -63 -6 -124 -4 -96 -3 -112 11 -118 9 -3 15 -15 14 -28 -1 -13 -1 -97
-1 -187 2 -174 16 -216 18 -53 1 119 8 262 12 262 1 0 6 -8 10 -17 6 -15 15
-17 52 -12 43 5 44 6 20 16 -20 9 4 12 119 12 114 1 142 -2 138 -12 -4 -10 3
-12 25 -9 18 3 25 7 18 12 -8 5 -4 9 12 13 12 4 25 2 26 -3 5 -13 52 -13 52 0
0 6 7 10 15 10 8 0 15 -4 15 -10 0 -5 10 -10 23 -10 16 0 18 3 9 9 -8 5 38 10
113 13 75 3 131 10 137 16 7 7 37 12 67 12 65 0 73 4 92 45 l14 30 185 2 c113
2 193 7 207 14 12 7 34 9 50 5 26 -7 55 -9 196 -14 l57 -2 0 -244 c0 -186 3
-246 13 -249 6 -3 -405 -6 -915 -6 l-928 -1 -1 28 c-1 15 -5 95 -9 177 l-7
150 1 -175 1 -175 -1462 -2 c-956 -2 -1464 1 -1468 7 -12 20 6 45 51 72 25 16
56 31 70 34 20 5 23 9 12 16 -9 7 -2 8 20 4 18 -3 31 -2 28 2 -2 4 21 6 52 4
44 -2 53 0 42 8 -12 9 -11 10 8 5 19 -6 244 7 352 20 19 3 148 15 287 27 139
12 250 24 247 27 -10 10 -41 10 -90 0 -41 -9 -69 -8 -140 5 -57 10 -122 14
-181 12 l-93 -4 0 164 c0 155 1 164 19 164 11 0 27 3 37 7 14 5 9 9 -22 19
-38 12 -37 12 44 13 76 1 82 -1 82 -19 0 -11 6 -20 14 -20 19 0 33 23 18 28
-23 7 -11 22 18 22 17 0 30 4 30 9 0 5 39 12 88 15 48 4 105 8 127 10 l40 3
-2 -46 c-1 -30 3 -19 11 34 13 77 13 71 15 -174 1 -226 3 -252 17 -247 9 3 25
6 37 7 20 1 20 2 -3 8 l-25 7 -3 210 -2 211 27 -4 c16 -3 100 5 188 16 88 12
188 21 222 21 34 0 63 5 65 10 2 6 86 15 201 22 108 7 197 15 197 20 0 4 30 8
68 8 37 0 114 7 172 15 58 8 135 15 173 15 37 0 67 4 67 9 0 5 54 12 120 16
66 4 120 11 120 15 0 4 20 10 45 12 l44 3 3 -218 c2 -121 -1 -221 -5 -224 -16
-10 -87 9 -87 23 0 10 -12 14 -40 14 -29 0 -40 -4 -40 -15 0 -10 11 -15 38
-16 20 -1 48 -5 62 -10 15 -5 -7 -5 -55 -1 -95 8 -192 5 -214 -8 -11 -6 -2 -7
24 -4 22 3 58 1 80 -4 31 -7 17 -8 -63 -6 -57 1 -106 5 -109 8 -4 3 4 6 17 6
13 0 21 3 17 6 -7 8 -110 -17 -118 -29 -3 -4 -39 -11 -80 -14 -41 -3 -77 -10
-80 -15 -3 -4 -59 -10 -125 -13 -65 -2 -177 -10 -249 -17 -71 -6 -160 -12
-196 -12 -56 -1 -63 -3 -49 -13 17 -12 138 -6 270 12 19 3 64 7 100 10 165 12
344 26 445 36 255 23 344 30 415 34 41 2 77 4 80 4 3 1 4 48 2 105 -3 62 0
111 6 122 8 14 9 -4 5 -68 -4 -62 -2 -92 6 -102 7 -8 10 -20 6 -26 -3 -5 -1
-10 4 -10 6 0 11 21 11 50 0 28 5 50 10 50 6 0 10 7 10 15 0 23 -17 18 -25 -7
-4 -15 -8 -19 -12 -10 -3 8 0 19 6 25 6 6 11 17 11 25 0 21 27 45 33 29 3 -6
6 7 6 31 1 35 4 42 22 42 11 0 17 4 14 10 -5 8 493 10 1619 8 1296 -2 1626 0
1626 10 0 6 4 12 8 12 5 0 8 10 8 23 -1 21 2 22 89 22 50 0 93 5 98 10 4 6 10
5 16 -4 5 -7 13 -11 18 -8 5 3 37 7 71 8 34 1 62 6 62 10 0 5 -12 6 -27 3 -16
-2 -41 -1 -57 4 l-28 8 43 48 c41 46 68 64 97 65 9 1 12 -26 12 -104z m-3563
-12 c-2 -21 -4 -4 -4 37 0 41 2 58 4 38 2 -21 2 -55 0 -75z m3271 72 c-3 -3
-9 2 -12 12 -6 14 -5 15 5 6 7 -7 10 -15 7 -18z m-3468 -90 c-7 -96 -7 -97 -8
-29 -2 62 6 140 13 132 1 -2 -1 -48 -5 -103z m3590 35 c0 -5 -4 -10 -10 -10
-5 0 -10 5 -10 10 0 6 5 10 10 10 6 0 10 -4 10 -10z m256 -175 c-8 -8 -16 -15
-19 -15 -2 0 -4 7 -4 15 0 8 9 15 19 15 17 0 18 -2 4 -15z m-2286 -9 c0 -15
-18 -31 -26 -23 -7 7 7 37 17 37 5 0 9 -6 9 -14z m2260 -20 c0 -3 -4 -8 -10
-11 -5 -3 -10 -1 -10 4 0 6 5 11 10 11 6 0 10 -2 10 -4z m-6145 -190 c5 -160
4 -178 -11 -172 -8 3 -22 6 -30 6 -8 0 -14 5 -14 10 0 6 9 10 20 10 19 0 20 7
20 167 0 91 2 164 5 162 2 -3 7 -85 10 -183z m-4477 127 c-10 -2 -28 -2 -40 0
-13 2 -5 4 17 4 22 1 32 -1 23 -4z m49 1 c-3 -3 -12 -4 -19 -1 -8 3 -5 6 6 6
11 1 17 -2 13 -5z m176 -1 c-24 -2 -62 -2 -85 0 -24 2 -5 4 42 4 47 0 66 -2
43 -4z m3624 -255 c-1 -51 -3 -12 -3 87 0 99 2 141 3 93 2 -48 2 -129 0 -180z
m-3060 246 c-3 -3 -12 -4 -19 -1 -8 3 -5 6 6 6 11 1 17 -2 13 -5z m451 -4 l52
0 0 -75 0 -75 -220 0 -220 0 0 73 c0 41 3 77 8 81 4 5 79 5 167 2 88 -3 184
-6 213 -6z m2782 0 c0 -12 -8 -12 -35 0 -18 8 -17 9 8 9 15 1 27 -3 27 -9z
m2901 -80 c-8 -22 -10 -18 -10 26 -1 28 2 54 7 58 11 12 14 -57 3 -84z m3212
73 c-7 -2 -21 -2 -30 0 -10 3 -4 5 12 5 17 0 24 -2 18 -5z m-5693 -163 c0 -47
-4 -80 -10 -80 -6 0 -10 33 -10 80 0 47 4 80 10 80 6 0 10 -33 10 -80z m2093
63 c-7 -2 -19 -2 -25 0 -7 3 -2 5 12 5 14 0 19 -2 13 -5z m70 -10 c-7 -2 -21
-2 -30 0 -10 3 -4 5 12 5 17 0 24 -2 18 -5z m-245 -20 c-16 -2 -40 -2 -55 0
-16 2 -3 4 27 4 30 0 43 -2 28 -4z m-2831 -155 c-2 -24 -4 -5 -4 42 0 47 2 66
4 43 2 -24 2 -62 0 -85z m6250 60 c-2 -13 -4 -3 -4 22 0 25 2 35 4 23 2 -13 2
-33 0 -45z m-5066 -35 c33 -7 33 -7 9 -14 -37 -10 -138 -10 -144 0 -3 5 22 7
57 6 55 -2 57 -2 17 5 -44 7 -44 7 -9 8 20 1 52 -1 70 -5z m-308 -30 c-13 -2
-33 -2 -45 0 -13 2 -3 4 22 4 25 0 35 -2 23 -4z m-160 -30 c-13 -2 -33 -2 -45
0 -13 2 -3 4 22 4 25 0 35 -2 23 -4z m-318 -13 c3 -5 1 -10 -4 -10 -6 0 -11 5
-11 10 0 6 2 10 4 10 3 0 8 -4 11 -10z m74 -6 c10 -9 -35 -3 -49 6 -11 8 -7 9
15 4 17 -4 32 -8 34 -10z m64 9 c-7 -2 -21 -2 -30 0 -10 3 -4 5 12 5 17 0 24
-2 18 -5z m-116 -28 c0 -9 -9 -15 -22 -15 -11 0 -26 -5 -33 -12 -7 -7 -12 -9
-12 -5 0 5 58 47 66 47 0 0 1 -7 1 -15z m-77 -55 c-18 -12 -30 -13 -30 -2 0 4
10 9 22 9 18 2 20 0 8 -7z"/>
<path d="M10763 4200 c0 -36 2 -50 4 -32 2 17 2 47 0 65 -2 17 -4 3 -4 -33z"/>
<path d="M6936 3939 c-9 -90 -7 -179 3 -179 6 0 12 -19 14 -42 2 -24 4 30 5
120 2 162 -10 216 -22 101z"/>
<path d="M6460 3941 c0 -6 5 -13 10 -16 6 -3 10 -2 10 4 0 6 35 12 83 14 l82
3 -92 2 c-53 1 -93 -2 -93 -7z"/>
<path d="M10560 3895 c0 -9 -10 -15 -27 -16 -21 -1 -17 -4 16 -11 34 -8 46 -7
52 4 12 18 11 41 -1 33 -5 -3 -10 -13 -10 -21 0 -8 -6 -14 -14 -14 -9 0 -12 7
-9 20 3 11 3 20 -1 20 -3 0 -6 -7 -6 -15z"/>
<path d="M5560 3850 c-41 -6 -42 -7 -10 -8 19 0 58 3 85 8 47 7 48 7 10 7 -22
0 -60 -3 -85 -7z"/>
<path d="M5224 3560 c0 -69 1 -97 3 -62 2 34 2 90 0 125 -2 34 -3 6 -3 -63z"/>
<path d="M6420 3590 c14 -4 41 -8 60 -8 l35 0 -40 9 c-22 4 -49 8 -60 7 -16 0
-15 -2 5 -8z"/>
<path d="M6408 3563 c7 -3 16 -2 19 1 4 3 -2 6 -13 5 -11 0 -14 -3 -6 -6z"/>
<path d="M7248 3523 c6 -2 18 -2 25 0 6 3 1 5 -13 5 -14 0 -19 -2 -12 -5z"/>
<path d="M5825 3510 c27 -12 43 -12 25 0 -8 5 -22 9 -30 9 -10 0 -8 -3 5 -9z"/>
<path d="M6008 3513 c7 -3 16 -2 19 1 4 3 -2 6 -13 5 -11 0 -14 -3 -6 -6z"/>
<path d="M5700 3500 c14 -4 36 -8 50 -8 22 0 22 1 -5 8 -16 4 -39 8 -50 8 -16
0 -15 -2 5 -8z"/>
<path d="M5585 3490 c19 -8 73 -14 64 -6 -2 2 -22 6 -44 9 -28 5 -34 4 -20 -3z"/>
<path d="M5202 3460 c0 -14 2 -19 5 -12 2 6 2 18 0 25 -3 6 -5 1 -5 -13z"/>
<path d="M5530 3459 c-14 -5 -68 -13 -120 -17 -59 -6 -76 -10 -45 -10 28 0 84
3 125 9 41 5 99 11 129 13 29 3 56 8 59 11 9 9 -121 4 -148 -6z"/>
<path d="M5040 3430 c0 -5 17 -10 38 -9 33 1 34 2 12 9 -36 11 -50 11 -50 0z"/>
<path d="M7183 3400 c0 -25 2 -35 4 -22 2 12 2 32 0 45 -2 12 -4 2 -4 -23z"/>
<path d="M5244 3305 c0 -55 1 -76 3 -47 2 29 2 74 0 100 -2 26 -3 2 -3 -53z"/>
<path d="M10862 7098 c-1 -114 -5 -158 -14 -161 -7 -3 -4 -6 7 -6 19 -1 20 5
17 106 -4 198 -8 220 -10 61z"/>
<path d="M5611 7054 c0 -11 3 -14 6 -6 3 7 2 16 -1 19 -3 4 -6 -2 -5 -13z"/>
<path d="M3725 6509 c-4 -176 -5 -323 -2 -326 7 -7 416 32 424 41 4 3 1 12 -5
18 -15 15 -16 32 -2 23 6 -3 10 -2 10 4 0 5 -6 12 -12 14 -10 4 -10 6 0 6 9 1
12 29 12 106 l0 105 748 2 c415 2 568 4 345 5 -312 3 -403 6 -403 16 0 12 152
13 562 5 l138 -3 0 41 c0 23 3 74 6 115 l7 74 43 -1 c27 -1 44 3 44 10 0 6 3
21 6 33 6 22 4 23 -41 16 -35 -4 -50 -2 -57 8 -7 10 -11 11 -14 3 -3 -7 -13
-10 -22 -8 -9 1 -414 5 -898 8 l-881 4 -8 -319z m1136 273 c-7 -2 -18 1 -23 6
-8 8 -4 9 13 5 13 -4 18 -8 10 -11z m768 2 c3 -4 -4 -4 -16 -1 -13 3 -23 2
-23 -2 0 -4 -7 -8 -15 -8 -8 0 -15 6 -15 13 0 13 57 11 69 -2z m-691 -1 c-10
-2 -28 -2 -40 0 -13 2 -5 4 17 4 22 1 32 -1 23 -4z m-130 -156 l3 -117 -333 1
c-228 0 -325 3 -308 10 14 6 136 9 302 7 l278 -3 0 107 c0 108 3 118 40 113
12 -2 16 -24 18 -118z m52 103 c0 -5 -2 -10 -4 -10 -3 0 -8 5 -11 10 -3 6 -1
10 4 10 6 0 11 -4 11 -10z m40 6 c0 -2 -7 -7 -16 -10 -8 -3 -12 -2 -9 4 6 10
25 14 25 6z m-778 -270 c-4 -15 -7 -17 -10 -6 -3 8 -10 18 -16 22 -6 4 -1 6
10 6 16 -2 20 -7 16 -22z m-5 -92 c-3 -3 -12 -4 -19 -1 -8 3 -5 6 6 6 11 1 17
-2 13 -5z m11 -21 c-10 -2 -26 -2 -35 0 -10 3 -2 5 17 5 19 0 27 -2 18 -5z
m-5 -103 c3 -11 1 -18 -4 -14 -5 3 -9 12 -9 20 0 20 7 17 13 -6z"/>
<path d="M6343 6803 c59 -2 154 -2 210 0 56 1 8 3 -108 3 -115 0 -161 -2 -102
-3z"/>
<path d="M6668 6803 c6 -2 18 -2 25 0 6 3 1 5 -13 5 -14 0 -19 -2 -12 -5z"/>
<path d="M43 6792 l-43 -3 0 -505 0 -504 259 0 c198 0 260 3 264 13 2 6 3 37
2 67 -2 30 -3 130 -4 223 l-1 167 -75 0 -75 0 0 150 0 150 90 0 90 0 0 -385 0
-385 575 0 576 0 18 43 c21 50 87 112 145 138 29 12 117 26 281 43 132 14 272
30 310 35 39 6 117 15 175 21 114 11 606 63 788 82 l112 12 0 320 0 321 -1723
0 c-947 0 -1741 -1 -1764 -3z m201 -861 c4 -5 -3 -7 -14 -4 -11 3 -20 0 -20
-6 0 -6 -7 -11 -15 -11 -8 0 -15 7 -15 15 0 17 55 22 64 6z"/>
<path d="M6900 6632 l0 -163 43 6 c40 5 711 68 862 80 86 8 322 30 530 50 85
9 222 22 303 30 81 8 237 24 347 35 110 11 308 31 440 45 132 13 344 34 470
46 127 11 232 23 234 25 7 7 -179 8 -1721 8 l-1508 1 0 -163z"/>
<path d="M4988 6523 c17 -2 47 -2 65 0 17 2 3 4 -33 4 -36 0 -50 -2 -32 -4z"/>
<path d="M4701 6358 l-1 -28 368 2 367 3 -362 2 -362 3 -4 23 c-4 19 -4 18 -6
-5z"/>
<path d="M5600 6350 c0 -5 5 -10 11 -10 5 0 7 5 4 10 -3 6 -8 10 -11 10 -2 0
-4 -4 -4 -10z"/>
<path d="M4208 6343 c23 -2 59 -2 80 0 20 2 1 4 -43 4 -44 0 -61 -2 -37 -4z"/>
<path d="M4528 6343 c6 -2 18 -2 25 0 6 3 1 5 -13 5 -14 0 -19 -2 -12 -5z"/>
<path d="M12260 6260 c0 -6 97 -10 270 -10 173 0 270 4 270 10 0 6 -97 10
-270 10 -173 0 -270 -4 -270 -10z"/>
<path d="M7453 5947 c-67 -116 -133 -234 -148 -262 -15 -27 -58 -104 -94 -170
-86 -157 -95 -174 -90 -178 6 -5 211 -121 338 -192 93 -53 106 -57 132 -48 33
13 416 240 423 252 3 4 -15 17 -39 29 -42 20 -153 90 -320 202 l-70 46 -2 263
c-1 145 -4 265 -6 267 -2 2 -58 -92 -124 -209z"/>
<path d="M7650 6021 c0 -6 4 -13 10 -16 6 -3 7 1 4 9 -7 18 -14 21 -14 7z"/>
<path d="M10557 5863 c-22 -4 -35 -18 -68 -79 -22 -41 -44 -74 -47 -74 -4 0
-28 29 -54 64 -42 57 -49 62 -77 58 -16 -2 -33 -11 -36 -21 -3 -9 -3 -76 1
-149 l7 -133 31 3 31 3 5 80 5 80 24 -38 c43 -68 74 -71 109 -8 12 21 29 44
37 51 13 11 15 3 15 -64 l0 -76 34 0 c24 0 36 5 38 16 2 9 2 79 0 155 -2 101
-6 139 -15 138 -7 -1 -24 -4 -40 -6z"/>
<path d="M6884 5680 c0 -91 2 -128 3 -82 2 45 2 119 0 165 -1 45 -3 8 -3 -83z"/>
<path d="M10135 5811 c-3 -5 -4 -55 -3 -111 3 -91 1 -103 -16 -116 -28 -20
-63 -17 -76 5 -5 11 -10 63 -10 116 l0 96 -37 -3 -38 -3 0 -105 c0 -58 4 -117
8 -132 14 -54 108 -75 176 -40 66 33 75 62 72 230 l-1 72 -34 0 c-19 0 -37 -4
-41 -9z"/>
<path d="M9194 5785 c-9 -14 -14 -28 -11 -31 10 -10 75 16 81 32 9 23 8 24
-24 24 -21 0 -35 -8 -46 -25z"/>
<path d="M9785 5778 c-44 -4 -86 -10 -92 -13 -10 -3 -13 -43 -13 -151 l0 -147
88 7 c125 10 132 13 132 48 l0 29 -67 -2 c-66 -3 -68 -2 -71 23 -3 24 0 26 57
32 59 7 61 8 61 36 0 30 0 30 -60 30 -53 0 -60 2 -60 20 0 14 9 21 38 25 94
16 93 15 90 43 -4 31 -4 31 -103 20z"/>
<path d="M6045 5734 c-27 -29 -30 -49 -15 -88 10 -27 56 -56 90 -56 32 0 80
53 80 87 -1 75 -104 112 -155 57z m113 -10 c27 -18 30 -69 5 -96 -36 -40 -115
-13 -129 44 -5 21 0 33 21 53 28 29 57 29 103 -1z"/>
<path d="M6067 5713 c-11 -11 -8 -65 3 -58 6 3 10 15 10 26 0 12 7 19 18 18 9
0 12 -3 6 -5 -13 -5 -6 -51 8 -60 6 -4 7 2 3 17 -7 22 -7 23 11 9 18 -14 18
-14 5 2 -7 10 -11 27 -8 38 4 16 0 20 -22 20 -15 0 -31 -3 -34 -7z"/>
<path d="M757 5742 l-207 -2 6 -28 c4 -15 7 -28 8 -29 1 0 94 -3 208 -5 l208
-3 2 -280 c2 -241 3 -259 8 -130 l6 150 3 -150 c2 -95 6 -139 11 -120 4 17 8
23 10 15 1 -11 4 -9 9 5 5 11 7 36 5 55 -2 19 -2 29 2 23 3 -7 22 -13 43 -13
l37 0 0 98 c0 53 5 109 12 125 l12 27 189 0 c142 0 190 3 193 12 11 33 30 -44
33 -131 4 -152 4 -161 15 -161 6 0 10 18 10 40 0 26 5 40 13 40 16 0 10 71 -7
82 -6 4 -7 11 -2 15 5 4 11 2 13 -4 3 -7 13 -13 24 -13 16 0 19 -7 19 -40 0
-22 5 -40 10 -40 6 0 10 18 10 40 0 28 4 40 14 40 11 0 16 -14 19 -47 2 -27 4
61 5 195 l2 242 -367 -2 c-203 -2 -461 -4 -576 -6z m843 -292 c0 -5 -4 -10
-10 -10 -5 0 -10 5 -10 10 0 6 5 10 10 10 6 0 10 -4 10 -10z m-500 -117 c0
-68 -5 -67 -13 5 -4 30 -2 52 3 52 6 0 10 -25 10 -57z"/>
<path d="M9475 5743 c-16 -2 -45 -6 -62 -9 l-33 -5 0 -144 c0 -79 4 -146 9
-149 5 -3 23 -3 40 0 30 6 31 9 31 56 0 45 2 49 22 46 15 -2 31 -19 47 -47 23
-42 24 -43 64 -37 23 4 43 9 45 11 3 2 -10 22 -27 43 -36 47 -37 49 -11 82 21
27 26 89 10 120 -5 10 -24 23 -41 29 -32 11 -37 11 -94 4z m73 -89 c4 -25 -13
-39 -55 -47 -33 -6 -33 -6 -33 34 l0 40 43 -3 c34 -2 43 -7 45 -24z"/>
<path d="M0 5710 l0 -30 265 0 265 0 0 30 0 30 -265 0 -265 0 0 -30z m103 13
c-13 -2 -33 -2 -45 0 -13 2 -3 4 22 4 25 0 35 -2 23 -4z m335 0 c-38 -2 -98
-2 -135 0 -38 2 -7 3 67 3 74 0 105 -1 68 -3z"/>
<path d="M5545 5684 c-187 -23 -343 -43 -347 -43 -10 -1 -10 -106 -2 -151 7
-32 7 -32 53 -26 25 3 123 15 216 26 94 11 195 23 225 27 l54 6 -80 -104 c-69
-89 -361 -495 -431 -598 -18 -26 -23 -47 -23 -95 0 -34 4 -67 9 -75 8 -13 67
-8 407 32 219 26 402 51 407 56 5 5 6 44 2 91 l-7 83 -67 -7 c-36 -4 -145 -18
-241 -32 -96 -14 -193 -28 -215 -31 l-40 -6 21 24 c11 13 88 119 169 234 137
194 202 286 297 416 36 50 37 52 32 122 -3 40 -7 78 -10 85 -5 18 -52 14 -429
-34z"/>
<path d="M9148 5713 l-38 -4 0 -155 c0 -85 3 -154 8 -153 4 0 50 6 102 12 l95
13 3 33 3 33 -68 -3 -68 -4 0 30 c0 27 3 30 35 33 71 5 80 10 80 43 l0 32 -60
-7 c-55 -6 -60 -5 -60 13 0 16 9 21 48 26 87 11 92 14 92 40 0 24 -2 25 -67
23 -38 -1 -85 -3 -105 -5z"/>
<path d="M8954 5631 l-6 -59 -42 -5 c-22 -2 -44 -2 -48 0 -5 2 -8 26 -8 54 l0
49 -40 0 -41 0 3 -152 3 -153 35 3 c19 2 36 5 37 6 4 3 11 62 12 94 1 31 2 32
45 32 49 0 56 -8 56 -71 l0 -40 38 3 37 3 3 148 3 147 -40 0 -40 0 -7 -59z"/>
<path d="M8580 5644 c-52 -7 -96 -13 -97 -13 -2 -1 -3 -14 -3 -31 0 -29 2 -30
45 -30 l45 0 0 -49 c0 -26 3 -76 6 -110 l7 -61 33 0 34 0 0 120 0 120 35 0
c33 0 35 2 35 35 0 40 7 39 -140 19z"/>
<path d="M0 5615 c0 -13 22 -15 138 -16 86 0 130 -4 117 -9 -15 -7 -9 -9 25
-9 33 -1 41 2 30 9 -17 11 139 14 178 4 l22 -6 0 -239 0 -239 -217 0 c-119 0
-214 -3 -211 -6 4 -3 104 -7 225 -9 l218 -3 -2 261 c-2 144 -3 265 -3 270 0 4
-117 7 -260 7 -224 0 -260 -2 -260 -15z"/>
<path d="M8425 5624 c-5 -1 -49 -6 -97 -9 l-88 -7 0 -148 c0 -82 3 -151 8
-154 4 -2 60 3 125 12 l118 16 -3 31 c-3 33 2 32 -100 20 -57 -7 -58 -6 -58
18 0 27 16 37 60 37 34 0 54 22 45 49 -5 17 -14 20 -58 18 -46 -2 -52 0 -52
18 0 17 10 22 60 30 52 9 60 14 63 34 4 25 -6 40 -23 35z"/>
<path d="M4507 5580 c-238 -31 -249 -33 -243 -52 3 -7 9 -123 15 -258 6 -135
16 -353 22 -485 6 -132 14 -244 18 -248 8 -8 476 45 566 64 139 31 245 158
245 297 0 94 -48 191 -117 233 -34 21 -34 21 -15 43 116 126 75 322 -83 400
-80 39 -150 40 -408 6z m323 -165 c37 -19 50 -43 50 -94 0 -48 -42 -95 -98
-110 -49 -13 -291 -46 -296 -40 -2 2 -7 55 -11 116 -8 129 -18 117 100 131
130 15 222 14 255 -3z m21 -386 c80 -27 114 -97 85 -174 -25 -65 -61 -80 -247
-105 -224 -29 -199 -44 -199 115 0 101 3 135 13 136 6 0 75 9 152 19 77 10
145 18 151 19 6 0 26 -4 45 -10z"/>
<path d="M7 5583 c7 -2 19 -2 26 0 6 3 1 5 -13 5 -14 0 -19 -2 -13 -5z"/>
<path d="M98 5583 c12 -2 32 -2 45 0 12 2 2 4 -23 4 -25 0 -35 -2 -22 -4z"/>
<path d="M3545 5462 c-110 -14 -202 -26 -203 -28 -2 -1 1 -92 7 -201 6 -109
16 -337 22 -508 7 -170 16 -312 20 -315 11 -7 175 13 184 22 4 4 2 134 -4 290
-6 156 -12 346 -14 423 l-2 140 95 12 c160 20 226 20 257 -3 46 -35 66 -70 71
-127 5 -61 -9 -96 -55 -138 -33 -31 -71 -44 -168 -59 -125 -18 -115 -10 -115
-98 0 -109 5 -122 45 -122 27 0 34 5 39 25 4 14 12 25 20 25 16 0 88 -76 190
-202 55 -69 85 -98 100 -98 42 0 191 23 200 31 5 4 -18 38 -51 76 -32 37 -91
106 -131 152 l-71 83 58 58 c78 76 115 153 119 246 6 114 -16 174 -91 248
-107 106 -167 114 -522 68z"/>
<path d="M3098 5411 c-27 -4 -52 -11 -57 -16 -4 -6 -5 -66 0 -135 4 -69 11
-224 15 -345 7 -210 6 -222 -14 -260 -46 -92 -116 -134 -220 -135 -70 0 -120
20 -164 67 -55 57 -59 83 -74 427 -7 175 -16 321 -18 323 -4 4 -187 -15 -193
-20 -3 -4 25 -574 32 -637 8 -76 45 -150 106 -215 238 -252 644 -133 740 216
11 43 7 330 -10 624 l-6 110 -45 1 c-25 1 -66 -1 -92 -5z"/>
<path d="M9960 5375 c0 -2 9 -19 20 -37 24 -40 26 -107 4 -150 -21 -41 -4 -59
24 -23 38 48 38 154 -1 203 -9 11 -47 18 -47 7z"/>
<path d="M9810 5337 c-63 -22 -87 -110 -44 -159 39 -43 138 -26 163 28 25 55
0 134 -44 134 -7 0 -19 2 -27 4 -7 3 -29 0 -48 -7z m72 -44 c24 -21 23 -58 -2
-83 -24 -24 -53 -26 -74 -4 -22 21 -20 60 4 84 24 24 47 25 72 3z"/>
<path d="M9592 5230 c3 -50 8 -93 10 -95 2 -3 31 -1 64 3 44 5 60 11 62 25 3
14 -4 17 -42 17 l-46 0 0 70 c0 69 0 70 -26 70 l-27 0 5 -90z"/>
<path d="M9488 5247 c3 -49 0 -68 -13 -80 -37 -37 -65 -5 -65 74 0 51 -2 59
-19 59 -25 0 -31 -19 -24 -82 7 -66 17 -86 50 -99 32 -12 89 5 103 31 6 10 10
50 10 89 0 67 -1 71 -22 71 -22 0 -23 -3 -20 -63z"/>
<path d="M6884 5000 c0 -157 2 -221 3 -142 2 78 2 206 0 285 -1 78 -3 14 -3
-143z"/>
<path d="M9186 5193 c-16 -49 -31 -94 -33 -100 -3 -8 3 -13 16 -13 14 0 25 9
31 25 8 20 16 25 45 25 22 0 38 -6 41 -15 7 -16 54 -21 54 -5 0 5 -18 46 -40
90 -33 64 -45 80 -63 80 -20 0 -27 -12 -51 -87z m69 -23 c-3 -6 -10 -10 -16
-10 -10 0 -12 33 -2 44 9 9 26 -22 18 -34z"/>
<path d="M8575 5239 c-10 -30 0 -33 34 -13 39 23 39 34 2 34 -21 0 -32 -6 -36
-21z"/>
<path d="M9006 5253 l-39 -4 7 -61 c3 -34 6 -76 6 -94 0 -27 4 -34 19 -34 15
0 21 8 23 32 3 28 8 33 36 39 67 14 93 68 52 109 -20 20 -27 21 -104 13z m69
-58 c0 -14 -8 -21 -27 -23 -24 -3 -28 0 -28 23 0 23 4 26 28 23 19 -2 27 -9
27 -23z"/>
<path d="M7985 5223 c-16 -13 -17 -15 -2 -10 18 7 24 -8 7 -18 -5 -3 -10 -11
-10 -18 0 -6 6 -3 14 8 9 15 19 57 12 55 -1 0 -10 -8 -21 -17z"/>
<path d="M7110 5225 c0 -3 64 -102 142 -218 78 -117 182 -272 231 -346 48 -73
91 -130 94 -127 8 8 3 450 -5 457 -4 4 -69 41 -146 83 -218 121 -316 168 -316
151z"/>
<path d="M8385 5198 c-15 -22 -14 -23 5 -26 24 -4 50 14 50 34 0 22 -37 16
-55 -8z"/>
<path d="M8741 5206 c-56 -31 -67 -102 -22 -147 33 -33 67 -37 111 -14 36 19
50 43 50 90 0 69 -74 107 -139 71z m93 -62 c8 -31 -16 -74 -42 -74 -34 0 -54
24 -50 60 6 63 77 74 92 14z"/>
<path d="M1070 5190 c0 -5 5 -10 10 -10 6 0 10 5 10 10 0 6 -4 10 -10 10 -5 0
-10 -4 -10 -10z"/>
<path d="M1693 5160 c0 -25 2 -35 4 -22 2 12 2 32 0 45 -2 12 -4 2 -4 -23z"/>
<path d="M8263 5174 c-27 -42 -29 -141 -4 -181 12 -18 25 -33 30 -33 20 0 21
20 4 46 -22 34 -22 118 1 162 14 28 15 32 1 32 -8 0 -22 -12 -32 -26z"/>
<path d="M8558 5168 c-18 -29 -68 -137 -68 -149 0 -15 40 -10 46 6 7 17 84 22
84 5 0 -5 11 -10 25 -10 28 0 27 2 -22 113 -28 62 -43 70 -65 35z m27 -86
c-22 -5 -27 1 -19 23 7 17 8 17 21 -1 12 -17 12 -19 -2 -22z"/>
<path d="M8336 5118 c-23 -32 -20 -65 9 -93 33 -34 77 -33 104 1 12 15 21 37
21 50 0 58 -101 89 -134 42z m110 -41 c16 -16 -12 -29 -53 -24 -49 5 -58 10
-48 27 7 12 89 9 101 -3z"/>
<path d="M850 5099 c-74 -3 87 -6 358 -7 270 -1 492 2 492 7 0 9 -632 9 -850
0z"/>
<path d="M7879 5023 c-13 -16 -12 -17 4 -4 9 7 17 15 17 17 0 8 -8 3 -21 -13z"/>
<path d="M7802 4918 c-14 -18 -46 -85 -35 -73 14 15 55 85 50 85 -2 0 -9 -6
-15 -12z"/>
<path d="M0 4390 l0 -530 365 3 365 2 0 131 0 131 68 6 c37 4 93 7 124 7 45 0
57 3 61 18 3 9 5 -54 6 -141 1 -151 2 -157 20 -148 10 6 21 8 24 5 3 -3 157
-7 341 -7 l336 -2 0 528 0 527 -855 0 -855 0 0 -530z m987 -132 c-2 -13 -4 -3
-4 22 0 25 2 35 4 23 2 -13 2 -33 0 -45z m-240 -65 c-3 -10 -5 -2 -5 17 0 19
2 27 5 18 2 -10 2 -26 0 -35z m303 -190 c0 -121 -1 -126 -17 -108 -15 15 -18
37 -18 127 0 96 2 108 18 108 15 0 17 -13 17 -127z"/>
<path d="M1033 3960 c0 -25 2 -35 4 -22 2 12 2 32 0 45 -2 12 -4 2 -4 -23z"/>
<path d="M11718 4913 c199 -2 525 -2 725 0 199 1 36 2 -363 2 -399 0 -562 -1
-362 -2z"/>
<path d="M7600 4600 c-6 -11 -8 -20 -6 -20 3 0 10 9 16 20 6 11 8 20 6 20 -3
0 -10 -9 -16 -20z"/>
<path d="M1 3793 c0 -21 3 -32 6 -25 6 14 90 17 95 3 2 -6 46 -10 98 -11 119
-2 120 -2 119 8 -5 30 2 34 49 28 79 -10 202 -15 162 -6 -20 4 6 5 58 2 73 -4
96 -2 102 8 6 10 10 7 15 -13 9 -36 25 -34 25 3 l0 30 128 0 127 0 0 -32 c0
-25 4 -33 18 -32 9 0 172 1 362 2 l345 2 0 35 0 35 -855 0 -855 0 1 -37z
m1182 20 c-13 -2 -33 -2 -45 0 -13 2 -3 4 22 4 25 0 35 -2 23 -4z m-936 -40
c-20 -2 -52 -2 -70 0 -17 2 0 4 38 4 39 0 53 -2 32 -4z m1406 0 c-7 -2 -21 -2
-30 0 -10 3 -4 5 12 5 17 0 24 -2 18 -5z"/>
<path d="M458 3763 c34 -2 90 -2 125 0 34 2 6 3 -63 3 -69 0 -97 -1 -62 -3z"/>
<path d="M507 3673 c18 -2 50 -2 70 0 21 2 7 4 -32 4 -38 0 -55 -2 -38 -4z"/>
<path d="M9743 3540 c0 -36 2 -50 4 -32 2 17 2 47 0 65 -2 17 -4 3 -4 -33z"/>
<path d="M157 3523 c24 -2 62 -2 85 0 24 2 5 4 -42 4 -47 0 -66 -2 -43 -4z"/>
<path d="M343 3523 c15 -2 39 -2 55 0 15 2 2 4 -28 4 -30 0 -43 -2 -27 -4z"/>
<path d="M1133 3473 c32 -2 81 -2 110 0 29 2 3 3 -58 3 -60 0 -84 -1 -52 -3z"/>
<path d="M1368 3453 c17 -2 47 -2 65 0 17 2 3 4 -33 4 -36 0 -50 -2 -32 -4z"/>
<path d="M124 3325 c0 -71 1 -99 3 -62 2 37 2 96 0 130 -2 34 -3 4 -3 -68z"/>
<path d="M9737 3381 c-4 -35 -6 -91 -6 -125 1 -43 4 -27 10 54 9 126 6 173 -4
71z"/>
<path d="M10931 3264 c0 -11 3 -14 6 -6 3 7 2 16 -1 19 -3 4 -6 -2 -5 -13z"/>
<path d="M0 2764 l0 -234 150 0 150 0 0 -250 0 -250 -150 0 c-129 0 -150 -2
-150 -15 0 -14 20 -16 138 -15 75 1 143 1 150 0 10 0 12 -36 10 -162 l-3 -163
-83 -3 c-57 -2 -82 1 -77 8 8 13 -107 120 -130 120 -3 0 -5 -31 -5 -70 l0 -70
428 -3 427 -2 -427 -3 c-277 -1 -428 -6 -428 -12 0 -12 -212 -11 1798 -10
l1712 1 0 -151 0 -150 -1707 -1 c-940 0 -1730 -4 -1758 -9 -27 -4 741 -8 1708
-9 l1757 -1 0 -25 0 -25 -1755 2 c-965 2 -1755 0 -1755 -4 0 -4 19 -9 43 -11
l42 -4 -42 -1 c-24 -1 -43 -6 -43 -12 0 -7 593 -10 1760 -10 l1760 0 0 225 0
225 -1010 0 -1010 0 0 426 c0 365 2 428 15 440 13 14 15 -33 17 -423 l3 -438
5 428 5 427 979 0 c777 0 981 -2 988 -12 4 -7 8 98 8 233 l0 246 -1760 1
-1760 1 0 -235z m1078 -51 c-10 -2 -28 -2 -40 0 -13 2 -5 4 17 4 22 1 32 -1
23 -4z m119 1 c-3 -3 -12 -4 -19 -1 -8 3 -5 6 6 6 11 1 17 -2 13 -5z m-166
-161 c-8 -15 -10 -15 -11 -2 0 17 10 32 18 25 2 -3 -1 -13 -7 -23z m-21 -253
l6 -225 2 228 c1 143 6 227 12 227 7 0 10 -150 10 -430 l0 -430 -360 0 -360 0
0 430 0 430 343 -2 342 -3 5 -225z m470 -20 l0 -250 -210 0 -210 0 0 250 0
250 210 0 210 0 0 -250z m-380 -294 c0 -9 -30 -14 -35 -6 -4 6 3 10 14 10 12
0 21 -2 21 -4z m377 -103 c-4 -60 -11 -121 -15 -138 l-9 -30 -5 27 c-3 15 -1
25 3 22 5 -3 9 13 9 35 0 39 -19 60 -21 24 -1 -17 -2 -17 -6 0 -2 9 -11 17
-19 17 -8 0 -14 7 -14 16 0 11 -6 14 -22 9 -16 -4 -19 -3 -10 3 19 13 -4 49
-35 57 -13 3 -26 11 -29 18 -3 8 -33 12 -102 11 -82 -1 -85 0 -17 3 100 4 127
15 60 23 -33 5 -1 7 94 8 l144 2 -6 -107z m-380 51 c-3 -3 -12 -4 -19 -1 -8 3
-5 6 6 6 11 1 17 -2 13 -5z m180 0 c-3 -3 -12 -4 -19 -1 -8 3 -5 6 6 6 11 1
17 -2 13 -5z m-210 -136 c-2 -24 -4 -5 -4 42 0 47 2 66 4 43 2 -24 2 -62 0
-85z m360 -124 c-3 -3 -12 -4 -19 -1 -8 3 -5 6 6 6 11 1 17 -2 13 -5z m136
-21 c-100 -2 -266 -2 -370 0 -103 1 -21 2 182 2 204 0 288 -1 188 -2z m-240
-410 c-24 -2 -62 -2 -85 0 -24 2 -5 4 42 4 47 0 66 -2 43 -4z m720 0 c-24 -2
-62 -2 -85 0 -24 2 -5 4 42 4 47 0 66 -2 43 -4z m340 0 c-13 -2 -33 -2 -45 0
-13 2 -3 4 22 4 25 0 35 -2 23 -4z m220 0 c-24 -2 -62 -2 -85 0 -24 2 -5 4 42
4 47 0 66 -2 43 -4z m300 0 c-35 -2 -91 -2 -125 0 -35 2 -7 3 62 3 69 0 97 -1
63 -3z m515 0 c-53 -2 -143 -2 -200 0 -57 1 -13 3 97 3 110 0 156 -2 103 -3z"/>
<path d="M3720 2571 l0 -431 441 0 441 0 -2 103 c-1 56 -2 124 -1 150 1 60
-14 63 236 -57 295 -141 290 -138 293 -169 l3 -27 322 2 322 3 -3 164 c-2 90
-1 175 2 187 l6 24 314 0 313 0 7 -92 c3 -50 6 -135 6 -190 l0 -98 43 1 c23 0
36 3 30 6 -10 3 -13 57 -13 219 l0 214 -97 1 c-54 1 -105 0 -113 -1 -8 -1 1
13 20 31 19 18 39 32 43 31 5 -1 6 2 3 7 -3 5 22 35 56 66 l63 56 152 -3 c83
-2 147 0 141 3 -18 11 33 37 66 34 17 -2 25 -1 19 2 -17 6 -16 28 2 43 10 9
15 9 15 1 0 -6 7 -11 16 -11 14 0 14 3 4 16 -11 12 -10 18 3 32 16 15 17 13
17 -33 0 -28 3 -91 6 -142 l5 -92 -38 11 c-46 12 -66 27 -59 44 3 7 1 16 -4
19 -4 3 -7 -6 -6 -19 3 -25 3 -25 -32 -11 -19 8 -36 15 -38 15 -2 0 -4 -121
-4 -270 l0 -270 96 0 96 0 -4 424 -3 424 -330 4 c-181 2 -898 5 -1592 6
l-1263 4 0 -431z m3170 386 c0 -25 -52 -79 -129 -135 l-44 -32 -884 0 -883 0
0 95 0 95 970 0 970 0 0 -23z m-480 -405 c0 -4 -132 -7 -293 -7 -160 -1 -251
2 -202 5 124 9 495 10 495 2z m50 -29 c1 -21 3 -113 6 -205 6 -151 5 -168 -10
-168 -9 0 -19 6 -21 13 -2 6 -6 99 -7 205 -3 177 -2 192 15 192 13 0 17 -9 17
-37z"/>
<path d="M7212 2533 c1 -252 4 -378 5 -280 l3 177 188 1 c103 0 201 1 217 1
17 0 713 0 1547 -1 l1518 -1 3 -232 c1 -128 3 -2 4 280 l2 512 -1744 0 -1745
0 2 -457z m3468 435 c0 -19 -64 -98 -77 -93 -6 2 -17 -4 -25 -13 -12 -15 -11
-16 4 -4 11 9 18 10 23 2 3 -5 3 -10 -2 -10 -4 0 -16 -14 -25 -31 -10 -17 -22
-27 -28 -24 -6 4 -10 3 -9 -2 3 -20 -2 -24 -17 -12 -16 13 -51 23 -39 11 4 -4
10 -7 13 -7 13 0 32 -16 32 -27 0 -6 -7 -5 -17 3 -16 13 -17 12 -5 -3 16 -20
7 -42 -14 -34 -10 4 -11 0 -5 -17 5 -12 6 -68 3 -124 -3 -73 -1 -103 7 -103 7
0 11 34 11 106 0 60 5 115 11 127 11 19 89 125 137 186 l19 23 6 -92 c4 -51 7
-158 7 -237 0 -129 -2 -143 -17 -143 -100 -2 -628 1 -630 3 -1 2 -3 74 -4 159
0 131 -3 156 -15 151 -8 -3 -14 -9 -14 -14 0 -5 -306 -8 -727 -8 -466 1 -690
5 -623 10 58 5 150 15 205 23 92 14 94 15 25 9 -41 -3 -316 -5 -610 -6 -294 0
-494 -3 -445 -6 l90 -6 -87 -5 c-72 -4 -90 -2 -101 11 -17 19 -38 102 -29 111
21 21 254 28 1105 32 510 3 932 8 937 11 6 3 10 17 10 31 l0 24 460 0 c331 -1
460 -4 460 -12z m-3431 -58 c1 18 4 21 10 11 5 -7 14 -10 20 -6 20 12 241 15
241 3 0 -7 22 -8 69 -4 l70 7 1 -235 1 -236 -216 0 -215 0 1 243 c1 137 4 231
9 217 l8 -25 1 25z m494 3 c-13 -2 -33 -2 -45 0 -13 2 -3 4 22 4 25 0 35 -2
23 -4z m320 -150 c-13 -2 -33 -2 -45 0 -13 2 -3 4 22 4 25 0 35 -2 23 -4z
m540 0 c-68 -2 -178 -2 -245 0 -68 1 -13 3 122 3 135 0 190 -2 123 -3z m-640
-20 c-24 -2 -62 -2 -85 0 -24 2 -5 4 42 4 47 0 66 -2 43 -4z m420 0 c-57 -2
-149 -2 -205 0 -57 1 -11 3 102 3 113 0 159 -2 103 -3z"/>
<path d="M10643 2955 c0 -8 4 -12 9 -9 5 3 6 10 3 15 -9 13 -12 11 -12 -6z"/>
<path d="M7880 2890 c-25 -3 27 -4 115 -2 88 3 162 6 164 8 7 7 -231 1 -279
-6z"/>
<path d="M8558 2893 c45 -2 119 -2 165 0 45 1 8 3 -83 3 -91 0 -128 -2 -82 -3z"/>
<path d="M7720 2865 c0 -8 2 -15 4 -15 2 0 6 7 10 15 3 8 1 15 -4 15 -6 0 -10
-7 -10 -15z"/>
<path d="M7752 2860 c0 -14 2 -19 5 -12 2 6 2 18 0 25 -3 6 -5 1 -5 -13z"/>
<path d="M7793 2873 c-7 -3 -13 -20 -13 -38 0 -18 -6 -35 -12 -38 -7 -2 151
-4 352 -3 201 0 292 2 203 4 -136 2 -163 5 -163 17 0 12 -16 15 -80 15 -64 0
-80 -3 -80 -15 0 -11 -11 -15 -40 -15 -29 0 -40 4 -40 15 0 11 -11 15 -39 15
-33 0 -40 4 -43 22 -3 21 -21 29 -45 21z"/>
<path d="M7730 2811 c0 -12 5 -21 10 -21 6 0 10 6 10 14 0 8 -4 18 -10 21 -5
3 -10 -3 -10 -14z"/>
<path d="M9338 2773 c7 -3 16 -2 19 1 4 3 -2 6 -13 5 -11 0 -14 -3 -6 -6z"/>
<path d="M8898 2753 c12 -2 32 -2 45 0 12 2 2 4 -23 4 -25 0 -35 -2 -22 -4z"/>
<path d="M9138 2753 c12 -2 32 -2 45 0 12 2 2 4 -23 4 -25 0 -35 -2 -22 -4z"/>
<path d="M7610 2900 c19 -13 30 -13 30 0 0 6 -10 10 -22 10 -19 0 -20 -2 -8
-10z"/>
<path d="M7274 2700 c0 -58 1 -81 3 -52 2 28 2 76 0 105 -2 28 -3 5 -3 -53z"/>
<path d="M7241 2624 c0 -11 3 -14 6 -6 3 7 2 16 -1 19 -3 4 -6 -2 -5 -13z"/>
<path d="M7257 2553 c-2 -5 -1 -19 4 -33 7 -23 7 -23 8 8 1 31 -3 40 -12 25z"/>
<path d="M7248 2473 c7 -3 16 -2 19 1 4 3 -2 6 -13 5 -11 0 -14 -3 -6 -6z"/>
<path d="M10790 2465 l0 -525 708 -1 c846 -1 821 -1 849 17 l22 14 4 -112 3
-113 2 118 c1 64 6 117 10 117 5 0 8 10 6 23 -1 12 -3 123 -3 247 -1 124 -5
221 -9 215 -4 -6 -284 -11 -797 -12 -473 -1 -784 1 -774 7 8 5 345 10 772 11
416 1 768 4 782 7 14 2 23 8 20 12 -3 5 -2 15 1 24 5 14 33 16 210 16 l204 0
0 230 0 230 -1005 0 -1005 0 0 -525z m613 418 l-122 -4 -4 -47 -3 -47 -2 53
-2 52 128 -2 127 -2 -122 -3z m405 0 c-21 -2 -57 -2 -80 0 -24 2 -7 4 37 4 44
0 63 -2 43 -4z m105 0 c-7 -2 -19 -2 -25 0 -7 3 -2 5 12 5 14 0 19 -2 13 -5z
m160 0 c-7 -2 -21 -2 -30 0 -10 3 -4 5 12 5 17 0 24 -2 18 -5z m-320 -120 c-7
-2 -21 -2 -30 0 -10 3 -4 5 12 5 17 0 24 -2 18 -5z m205 0 c-21 -2 -57 -2 -80
0 -24 2 -7 4 37 4 44 0 63 -2 43 -4z m83 -133 c-8 -20 -10 -13 -9 40 0 36 4
70 7 75 11 18 12 -90 2 -115z m26 -22 c-2 -29 -3 -8 -3 47 0 55 1 79 3 53 2
-26 2 -71 0 -100z m-607 122 c0 -5 -2 -10 -4 -10 -3 0 -8 5 -11 10 -3 6 -1 10
4 10 6 0 11 -4 11 -10z m910 -85 c0 -57 -4 -95 -10 -95 -5 0 -10 -5 -10 -11 0
-5 5 -7 10 -4 6 3 10 -4 10 -17 l0 -23 -171 2 c-95 2 -174 5 -177 8 -3 3 72 5
167 5 103 0 170 4 166 9 -3 5 -29 8 -58 6 -45 -2 -47 -2 -12 4 34 6 36 8 15
12 l-25 5 27 5 c15 4 25 2 22 -2 -9 -15 13 -10 26 5 7 10 10 44 8 100 -2 48 0
86 5 86 4 0 7 -43 7 -95z m-900 -75 c0 -5 -5 -10 -11 -10 -5 0 -7 5 -4 10 3 6
8 10 11 10 2 0 4 -4 4 -10z m25 -20 c3 -5 1 -10 -4 -10 -6 0 -11 5 -11 10 0 6
2 10 4 10 3 0 8 -4 11 -10z m594 -9 c12 -8 9 -11 -12 -17 -16 -3 -31 -4 -34 0
-4 3 5 6 18 6 19 0 21 2 9 10 -8 5 -10 10 -5 10 6 0 17 -4 24 -9z m64 -8 c-7
-2 -19 -2 -25 0 -7 3 -2 5 12 5 14 0 19 -2 13 -5z m-795 -10 c-15 -2 -42 -2
-60 0 -18 2 -6 4 27 4 33 0 48 -2 33 -4z m110 0 c-16 -2 -40 -2 -55 0 -16 2
-3 4 27 4 30 0 43 -2 28 -4z m45 -25 c7 -4 -152 -7 -353 -6 l-365 2 245 6
c317 8 459 7 473 -2z m-4 -71 c-5 -39 4 -267 10 -242 7 29 7 30 19 8 7 -12 12
-29 12 -37 0 -9 5 -16 10 -16 6 0 10 8 10 18 0 10 7 28 16 40 8 12 13 32 10
45 -3 12 -3 16 0 10 12 -28 34 -13 34 23 0 47 31 73 88 74 l42 0 0 -55 c0 -32
4 -55 10 -55 6 0 22 -12 35 -27 20 -22 27 -25 34 -14 6 9 22 12 50 9 34 -3 41
-1 41 14 0 10 5 18 11 18 7 0 9 31 7 90 -2 56 1 90 7 90 6 0 10 -43 10 -110 0
-61 1 -110 3 -110 11 0 21 64 23 144 1 74 4 93 15 89 10 -4 13 -32 13 -115 0
-61 3 -113 6 -116 3 -3 5 49 5 116 l0 122 176 0 175 0 -2 -230 c-1 -126 -5
-227 -9 -225 -4 3 -24 -2 -44 -10 -30 -13 -142 -15 -781 -15 l-745 0 0 234 0
235 28 4 c15 2 175 4 355 5 254 1 327 -1 326 -11z m154 6 c-13 -2 -35 -2 -50
0 -16 2 -5 4 22 4 28 0 40 -2 28 -4z m210 0 c-7 -2 -21 -2 -30 0 -10 3 -4 5
12 5 17 0 24 -2 18 -5z m85 0 c-10 -2 -28 -2 -40 0 -13 2 -5 4 17 4 22 1 32
-1 23 -4z m-281 -19 c-3 -3 -12 -4 -19 -1 -8 3 -5 6 6 6 11 1 17 -2 13 -5z
m243 -4 c0 -5 -4 -10 -10 -10 -5 0 -10 5 -10 10 0 6 5 10 10 10 6 0 10 -4 10
-10z m0 -105 c0 -63 -1 -65 -25 -65 -23 0 -25 4 -25 47 0 44 20 83 42 83 4 0
8 -29 8 -65z"/>
<path d="M11618 1983 c67 -2 177 -2 245 0 67 1 12 3 -123 3 -135 0 -190 -2
-122 -3z"/>
<path d="M6845 2824 c9 -9 19 -13 23 -10 3 4 0 11 -8 16 -24 15 -33 11 -15 -6z"/>
<path d="M6770 2781 c0 -5 7 -11 14 -14 10 -4 13 -1 9 9 -6 15 -23 19 -23 5z"/>
<path d="M6730 2725 c-9 -10 -9 -15 -1 -15 6 0 11 4 11 9 0 5 8 12 18 14 14 4
14 5 1 6 -9 0 -22 -6 -29 -14z"/>
<path d="M6300 2600 c-9 -6 -10 -10 -3 -10 6 0 15 5 18 10 8 12 4 12 -15 0z"/>
<path d="M9994 2285 c0 -71 1 -99 3 -62 2 37 2 96 0 130 -2 34 -3 4 -3 -68z"/>
<path d="M7703 2280 c0 -25 2 -35 4 -22 2 12 2 32 0 45 -2 12 -4 2 -4 -23z"/>
<path d="M3514 2005 c0 -132 2 -185 3 -117 2 68 2 176 0 240 -1 64 -3 9 -3
-123z"/>
<path d="M5848 2143 c7 -3 16 -2 19 1 4 3 -2 6 -13 5 -11 0 -14 -3 -6 -6z"/>
<path d="M6163 2143 c48 -2 125 -2 170 0 45 1 6 3 -88 3 -93 0 -130 -2 -82 -3z"/>
<path d="M3724 1945 l1 -155 620 2 c341 2 538 4 439 5 -213 4 -194 -11 -194
151 0 75 3 102 13 103 70 3 513 -3 520 -8 5 -3 6 -40 3 -82 -3 -42 -6 -95 -6
-118 l0 -42 -42 -4 c-35 -3 -31 -4 18 -5 l62 -2 7 130 7 130 33 0 c33 0 34 -1
28 -37 -5 -27 -3 -34 6 -29 9 6 12 -8 10 -56 -2 -63 5 -93 20 -84 3 3 7 -4 7
-15 0 -24 -13 -25 -19 -1 -3 10 -5 6 -6 -10 l-1 -28 138 2 c83 1 106 3 57 5
-112 4 -125 8 -125 38 l0 25 208 -2 207 -3 -1 -32 -2 -33 342 2 341 3 -323 2
-323 3 3 133 3 132 320 0 320 0 6 -115 5 -115 2 113 2 112 150 0 151 0 -3
-127 -3 -128 -153 0 c-83 0 -152 -3 -152 -8 0 -4 125 -6 278 -5 152 1 262 3
244 6 l-33 3 2 142 1 142 -23 2 c-99 8 -169 9 -169 1 0 -4 -214 -8 -475 -8
-299 0 -475 4 -475 10 0 6 -371 9 -1024 9 l-1023 0 1 -154z m156 103 c0 6 11
12 24 12 l24 0 1 -130 2 -130 -29 0 c-17 0 -32 6 -35 13 -10 26 -8 252 3 237
6 -10 10 -11 10 -2z m2935 2 c13 -6 5 -7 -25 -3 -25 3 -47 7 -49 9 -9 8 55 2
74 -6z m83 -96 c2 -49 0 -85 -4 -81 -4 4 -7 37 -6 73 2 49 0 64 -9 58 -7 -4
-9 -3 -5 4 4 7 -9 12 -36 15 l-43 4 50 1 c38 2 46 5 35 13 -13 9 -13 10 0 6
12 -3 16 -24 18 -93z m-102 -113 c5 -22 9 -23 54 -19 28 3 50 2 50 -2 0 -4
-25 -8 -55 -9 -47 -2 -55 1 -56 16 0 16 -1 16 -9 -2 l-9 -20 -1 20 c-1 19 -2
19 -9 1 -5 -13 -10 -16 -14 -9 -4 7 -3 14 3 18 5 3 11 25 12 48 l1 42 7 -45
c6 -40 7 -35 10 40 l4 85 3 -70 c2 -38 6 -81 9 -94z"/>
<path d="M3888 2023 c7 -3 16 -2 19 1 4 3 -2 6 -13 5 -11 0 -14 -3 -6 -6z"/>
<path d="M3903 1880 c0 -25 2 -35 4 -22 2 12 2 32 0 45 -2 12 -4 2 -4 -23z"/>
<path d="M6474 1935 c0 -66 1 -92 3 -57 2 34 2 88 0 120 -2 31 -3 3 -3 -63z"/>
<path d="M7210 1949 c0 -13 3477 -11 3486 2 3 6 -659 9 -1740 9 -1164 0 -1746
-4 -1746 -11z"/>
<path d="M3513 1720 c0 -25 2 -35 4 -22 2 12 2 32 0 45 -2 12 -4 2 -4 -23z"/>
<path d="M12369 1666 c-13 -13 -386 -15 -2661 -16 l-2498 0 0 -100 c0 -60 4
-100 10 -100 6 0 10 38 10 95 l0 95 185 0 185 0 0 -90 0 -90 -141 1 c-77 0
-144 -2 -147 -6 -4 -3 62 -5 146 -3 l152 3 0 -727 0 -728 85 0 85 0 0 358 0
357 192 -3 c106 -2 194 -5 196 -7 2 -2 6 -160 9 -352 3 -191 7 -350 9 -352 2
-2 4 156 4 351 0 276 3 357 13 359 6 2 108 3 224 1 l213 -3 3 -357 2 -357 3
363 2 362 220 0 220 0 0 -360 c0 -233 4 -360 10 -360 6 0 10 125 10 355 l0
356 196 -1 c108 -1 198 1 202 4 3 3 18 6 34 6 l28 0 0 -360 c0 -251 3 -360 11
-360 7 0 10 105 7 355 l-3 355 178 0 177 0 0 -355 c0 -239 3 -355 10 -355 7 0
10 116 9 358 l-1 357 23 3 22 4 -7 -361 c-6 -258 -5 -361 3 -361 8 0 11 107
11 359 l0 359 153 4 c83 2 158 2 164 0 10 -3 13 -88 16 -361 1 -196 3 -30 4
368 1 585 4 726 15 732 10 7 10 9 1 9 -9 0 -13 24 -13 84 l0 84 193 -2 192 -1
3 -92 c4 -124 22 -120 22 4 0 53 3 93 8 89 4 -4 7 -11 7 -14 0 -4 5 -14 10
-22 6 -9 11 -316 13 -808 l4 -792 49 0 49 0 0 194 0 194 36 7 c36 6 149 81
210 137 30 29 31 29 145 26 l114 -3 -3 -257 c-2 -141 -1 -266 3 -277 18 -59
25 -4 25 204 l0 226 106 -3 107 -3 -2 -222 c-2 -192 0 -223 13 -223 8 0 17 10
19 23 l4 22 2 -22 c1 -17 7 -23 26 -23 l25 0 0 193 c0 105 3 202 6 214 6 21 9
22 225 23 l219 1 0 -216 c0 -137 4 -215 10 -215 6 0 10 100 10 280 0 244 2
280 15 280 11 0 14 -7 10 -22 -7 -31 -14 -464 -7 -506 13 -90 19 2 25 346 3
245 2 380 -4 387 -7 7 -9 5 -7 -5 3 -13 -50 -15 -419 -18 -233 -1 -423 1 -423
5 0 3 7 15 17 25 9 10 11 18 5 18 -6 0 -12 -6 -15 -12 -4 -10 -7 -10 -17 -1
-17 16 6 47 29 38 13 -5 13 -4 4 6 -10 10 -21 6 -53 -20 -23 -18 -43 -31 -46
-29 -2 3 24 26 58 52 48 35 69 45 88 41 14 -3 189 -8 390 -11 377 -5 425 -8
399 -25 -7 -5 -9 -9 -3 -9 6 0 11 -7 11 -15 0 -8 -4 -15 -9 -15 -5 0 -3 -7 6
-15 12 -13 57 -15 280 -15 l266 0 0 185 0 185 -435 0 -435 0 0 45 0 45 435 0
c283 0 435 3 435 10 0 6 -19 11 -42 12 l-43 1 45 7 c25 4 -144 8 -375 10 -231
1 -427 1 -434 0 -13 -2 -13 0 0 16 8 11 9 15 2 10 -7 -4 -13 -3 -13 2 0 6 7
13 16 16 9 3 202 6 430 6 280 0 414 3 414 10 0 8 -132 10 -415 8 -228 -2 -415
-3 -415 -2 0 1 248 216 308 267 l44 37 239 0 c232 0 239 1 239 20 0 19 -7 20
-213 20 -118 0 -216 -2 -218 -4z m-4712 -58 c-3 -8 -6 -5 -6 6 -1 11 2 17 5
13 3 -3 4 -12 1 -19z m4538 -28 c10 -11 16 -20 13 -20 -3 0 -13 9 -23 20 -10
11 -16 20 -13 20 3 0 13 -9 23 -20z m55 16 c0 -2 -6 -9 -14 -15 -11 -9 -16 -9
-22 0 -4 7 -3 9 4 5 6 -3 13 -2 17 4 6 10 15 14 15 6z m-139 -100 c-6 -7 -9
-15 -6 -18 3 -3 -3 -11 -12 -19 -15 -11 -16 -11 -6 1 10 10 10 17 1 27 -9 11
-8 13 3 11 8 -2 13 3 11 10 -1 8 2 11 8 7 8 -5 8 -11 1 -19z m-314 -262 c-3
-3 -12 -4 -19 -1 -8 3 -5 6 6 6 11 1 17 -2 13 -5z m170 0 c-3 -3 -12 -4 -19
-1 -8 3 -5 6 6 6 11 1 17 -2 13 -5z m-70 -46 c-3 -7 -5 -2 -5 12 0 14 2 19 5
13 2 -7 2 -19 0 -25z m80 -74 c-3 -3 -12 -4 -19 -1 -8 3 -5 6 6 6 11 1 17 -2
13 -5z m241 -1 c-32 -2 -86 -2 -120 0 -35 2 -9 3 57 3 66 0 94 -1 63 -3z
m-828 -387 c0 -2 -7 -7 -16 -10 -8 -3 -12 -2 -9 4 6 10 25 14 25 6z m-215 -56
c-10 -11 -22 -20 -28 -20 -5 0 1 9 14 20 31 25 37 25 14 0z m225 -11 c0 -6 -4
-7 -10 -4 -5 3 -10 11 -10 16 0 6 5 7 10 4 6 -3 10 -11 10 -16z m250 -136 c0
-21 -4 -43 -8 -49 -4 -6 -51 -11 -109 -13 l-103 -3 0 51 0 51 110 0 110 0 0
-37z m45 27 c-4 -6 -9 -23 -11 -37 -8 -43 -14 -40 -14 5 0 31 4 42 16 42 8 0
12 -5 9 -10z m485 -33 c0 -23 -4 -36 -10 -32 -5 3 -10 2 -10 -4 0 -6 -34 -12
-77 -14 l-78 -4 87 1 c47 1 81 -2 75 -6 -17 -11 -399 -8 -422 3 -16 7 -14 8
10 4 l30 -5 -25 14 c-23 13 -34 44 -26 71 2 6 86 10 225 10 l221 1 0 -39z
m-1190 13 c0 -5 -5 -10 -11 -10 -5 0 -7 5 -4 10 3 6 8 10 11 10 2 0 4 -4 4
-10z"/>
<path d="M10771 1584 c0 -11 3 -14 6 -6 3 7 2 16 -1 19 -3 4 -6 -2 -5 -13z"/>
<path d="M3720 756 l0 -756 73 1 c39 0 66 3 60 6 -25 9 -12 21 35 32 26 7 52
10 57 9 6 -2 12 64 15 177 l6 180 2 -202 c1 -137 6 -203 13 -203 6 0 10 15 9
32 -1 18 -2 155 -1 305 1 266 1 271 21 266 23 -6 21 19 20 -380 l-1 -223 57 0
57 0 -7 205 -7 204 178 3 c98 2 190 2 206 0 l27 -3 -2 -172 -3 -172 -35 2
c-54 3 -100 13 -100 22 0 4 -36 6 -79 4 -45 -3 -88 0 -99 6 -23 12 -32 -2 -32
-48 0 -48 11 -51 202 -51 l178 0 0 300 0 300 240 0 240 0 1 23 c1 21 1 21 8
-3 l8 -25 5 25 c5 23 5 23 7 3 0 -13 4 -23 9 -23 4 0 6 81 6 180 -1 100 1 178
4 175 3 -3 7 -76 9 -163 2 -86 6 -301 10 -477 l8 -320 8 287 c5 158 6 292 2
298 -4 6 6 10 25 10 l31 0 -1 -253 c-3 -321 -2 -337 10 -337 6 0 10 75 10 205
l0 205 143 0 c79 0 185 3 235 6 l92 7 0 -212 c0 -208 0 -211 21 -211 l21 0 -7
295 -7 295 24 0 23 0 -3 -295 c-2 -202 0 -295 7 -295 8 0 11 96 11 300 l0 300
163 2 c156 2 158 2 37 5 -154 4 -158 7 -163 120 l-3 78 -2 -87 c-1 -61 2 -88
11 -91 6 -2 9 -7 6 -11 -3 -3 -14 -4 -23 0 -14 5 -16 34 -16 269 0 145 -4 266
-8 269 -4 2 -98 7 -207 10 -122 3 -192 2 -180 -4 19 -8 19 -9 -2 -9 -13 -1
-23 4 -23 9 0 6 -18 10 -40 10 -22 0 -40 -4 -40 -9 0 -4 -19 -6 -42 -4 -55 5
-68 10 -68 23 0 7 98 10 316 10 268 -1 315 -4 310 -16 -7 -19 28 -18 44 1 16
20 110 17 110 -2 0 -7 -5 -13 -11 -13 -5 0 -8 -4 -4 -10 3 -5 11 -8 18 -6 7 1
9 1 5 -1 -14 -8 -8 -25 6 -20 10 4 13 1 9 -9 -3 -9 2 -14 17 -14 17 0 20 -4
15 -22 -5 -16 0 -13 14 10 29 45 35 40 10 -8 -12 -23 -19 -43 -17 -46 10 -9
38 9 38 25 0 13 2 14 9 2 6 -9 4 -19 -5 -29 -16 -16 -14 -34 4 -40 7 -2 12 3
12 11 0 8 17 32 38 54 20 22 31 32 24 22 -9 -11 -10 -19 -3 -23 6 -4 -2 -24
-20 -50 -33 -50 -39 -78 -11 -53 10 10 22 14 26 10 4 -4 18 6 31 21 19 22 25
25 25 12 0 -9 -7 -19 -15 -22 -23 -9 -6 -26 18 -18 12 3 18 3 14 -2 -4 -5 -24
-8 -44 -9 -22 0 -38 -6 -41 -14 -4 -11 3 -13 34 -8 22 4 33 3 26 -2 -10 -6 -5
-12 18 -21 27 -11 33 -11 41 1 7 12 9 12 10 -1 1 -8 1 -19 0 -23 -1 -5 9 -5
21 -2 21 7 21 6 -4 -14 -14 -11 -31 -21 -37 -21 -6 0 -8 -7 -4 -15 3 -9 -1
-23 -9 -33 -8 -9 -22 -35 -32 -57 -9 -22 -21 -48 -26 -57 -6 -10 -10 -26 -10
-36 0 -10 -4 -22 -9 -27 -4 -6 -11 -23 -15 -40 l-6 -30 15 28 c18 32 30 36 22
7 -3 -12 -1 -18 5 -14 6 4 8 -2 3 -16 -4 -14 -3 -20 3 -16 9 5 82 182 97 234
9 33 64 92 84 92 17 0 41 -18 41 -31 0 -4 -13 -10 -29 -14 l-28 -6 28 -29 c16
-16 29 -34 29 -42 -1 -7 -9 -3 -21 11 -11 13 -23 21 -26 17 -4 -4 -3 -10 2
-14 16 -11 36 -62 25 -62 -6 0 -10 6 -10 14 0 8 -4 17 -9 20 -5 3 -3 -14 5
-39 11 -38 11 -45 -1 -45 -7 0 -16 8 -18 18 -2 9 -2 6 0 -8 5 -34 5 -35 -1
-120 -4 -44 -3 -67 2 -55 8 17 9 17 16 -9 5 -21 2 -31 -11 -41 -10 -7 -21 -11
-24 -9 -4 2 -5 -5 -2 -15 3 -13 -2 -21 -16 -26 -12 -3 -21 -12 -21 -18 0 -7
-28 -25 -62 -40 -34 -15 -59 -29 -56 -32 3 -3 25 3 49 14 24 10 69 21 99 24
65 7 38 -8 -36 -19 -27 -4 -53 -13 -59 -20 -5 -7 -19 -15 -30 -18 -11 -3 5 -2
35 1 30 3 62 7 70 8 8 1 32 7 53 14 21 7 41 10 45 6 7 -7 -26 -30 -44 -30 -6
0 -18 -6 -27 -13 -9 -8 -40 -16 -69 -19 -29 -3 -55 -7 -58 -10 -9 -9 165 0
177 9 7 6 19 8 27 5 7 -3 18 -1 24 5 13 13 32 2 32 -18 0 -9 -12 -14 -37 -15
-21 0 -72 -6 -113 -14 -65 -11 -70 -13 -35 -16 22 -1 49 -3 60 -4 11 -1 29 -3
39 -4 37 -2 1 -21 -60 -31 -56 -9 -55 -9 21 -4 44 3 90 8 102 11 18 4 25 -1
33 -21 5 -14 14 -26 20 -26 14 0 -59 -64 -95 -83 l-30 -16 26 -1 c14 0 31 6
37 12 7 7 16 13 20 14 22 3 44 19 56 42 7 13 16 20 19 15 4 -6 -7 -25 -23 -43
-32 -35 -33 -55 -2 -27 10 10 22 14 27 10 4 -5 5 -2 1 5 -4 6 -4 17 0 23 4 7
12 1 19 -17 13 -29 13 -28 8 11 -8 67 -43 187 -69 238 -13 27 -21 54 -17 59 3
7 1 8 -5 4 -16 -10 -15 7 1 23 10 10 9 12 -2 9 -9 -2 -19 18 -32 61 -10 35
-24 69 -30 75 -9 8 -9 6 0 -11 12 -25 13 -78 2 -108 -15 -36 -31 72 -19 125 5
25 11 70 14 100 2 30 9 95 14 143 11 95 9 104 -24 117 -19 8 -18 9 8 9 18 1
41 12 58 28 l29 27 24 -29 c26 -32 34 -23 10 9 -18 24 -19 36 -3 36 6 0 8 -3
5 -7 -4 -3 0 -17 9 -31 8 -13 13 -26 10 -29 -3 -3 -1 -14 4 -24 6 -9 12 -84
15 -166 6 -160 13 -248 21 -275 8 -27 27 -22 20 5 -7 30 3 69 17 60 6 -4 8 2
5 15 -3 12 0 29 8 39 8 10 13 14 12 8 -3 -16 41 -107 50 -101 9 5 67 -82 59
-90 -2 -3 -13 12 -24 33 -11 21 -24 36 -29 33 -5 -3 -8 -9 -6 -14 2 -5 4 -24
6 -42 1 -19 6 -37 10 -41 5 -5 5 3 1 16 -5 17 -4 21 5 16 7 -4 9 -17 6 -31 -3
-12 -1 -34 5 -48 10 -22 8 -29 -15 -56 -14 -17 -27 -44 -27 -58 -4 -61 2 -157
9 -164 5 -5 7 17 5 47 -2 35 2 66 11 84 9 16 13 31 10 34 -3 3 -3 15 1 26 11
34 25 14 26 -37 l1 -47 13 30 c8 19 12 66 11 137 -1 72 1 105 8 98 11 -11 13
-90 6 -236 -4 -77 -7 -89 -18 -75 -11 14 -12 13 -3 -6 6 -12 11 -31 11 -42 0
-16 6 -21 24 -21 23 0 24 3 20 37 -5 31 -3 35 6 23 10 -13 11 -12 6 3 -3 10
-6 21 -6 23 0 3 -4 3 -8 0 -4 -2 -6 29 -4 71 4 100 28 146 144 279 16 18 15
19 -9 21 -16 0 -21 -2 -14 -7 9 -5 7 -9 -7 -12 -18 -5 -19 -3 -10 18 6 13 15
21 19 18 5 -3 9 3 9 12 0 10 8 27 17 38 13 15 10 14 -10 -3 -38 -34 -34 -11 8
39 39 47 45 66 15 50 -15 -8 -20 -8 -20 2 0 7 -6 4 -12 -6 -8 -15 -8 -21 0
-24 6 -2 -8 -35 -34 -78 -24 -42 -44 -77 -44 -79 0 -2 -11 -21 -25 -41 -14
-20 -25 -34 -25 -31 0 15 37 85 61 117 26 35 59 93 59 105 0 3 -4 3 -10 0 -17
-10 -11 16 12 54 l21 36 -25 -23 -26 -23 4 33 c2 18 7 40 10 48 3 8 8 28 11
45 3 16 11 42 19 57 8 16 12 28 9 28 -3 0 -24 -39 -47 -87 -33 -70 -39 -90
-30 -104 7 -10 9 -26 5 -35 -4 -12 -3 -15 5 -10 8 5 10 1 5 -10 -4 -11 -8 -13
-11 -6 -2 7 -8 10 -13 6 -5 -3 -9 3 -9 13 0 15 -2 16 -10 3 -13 -21 -12 -43 2
-34 7 4 8 3 4 -5 -4 -6 -12 -9 -17 -6 -5 4 -9 -2 -10 -12 0 -10 -3 -13 -5 -6
-6 13 39 149 68 206 11 22 17 41 14 44 -3 3 -11 -11 -19 -30 -16 -36 -42 -63
-30 -30 3 10 9 23 12 28 3 6 7 28 8 50 2 22 8 53 14 68 7 15 10 30 7 32 -2 3
-15 -25 -27 -61 -25 -70 -39 -81 -21 -16 11 43 9 139 -3 159 -10 16 -6 93 4
87 4 -2 10 0 13 5 4 5 2 12 -3 16 -6 3 10 34 34 70 24 35 38 62 30 58 -22 -8
-18 10 5 25 11 7 20 19 20 28 0 8 -5 12 -10 9 -6 -4 -8 -11 -5 -16 3 -5 -1 -6
-9 -3 -17 7 -11 30 10 38 16 6 19 46 3 46 -6 0 -20 -5 -32 -11 -14 -6 -10 0
11 18 18 15 32 33 32 38 0 6 16 25 35 42 19 18 35 41 35 51 0 19 -40 19 -1640
21 l-1640 2 0 -755z m1603 737 c-23 -2 -64 -2 -90 0 -26 2 -7 3 42 3 50 0 71
-1 48 -3z m635 0 c-15 -2 -42 -2 -60 0 -18 2 -6 4 27 4 33 0 48 -2 33 -4z
m132 -29 c0 -4 -15 -21 -33 -38 -50 -48 -110 -138 -98 -146 5 -3 6 -20 4 -38
l-5 -33 -812 5 c-446 3 -945 5 -1108 5 l-298 1 0 120 0 120 1140 0 1140 0 -20
-20 c-11 -11 -20 -24 -20 -29 0 -5 -6 -16 -12 -23 -16 -17 -59 -100 -55 -105
2 -1 26 32 53 74 27 42 63 85 79 95 31 19 45 22 45 12z m250 2 c0 -2 -9 -6
-20 -9 -11 -3 -20 -1 -20 4 0 5 9 9 20 9 11 0 20 -2 20 -4z m285 -16 c1 -20
-51 -125 -70 -140 -8 -7 -15 -19 -15 -26 0 -8 -5 -14 -11 -14 -5 0 -7 5 -4 10
3 6 -5 14 -18 19 -14 6 -26 13 -28 18 -2 4 -21 16 -41 27 -22 11 -39 28 -43
43 -3 14 -13 32 -20 40 -8 8 -15 21 -15 29 0 23 265 16 265 -6z m116 -29 c-12
-16 -21 -34 -21 -39 0 -6 -4 -14 -10 -17 -7 -4 -7 3 0 19 19 51 43 91 47 79 3
-7 -5 -26 -16 -42z m69 0 c-22 -32 -30 -38 -30 -22 0 12 41 63 47 57 3 -3 -5
-19 -17 -35z m-40 -6 c-18 -29 -19 -35 -6 -35 20 0 20 -14 1 -30 -9 -7 -13
-15 -10 -18 3 -3 0 -11 -5 -17 -8 -9 -6 -14 6 -19 20 -8 34 1 34 22 0 9 16 27
35 40 19 12 35 20 35 17 0 -4 -22 -29 -49 -56 -33 -33 -51 -46 -55 -37 -5 10
-7 10 -12 1 -3 -7 -15 -23 -26 -35 l-20 -23 20 36 c12 22 17 42 12 50 -6 10
-12 6 -21 -14 -7 -15 -16 -27 -21 -27 -8 0 62 139 85 168 20 25 18 11 -3 -23z
m110 31 c0 -2 -8 -10 -17 -17 -16 -13 -17 -12 -4 4 13 16 21 21 21 13z m-56
-51 c-9 -14 -19 -23 -22 -20 -5 4 26 45 35 45 2 0 -4 -11 -13 -25z m-771 -19
c-10 -14 -22 -26 -26 -26 -5 0 2 13 15 29 28 35 37 32 11 -3z m226 -41 c-23
-39 -119 -129 -127 -120 -5 4 136 155 145 155 1 0 -7 -16 -18 -35z m-125 -27
c-23 -24 -48 -54 -57 -67 -17 -26 -61 -41 -51 -18 6 12 135 127 143 127 3 0
-13 -19 -35 -42z m-154 -8 c-8 -20 -16 -28 -23 -21 -6 6 -3 18 9 34 24 32 30
26 14 -13z m108 20 c-7 -10 -14 -17 -17 -15 -4 4 18 35 25 35 2 0 -1 -9 -8
-20z m74 -37 c-30 -42 -69 -76 -75 -66 -7 10 82 107 90 99 3 -3 -4 -17 -15
-33z m678 27 c0 -5 -5 -10 -11 -10 -14 0 -89 -78 -141 -147 -22 -29 -42 -53
-45 -53 -11 0 87 128 131 172 48 47 66 58 66 38z m-825 -66 c-10 -22 -19 -33
-22 -26 -3 6 -9 10 -14 6 -15 -9 -10 9 12 45 28 47 46 28 24 -25z m277 19
c-11 -16 -32 -39 -48 -53 -32 -30 -16 -4 31 48 36 39 43 41 17 5z m547 -2
c-13 -11 -26 -17 -29 -14 -6 6 30 33 43 33 5 0 -1 -9 -14 -19z m31 -16 c-7 -8
-16 -13 -20 -10 -5 3 -16 -5 -24 -17 -9 -12 -18 -20 -20 -17 -7 7 6 23 34 42
30 21 47 22 30 2z m-92 -42 c-9 -10 -13 -25 -10 -33 2 -8 1 -12 -3 -8 -14 13
-37 -13 -25 -27 6 -7 10 -17 9 -21 -1 -5 1 -22 6 -37 8 -31 -1 -49 -14 -28 -6
9 -8 1 -6 -20 2 -19 4 -41 5 -49 1 -10 4 -9 10 5 6 15 7 11 7 -17 -1 -21 -2
-36 -3 -35 -19 21 -63 111 -58 119 4 7 2 8 -4 4 -25 -15 -11 10 19 35 20 16
28 29 21 33 -6 3 -23 -9 -37 -28 -22 -29 -24 -38 -15 -55 7 -15 8 -27 1 -39
-9 -15 -10 -14 -8 7 1 13 -3 25 -8 27 -6 3 -10 -13 -10 -35 0 -22 2 -38 5 -36
3 2 6 -4 6 -13 1 -9 4 -30 8 -47 3 -16 3 -24 0 -17 -3 6 -10 10 -15 7 -4 -3
-11 6 -15 20 -3 14 -10 25 -16 25 -5 0 -7 -8 -5 -17 19 -69 17 -100 -3 -50 -7
18 -9 19 -9 4 -1 -10 5 -28 11 -40 7 -12 13 -31 14 -42 0 -11 4 -33 8 -50 6
-23 3 -20 -13 13 -32 67 -32 49 0 -39 16 -44 31 -96 34 -114 4 -37 23 -80 32
-72 2 3 -1 15 -7 27 -6 12 -10 24 -7 26 2 3 14 -18 26 -45 23 -54 28 -85 6
-36 -8 17 -14 23 -15 15 0 -25 -58 70 -101 169 -35 80 -40 100 -35 138 7 53
56 179 88 226 53 78 131 177 136 172 3 -3 -2 -13 -10 -22z m92 14 c0 -2 -17
-19 -37 -38 l-38 -34 34 38 c33 34 41 42 41 34z m-2313 -59 c-3 -7 -5 -2 -5
12 0 14 2 19 5 13 2 -7 2 -19 0 -25z m30 10 c1 -11 8 -25 15 -29 9 -6 8 -10
-5 -15 -10 -4 -18 -18 -18 -38 l-2 -31 -4 30 c-3 17 -9 36 -15 43 -7 8 -7 12
0 12 6 0 13 -6 16 -12 4 -7 4 4 2 25 -3 20 -1 37 3 37 3 0 7 -10 8 -22z m411
15 c-71 -2 -185 -2 -255 0 -71 1 -13 3 127 3 140 0 198 -2 128 -3z m812 -3 c0
-5 -4 -10 -10 -10 -5 0 -10 5 -10 10 0 6 5 10 10 10 6 0 10 -4 10 -10z m157
-12 c-3 -8 -6 -5 -6 6 -1 11 2 17 5 13 3 -3 4 -12 1 -19z m79 -3 c-8 -11 -19
-19 -25 -17 -6 1 -11 -5 -11 -15 0 -9 -3 -13 -6 -10 -13 13 17 66 37 64 17 -1
17 -3 5 -22z m-1523 8 c-13 -2 -33 -2 -45 0 -13 2 -3 4 22 4 25 0 35 -2 23 -4z
m1611 -15 c-4 -7 -16 -19 -27 -27 -10 -7 -27 -27 -38 -45 -10 -17 -19 -25 -19
-18 0 7 19 33 41 57 41 44 57 57 43 33z m66 9 c0 -2 -15 -16 -32 -33 l-33 -29
29 33 c28 30 36 37 36 29z m-2162 -14 c-10 -2 -28 -2 -40 0 -13 2 -5 4 17 4
22 1 32 -1 23 -4z m385 0 c-68 -2 -178 -2 -245 0 -68 1 -13 3 122 3 135 0 190
-2 123 -3z m555 0 c-71 -2 -185 -2 -255 0 -71 1 -13 3 127 3 140 0 198 -2 128
-3z m-115 -20 c-46 -2 -120 -2 -165 0 -46 1 -9 3 82 3 91 0 128 -2 83 -3z
m220 0 c-13 -2 -33 -2 -45 0 -13 2 -3 4 22 4 25 0 35 -2 23 -4z m1707 1 c0 -8
-19 -13 -24 -6 -3 5 1 9 9 9 8 0 15 -2 15 -3z m-2173 -46 c-3 -7 -5 -2 -5 12
0 14 2 19 5 13 2 -7 2 -19 0 -25z m460 -30 c-2 -13 -4 -3 -4 22 0 25 2 35 4
23 2 -13 2 -33 0 -45z m1110 27 c0 -8 -8 -22 -18 -31 -15 -13 -17 -13 -15 -1
2 13 24 47 31 47 1 0 2 -7 2 -15z m-1630 -217 c-1 -40 -3 -10 -3 67 0 77 1
110 3 73 2 -37 2 -100 0 -140z m33 -239 l-11 -24 6 25 c2 14 6 119 7 235 l3
210 2 -211 c2 -132 -1 -220 -7 -235z m1650 427 c0 -2 -8 -10 -17 -17 -16 -13
-17 -12 -4 4 13 16 21 21 21 13z m-1663 -78 c-2 -13 -4 -3 -4 22 0 25 2 35 4
23 2 -13 2 -33 0 -45z m40 0 c-2 -13 -4 -5 -4 17 -1 22 1 32 4 23 2 -10 2 -28
0 -40z m2160 -5 c-3 -10 -5 -4 -5 12 0 17 2 24 5 18 2 -7 2 -21 0 -30z m-54
-26 c28 -80 28 -82 1 -32 -27 48 -38 89 -23 80 4 -3 14 -24 22 -48z m-513 23
c0 -5 -5 -10 -11 -10 -5 0 -7 5 -4 10 3 6 8 10 11 10 2 0 4 -4 4 -10z m70 -44
c0 -2 -11 -11 -25 -20 -14 -9 -25 -13 -25 -8 0 5 10 14 23 20 27 13 27 13 27
8z m-1220 -86 c0 -22 -4 -40 -10 -40 -5 0 -10 18 -10 40 0 22 5 40 10 40 6 0
10 -18 10 -40z m1657 -122 c-3 -8 -6 -5 -6 6 -1 11 2 17 5 13 3 -3 4 -12 1
-19z m-177 -153 c-6 -33 -8 -26 -8 40 0 66 2 73 8 40 4 -22 4 -58 0 -80z m237
63 c-3 -8 -6 -5 -6 6 -1 11 2 17 5 13 3 -3 4 -12 1 -19z m-1794 -5 c-23 -2
-64 -2 -90 0 -26 2 -7 3 42 3 50 0 71 -1 48 -3z m-463 -108 l0 -75 -210 0
-210 0 0 78 0 77 210 -3 210 -3 0 -74z m1135 -3 l0 -77 -207 0 c-201 0 -208 1
-209 20 -1 16 -2 17 -6 3 -3 -11 -10 -15 -20 -11 -11 4 -14 2 -9 -5 4 -7 2
-12 -3 -12 -7 0 -11 30 -11 80 l0 80 233 0 232 0 0 -78z m1154 -2 c-17 -27
-33 -50 -36 -50 -3 0 2 11 11 25 9 14 13 25 9 25 -3 0 4 11 17 25 34 36 34 31
-1 -25z m25 -2 c-18 -34 -54 -85 -54 -75 0 8 62 107 67 107 2 0 -4 -15 -13
-32z m-154 -40 c18 -29 25 -46 18 -38 -18 19 -61 90 -55 90 3 0 20 -24 37 -52z
m74 -54 c3 -8 2 -12 -4 -9 -6 3 -10 10 -10 16 0 14 7 11 14 -7z m77 -31 c-12
-15 -31 -39 -42 -53 l-20 -25 15 31 c16 34 58 85 65 79 2 -2 -6 -17 -18 -32z
m-461 -47 c0 -3 -4 -8 -10 -11 -5 -3 -10 -1 -10 4 0 6 5 11 10 11 6 0 10 -2
10 -4z m-2643 -233 c-2 -27 -3 -5 -3 47 0 52 1 74 3 48 2 -27 2 -69 0 -95z
m320 115 c-3 -8 -6 -5 -6 6 -1 11 2 17 5 13 3 -3 4 -12 1 -19z m0 -120 c-2
-13 -4 -3 -4 22 0 25 2 35 4 23 2 -13 2 -33 0 -45z"/>
<path d="M6742 1358 c-15 -15 -16 -38 0 -38 6 0 8 3 5 6 -3 4 -2 15 4 25 11
22 8 24 -9 7z"/>
<path d="M6045 1170 c-3 -5 -1 -10 4 -10 6 0 11 5 11 10 0 6 -2 10 -4 10 -3 0
-8 -4 -11 -10z"/>
<path d="M10473 1463 c48 -2 126 -2 175 0 48 1 8 3 -88 3 -96 0 -136 -2 -87
-3z"/>
<path d="M7214 1200 c0 -135 2 -190 3 -122 2 67 2 177 0 245 -1 67 -3 12 -3
-123z"/>
<path d="M10755 720 c0 -399 1 -562 2 -363 2 200 2 526 0 725 -1 200 -2 37 -2
-362z"/>
<path d="M6912 1175 c0 -16 2 -22 5 -12 2 9 2 23 0 30 -3 6 -5 -1 -5 -18z"/>
<path d="M3510 1133 c0 -5 -789 -7 -1754 -5 l-1754 2 -2 -185 -1 -185 144 0
c136 0 145 -1 150 -20 5 -19 0 -20 -96 -21 -56 0 -124 -5 -152 -9 -32 -6 4 -7
103 -3 l152 5 -2 -39 -3 -38 -148 -3 c-122 -2 -147 -5 -147 -17 0 -13 24 -15
145 -15 l145 0 0 -300 c0 -165 4 -300 8 -300 9 0 22 374 22 622 l0 138 205 0
205 0 0 -108 c0 -60 3 -231 7 -380 6 -257 7 -272 25 -272 18 0 19 12 12 376
l-7 376 27 -4 27 -3 -1 -372 c0 -248 3 -373 10 -373 7 0 10 117 10 348 l0 347
217 -4 c120 -3 206 -6 191 -8 -23 -4 -28 -9 -28 -31 0 -19 3 -23 9 -14 4 8 11
13 15 13 18 -3 19 1 1 9 -19 8 -19 9 3 9 l22 1 0 -335 c0 -217 4 -335 10 -335
6 0 10 124 10 351 0 240 3 350 11 347 7 -2 10 -116 9 -351 0 -230 3 -347 10
-347 7 0 10 126 10 375 l0 375 29 0 c21 0 30 -6 35 -22 3 -13 6 -182 6 -375 0
-318 2 -353 16 -353 15 0 16 17 12 157 -3 87 -3 127 -1 88 2 -38 7 -73 11 -77
4 -4 6 28 4 70 -2 42 -8 81 -13 87 -5 5 -8 79 -7 165 l2 155 6 -125 c3 -69 7
-106 8 -82 l2 42 120 0 120 0 0 -80 0 -80 -40 0 -40 0 0 -40 0 -40 90 0 90 0
-4 -123 c-2 -67 -1 -109 3 -92 4 17 6 55 5 85 -2 42 0 35 10 -30 12 -80 13
-83 18 -40 l5 45 1 -42 c1 -24 7 -43 12 -43 7 0 9 121 8 357 l-3 358 -207 0
c-193 -1 -208 1 -208 17 0 17 15 18 215 18 198 0 215 -1 215 -17 1 -17 1 -17
14 0 12 15 14 14 20 -20 3 -21 6 -190 6 -375 0 -294 2 -338 15 -338 13 0 15
49 15 380 l0 380 800 -2 800 -3 0 193 c0 105 -2 192 -5 192 -3 0 -5 -3 -5 -7z
m-2220 -397 c0 -8 -4 -16 -10 -18 -5 -1 -104 -2 -219 0 -179 2 -209 5 -204 17
8 22 433 22 433 1z m278 -53 c-26 -2 -71 -2 -100 0 -29 2 -8 3 47 3 55 0 79
-1 53 -3z m202 -7 c0 -11 -20 -15 -89 -18 -49 -2 -87 0 -84 5 2 4 41 8 86 9
71 1 76 2 37 8 l-45 7 48 1 c35 2 47 -2 47 -12z m37 8 c-3 -3 -12 -4 -19 -1
-8 3 -5 6 6 6 11 1 17 -2 13 -5z m-292 -19 c-23 -8 -85 -10 -85 -3 0 4 21 8
48 7 26 0 43 -2 37 -4z m292 -7 c-9 -8 -18 -32 -20 -58 -3 -42 -4 -41 -5 13
-2 53 0 57 20 57 20 0 20 -1 5 -12z m-39 -55 l-1 -48 -4 42 c-4 41 -5 42 -39
39 -19 -2 -37 0 -40 5 -3 5 15 9 40 9 l46 0 -2 -47z m-136 -3 l-4 -40 -54 0
-54 0 0 40 0 40 58 0 58 0 -4 -40z m178 -127 c0 -122 -3 -164 -11 -156 -8 8
-9 57 -4 167 4 86 9 156 11 156 2 0 4 -75 4 -167z m-30 -72 c0 -44 -4 -83 -10
-86 -6 -4 -10 25 -10 79 0 51 4 86 10 86 6 0 10 -33 10 -79z"/>
<path d="M6856 1121 c-12 -13 -14 -21 -6 -26 5 -3 7 -12 3 -18 -4 -7 -9 -23
-10 -37 -2 -22 -1 -23 6 -5 5 11 12 28 15 38 3 9 11 17 17 17 9 0 10 -23 6
-82 -3 -57 -2 -75 4 -59 6 14 9 50 9 80 -1 31 -2 70 -2 86 0 17 -2 24 -5 18
-2 -7 -9 -13 -14 -13 -6 0 -7 5 -4 10 10 16 -1 11 -19 -9z m14 -17 c0 -8 -5
-12 -10 -9 -6 4 -8 11 -5 16 9 14 15 11 15 -7z"/>
<path d="M6095 1029 c-9 -17 -14 -33 -11 -36 3 -3 10 6 15 20 5 14 15 27 22
29 10 3 10 6 1 11 -7 5 -17 -5 -27 -24z"/>
<path d="M5793 920 c0 -25 2 -35 4 -22 2 12 2 32 0 45 -2 12 -4 2 -4 -23z"/>
<path d="M5823 880 c0 -47 2 -66 4 -42 2 23 2 61 0 85 -2 23 -4 4 -4 -43z"/>
<path d="M6917 941 c-4 -17 -3 -21 5 -13 5 5 8 16 6 23 -3 8 -7 3 -11 -10z"/>
<path d="M6945 909 c-4 -6 -5 -12 -2 -15 2 -3 7 2 10 11 7 17 1 20 -8 4z"/>
<path d="M6913 890 c2 -8 -2 -30 -9 -49 -19 -46 -9 -53 12 -9 13 28 14 39 5
54 -7 11 -10 12 -8 4z"/>
<path d="M6882 855 c-7 -14 -12 -31 -12 -38 1 -7 7 3 16 22 17 39 13 54 -4 16z"/>
<path d="M6208 863 c7 -3 16 -2 19 1 4 3 -2 6 -13 5 -11 0 -14 -3 -6 -6z"/>
<path d="M6447 765 c-8 -86 -9 -271 -1 -262 3 3 6 37 6 74 -1 37 3 84 8 103 5
19 5 62 1 95 l-7 60 -7 -70z"/>
<path d="M3514 650 c0 -52 1 -74 3 -47 2 26 2 68 0 95 -2 26 -3 4 -3 -48z"/>
<path d="M7214 600 c0 -69 1 -97 3 -62 2 34 2 90 0 125 -2 34 -3 6 -3 -63z"/>
<path d="M8254 390 c0 -173 2 -244 3 -157 2 86 2 228 0 315 -1 86 -3 15 -3
-158z"/>
<path d="M950 672 c4 -2 3 -15 -2 -30 -7 -19 -7 -73 0 -172 l10 -145 -3 160
c-2 88 -1 141 2 118 4 -43 5 -43 44 -43 39 0 39 0 39 40 l0 40 53 1 c28 1 63
5 77 9 14 4 -27 6 -95 4 l-120 -3 114 9 c163 13 166 17 9 16 -75 -1 -133 -2
-128 -4z"/>
<path d="M1200 530 l0 -130 -40 0 -40 0 0 -80 0 -80 39 0 c40 0 40 0 44 -42 2
-24 4 71 5 210 1 138 0 252 -3 252 -3 0 -5 -58 -5 -130z"/>
<path d="M6090 633 c0 -19 17 -24 30 -8 9 10 9 15 1 15 -6 0 -11 -6 -11 -12 0
-9 -4 -8 -10 2 -6 9 -10 10 -10 3z"/>
<path d="M1224 280 c0 -157 2 -221 3 -142 2 78 2 206 0 285 -1 78 -3 14 -3
-143z"/>
<path d="M6472 500 c0 -14 2 -19 5 -12 2 6 2 18 0 25 -3 6 -5 1 -5 -13z"/>
<path d="M6452 470 c0 -14 2 -19 5 -12 2 6 2 18 0 25 -3 6 -5 1 -5 -13z"/>
<path d="M6255 470 c4 -6 3 -16 -2 -23 -5 -7 -14 -24 -21 -39 -9 -23 -9 -28 2
-28 8 0 18 19 25 44 14 55 14 56 0 56 -5 0 -7 -5 -4 -10z"/>
<path d="M6622 409 c6 -16 12 -28 14 -26 5 5 -13 57 -20 57 -3 0 0 -14 6 -31z"/>
<path d="M11748 404 c-5 -4 -8 -25 -8 -48 0 -28 3 -37 11 -29 6 6 9 27 7 48
-2 20 -6 33 -10 29z"/>
<path d="M1243 320 c0 -47 2 -66 4 -42 2 23 2 61 0 85 -2 23 -4 4 -4 -43z"/>
<path d="M6892 373 c-64 -90 -100 -202 -87 -264 l7 -31 23 40 c17 31 22 51 18
80 -6 43 27 129 52 139 8 3 15 9 15 15 0 5 -4 6 -10 3 -6 -3 -7 1 -4 9 3 9 12
16 20 16 8 0 14 5 14 10 0 20 -29 9 -48 -17z m-61 -205 c-3 -21 -6 -26 -9 -15
-3 17 3 47 11 47 2 0 1 -15 -2 -32z"/>
<path d="M12163 355 c0 -22 2 -30 4 -17 2 12 2 30 0 40 -3 9 -5 -1 -4 -23z"/>
<path d="M6228 363 c6 -2 18 -2 25 0 6 3 1 5 -13 5 -14 0 -19 -2 -12 -5z"/>
<path d="M6646 335 c-9 -26 -7 -32 5 -12 6 10 9 21 6 23 -2 3 -7 -2 -11 -11z"/>
<path d="M6890 316 c0 -2 -5 -27 -10 -56 -7 -38 -7 -57 1 -66 9 -11 3 -30 -21
-81 -19 -38 -37 -76 -42 -85 -11 -24 -10 -28 7 -28 14 0 19 14 18 47 0 6 6 9
13 6 10 -3 16 5 20 26 4 17 11 31 16 31 5 0 8 26 8 58 -1 31 2 78 6 105 5 33
3 47 -5 47 -6 0 -11 -2 -11 -4z"/>
<path d="M954 155 c0 -88 2 -123 3 -77 2 46 2 118 0 160 -1 42 -3 5 -3 -83z"/>
<path d="M6671 298 c0 -7 4 -22 9 -33 8 -18 9 -17 9 7 1 15 -3 30 -9 33 -5 3
-10 0 -9 -7z"/>
<path d="M4205 270 c-3 -5 -1 -10 4 -10 6 0 11 5 11 10 0 6 -2 10 -4 10 -3 0
-8 -4 -11 -10z"/>
<path d="M6650 245 c-7 -14 -10 -28 -7 -31 4 -4 11 6 17 21 14 36 7 42 -10 10z"/>
<path d="M11747 220 c3 -30 7 -57 9 -59 8 -9 2 75 -6 94 -5 12 -6 -1 -3 -35z"/>
<path d="M4198 193 c-3 -27 -1 -52 4 -57 4 -6 8 16 8 47 0 69 -6 74 -12 10z"/>
<path d="M6600 195 c-10 -12 -10 -15 3 -15 8 0 18 -6 20 -12 4 -9 6 -8 6 2 0
8 -3 21 -8 28 -6 10 -10 10 -21 -3z"/>
<path d="M9759 93 c-1 -5 -1 -17 -1 -28 1 -17 0 -17 -4 -2 -3 9 -10 17 -16 17
-5 0 -7 -7 -4 -16 3 -9 6 -27 6 -40 0 -14 6 -24 14 -24 10 0 16 14 18 43 2 23
8 42 13 42 6 0 11 -19 13 -42 2 -24 7 -43 13 -43 10 0 12 59 3 84 -6 16 -53
23 -55 9z"/>
<path d="M8250 20 c0 -11 4 -20 9 -20 5 0 7 9 4 20 -3 11 -7 20 -9 20 -2 0 -4
-9 -4 -20z"/>
<path d="M9501 24 c0 -11 3 -14 6 -6 3 7 2 16 -1 19 -3 4 -6 -2 -5 -13z"/>
</g>
</svg>
